<svg width="320" height="251" viewBox="0 0 320 251" xmlns="http://www.w3.org/2000/svg" xmlns:xlink="http://www.w3.org/1999/xlink"><title>zero</title><defs><path id="a" d="M0 1.333h320v250.52H0z"/><path id="c" d="M0 1.333h320v250.52H0z"/></defs><g fill="none" fill-rule="evenodd"><g transform="translate(0 -.852)"><mask id="b" fill="#fff"><use xlink:href="#a"/></mask><path d="M74.667 46.37c0-8.444-2.815-15.11-8.297-20.148-5.48-5.037-12.592-7.407-21.48-7.407-8.89 0-16 2.518-21.63 7.407-5.63 4.89-8.445 11.556-8.445 20.148v161.186c0 8.444 2.815 15.11 8.444 20.148 5.63 4.89 12.888 7.407 21.63 7.407 8.74 0 15.85-2.517 21.48-7.406 5.63-4.89 8.297-11.556 8.297-20.148V46.37zM89.63 206.963c0 7.11-1.186 13.185-3.704 18.37-2.37 5.186-5.63 9.482-9.778 12.89-4 3.407-8.74 5.925-14.222 7.703-5.482 1.778-11.11 2.518-17.185 2.518-6.073 0-11.703-.888-17.184-2.518-5.482-1.778-10.223-4.296-14.223-7.704-4-3.407-7.26-7.703-9.777-12.89-2.37-5.184-3.704-11.258-3.704-18.37v-160c0-6.814 1.185-12.888 3.704-17.925 2.37-5.185 5.63-9.48 9.777-13.037 4-3.556 8.74-6.222 14.223-7.852C33.036 6.37 38.666 5.63 44.74 5.63c6.223 0 12.15.89 17.482 2.518C67.704 9.926 72.444 12.444 76.444 16s7.26 7.852 9.482 13.037c2.37 5.185 3.407 11.11 3.407 17.926v160h.297z" fill="#010101" mask="url(#b)"/></g><g transform="translate(0 -.852)"><mask id="d" fill="#fff"><use xlink:href="#c"/></mask><path d="M306.815 128.148c0-4.592-1.63-8.148-4.74-10.667-3.112-2.517-7.408-3.702-12.742-3.702-5.333 0-9.63 1.185-12.89 3.703-3.258 2.52-4.887 6.076-4.887 10.668v93.482c0 4.592 1.63 8 4.888 10.518 3.26 2.37 7.556 3.556 12.89 3.556 5.333 0 9.48-1.185 12.74-3.556 3.11-2.37 4.74-5.926 4.74-10.518v-93.482zM320 221.333c0 8.74-3.11 15.26-9.185 19.556-6.074 4.295-13.334 6.517-21.334 6.517-8.147 0-15.258-2.222-21.332-6.518-6.074-4.297-9.185-10.816-9.185-19.557v-92.89c0-8.887 3.11-15.406 9.185-19.702 6.074-4.296 13.185-6.37 21.333-6.37 8.15 0 15.26 2.074 21.335 6.37 6.074 4.297 9.185 10.816 9.185 19.704v92.89zm-133.037 30.52h-11.407L284.593 1.332H296l-109.037 250.52zm12.444-219.705c0-4.592-1.63-8.148-4.74-10.667-3.11-2.517-7.408-3.702-12.74-3.702-5.334 0-9.63 1.333-12.89 3.703-3.26 2.52-4.89 6.076-4.89 10.668v93.926c0 4.296 1.63 7.704 4.89 10.222 3.26 2.52 7.556 3.704 12.89 3.704 5.332 0 9.48-1.185 12.74-3.704 3.11-2.518 4.74-5.926 4.74-10.222V32.148zm13.186 93.333c0 8.742-3.112 15.26-9.186 19.557-6.074 4.296-13.333 6.52-21.333 6.52-8.148 0-15.26-2.224-21.333-6.52-6.073-4.296-9.184-10.815-9.184-19.556V32.594c0-8.74 3.11-15.26 9.185-19.556 6.075-4.296 13.186-6.518 21.334-6.518s15.26 2.22 21.333 6.517c6.074 4.296 9.186 10.815 9.186 19.556v92.888z" fill="#010101" mask="url(#d)"/></g></g></svg>