<?xml version="1.0" standalone="no"?>
<!DOCTYPE svg PUBLIC "-//W3C//DTD SVG 1.1//EN" "http://www.w3.org/Graphics/SVG/1.1/DTD/svg11.dtd" >
<svg xmlns="http://www.w3.org/2000/svg">
<metadata>
Created by FontPrep 20130207 at Sun Mar 20 10:44:28 2016
 By Alex
</metadata>
<defs>
<font id="d41d8cd98f00b204e9800998ecf8427e" horiz-adv-x='1024' >
  <font-face 
    font-family=""
    font-weight="300"
    font-stretch="normal"
    units-per-em="2048"
    panose-1="2 11 3 2 2 2 3 2 2 3"
    ascent="1638"
    descent="-410"
    x-height="922"
    cap-height="1434"
    bbox="-1022 -709 3459 2036.01"
    underline-thickness="102"
    underline-position="-102"
    unicode-range="U+000D-FEFF"
  />
<missing-glyph horiz-adv-x="1024" 
d="M102 1049h820v-1049h-820v1049zM905 16v1016h-786v-1016h786z" />
    <glyph glyph-name="afii10017small.var.accented" unicode="&#xf350;`" horiz-adv-x="1146" 
d="M309 442h522l-260 564zM551 1085h45l508 -1085h-66l-180 387h-573l-181 -387h-61zM537 1217l-33 30l233 291l37 -41z" />
    <glyph glyph-name="afii10022small.var.accented" unicode="&#xf355;`" horiz-adv-x="970" 
d="M190 1075h637v-57h-577v-443h528v-57h-528v-461h594v-57h-654v1075zM485 1217l-32 30l233 291l37 -41z" />
    <glyph glyph-name="afii10026small.var.accented" unicode="&#xf358;`" horiz-adv-x="1320" 
d="M190 0v1075h60v-981l825 981h55v-1075h-59v981l-825 -981h-56zM602 1217l-33 30l234 291l37 -41z" />
    <glyph glyph-name="afii10032small.var.accented" unicode="&#xf35e;`" horiz-adv-x="1325" 
d="M158 540q0 -210 145 -354q145 -143 359 -143q215 0 360 141t145 353q0 211 -144 352t-359 141t-361 -139q-145 -141 -145 -351zM257 141q-163 157 -163 394t163 396q163 158 406 157q244 -1 406 -157q162 -155 162 -393t-163 -395t-405 -157q-243 0 -406 155zM633 1217
l-33 30l234 291l36 -41z" />
    <glyph glyph-name="afii10037small.var.accented" unicode="&#xf363;`" horiz-adv-x="1058" 
d="M374 55q56 0 97 47t72 107l24 45l-536 821h73l494 -762l367 762h63l-405 -833q-59 -122 -117 -182t-134 -60q-75 0 -122 33l22 51q46 -29 102 -29zM500 1217l-33 30l233 291l37 -41z" />
    <glyph glyph-name="afii10045small.var.accented" unicode="&#xf36b;`" horiz-adv-x="1355" 
d="M438 645q432 -1 432 -323q0 -156 -120 -241t-326 -85l-234 4v1075h60v-436q86 6 188 6zM807 325q0 263 -369 263q-76 0 -188 -6v-525l180 -4q184 0 281 71q96 71 96 201zM1104 1075h61v-1075h-61v1075zM582 1217l-33 30l233 291l37 -41z" />
    <glyph glyph-name="afii10047small.var.accented" unicode="&#xf36d;`" horiz-adv-x="1128" 
d="M98 983q133 107 373 107q115 0 223 -39q220 -80 299 -283q41 -102 41 -224q0 -241 -157 -400q-160 -158 -420 -158q-217 0 -383 112l28 49q158 -102 372 -102t352 133q139 133 147 342h-639v58h637q-18 319 -311 420q-93 32 -207 32q-207 0 -328 -90zM459 1217l-33 30
l233 291l37 -41z" />
    <glyph glyph-name="afii10048small.var.accented" unicode="&#xf36e;`" horiz-adv-x="1765" 
d="M1608 539q0 213 -137 352t-349 139t-350 -139t-137 -351q0 -213 136 -354t350 -141t351 141q136 140 136 353zM190 1075h60v-497h321q12 217 164 365q153 147 390 147q236 0 392 -156q154 -156 154 -394t-154 -397q-155 -157 -393 -157t-394 152q-155 152 -159 382h-321
v-520h-60v1075zM686 1217l-33 30l234 291l37 -41z" />
    <glyph glyph-name="afii10049small.var.accented" unicode="&#xf36f;`" horiz-adv-x="1017" 
d="M768 487v531l-205 4q-168 0 -257 -78t-91 -201q0 -93 76 -168t176 -88h301zM827 0h-59v430h-291l-346 -430h-74l355 438q-104 25 -183 109q-79 83 -77 194q0 148 107 244t310 94l258 -4v-1075zM520 1217l-33 30l234 291l37 -41z" />
    <glyph glyph-name="afii10023small.var.accented" unicode="&#xf371;`" horiz-adv-x="970" 
d="M190 1075h637v-57h-577v-443h528v-57h-528v-461h594v-57h-654v1075zM639 1364q0 18 13 30q12 12 30 13q18 0 30 -12q12 -13 13 -31q0 -18 -12 -30q-11 -12 -29 -13q-18 0 -32 12q-13 13 -13 31zM281 1364q0 18 13 30q12 12 30 13q18 0 30 -12q12 -13 12 -31t-12 -30
t-29 -13q-17 0 -31 12q-13 13 -13 31zM397 1217l-32 30l233 291l37 -41z" />
    <glyph glyph-name="afii10017.var.accented" unicode="&#x410;`" horiz-adv-x="1413" 
d="M371 590h667l-333 768zM684 1448h45l631 -1448h-66l-231 532h-717l-229 -532h-64zM657 1516l-18 36l338 193l22 -47z" />
    <glyph glyph-name="afii10022.var.accented" unicode="&#x415;`" horiz-adv-x="1177" 
d="M238 1434h778v-58h-717v-618h655v-58h-655v-643h737v-57h-798v1434zM524 1516l-18 36l338 193l22 -47z" />
    <glyph glyph-name="afii10026.var.accented" unicode="&#x418;`" horiz-adv-x="1636" 
d="M238 0v1434h61v-1338l1044 1338h56v-1434h-62v1335l-1044 -1335h-55zM709 1516l-19 36l338 193l23 -47z" />
    <glyph glyph-name="afii10032.var.accented" unicode="&#x41e;`" horiz-adv-x="1652" 
d="M180 717q0 -289 185 -482q185 -194 462 -194t460 194t183 484t-185 481t-460 193q-137 1 -255 -51q-240 -105 -341 -356q-49 -124 -49 -269zM117 716q0 314 204 524q95 100 224 156t279 56t281 -55q263 -111 375 -387q54 -135 54 -293q0 -316 -204 -524
q-95 -99 -225 -155t-280 -56t-279 55q-264 113 -374 387q-54 136 -55 292zM729 1516l-18 36l338 193l22 -47z" />
    <glyph glyph-name="afii10037.var.accented" unicode="&#x423;`" horiz-adv-x="1310" 
d="M444 55q52 -1 84 17q87 48 154 194l31 62l-674 1106h67l635 -1047l469 1047h62l-504 -1115q-74 -167 -144 -243t-162 -76q-93 0 -147 43l21 51q56 -39 108 -39zM610 1516l-18 36l338 193l22 -47z" />
    <glyph glyph-name="afii10045.var.accented" unicode="&#x42b;`" horiz-adv-x="1669" 
d="M537 850q274 0 404 -110t130 -316t-148 -318q-148 -111 -401 -110l-284 4v1434h61v-594q120 10 238 10zM1010 427q0 179 -118 273t-355 93q-134 0 -238 -13v-723l229 -4q236 -1 359 97t123 277zM1372 1434h60v-1434h-60v1434zM715 1516l-19 36l338 193l23 -47z" />
    <glyph glyph-name="afii10047.var.accented" unicode="&#x42d;`" horiz-adv-x="1398" 
d="M127 1313q158 139 459 139q141 0 273 -51q267 -103 371 -376q50 -134 50 -297q0 -328 -198 -537t-513 -209q-270 0 -475 149l31 49q199 -139 440 -139q287 0 466 187q178 187 188 474h-803v58h803q-12 293 -192 463t-474 170q-236 0 -399 -123zM514 1516l-18 36l338 193
l22 -47z" />
    <glyph glyph-name="afii10048.var.accented" unicode="&#x42e;`" horiz-adv-x="2199" 
d="M770 719q0 -289 177 -483q177 -195 451 -195q275 0 447 192t172 485t-176 483t-446 192q-135 1 -250 -51t-198 -142q-177 -192 -177 -481zM238 1434h61v-674h410q16 301 208 497q191 195 484 195q294 0 487 -209t193 -526t-194 -524q-91 -99 -218 -155t-275 -56t-272 54
q-253 110 -359 379q-52 132 -54 287h-410v-702h-61v1434zM1036 1516l-18 36l338 193l22 -47z" />
    <glyph glyph-name="afii10049.var.accented" unicode="&#x42f;`" horiz-adv-x="1245" 
d="M252 995q0 -128 98 -232t223 -120h375v733l-252 4q-217 0 -331 -108q-113 -108 -113 -277zM1008 0h-60v586h-362l-439 -586h-73l450 594q-133 30 -234 142q-102 112 -102 259q0 194 130 316q140 127 389 127l301 -4v-1434zM659 1516l-18 36l338 193l22 -47z" />
    <glyph glyph-name="afii10023.var.accented" unicode="&#x401;`" horiz-adv-x="1177" 
d="M238 1434h778v-58h-717v-618h655v-58h-655v-643h737v-57h-798v1434zM526 1520l-22 18l289 207l43 -23zM840 1629q0 19 13 31.5t29.5 12.5t28 -11.5t11.5 -31.5t-11.5 -32.5t-28 -12.5t-29.5 12.5t-13 31.5zM336 1629q0 19 12 31.5t30 12.5t29 -11.5t11 -31.5t-11.5 -32.5
t-28.5 -12.5t-29.5 12.5t-12.5 31.5z" />
    <glyph glyph-name="afii10065.var.accented" unicode="&#x430;`" horiz-adv-x="935" 
d="M380 45q139 1 212 49t133 125v184q-115 82 -274 82q-192 0 -268 -125q-26 -43 -25 -102q0 -102 68 -158q69 -55 154 -55zM782 575v-575h-57v160q-58 -78 -113 -110q-103 -60 -231 -60q-127 0 -206 72t-79 198q0 127 97 200t262 74t270 -75q0 96 -6 175t-33 134
q-57 117 -242 117q-78 1 -135 -19t-123 -59l-18 49q138 86 298 85t238 -93t78 -273zM455 1130l-37 25l223 299l43 -35z" />
    <glyph glyph-name="afii10070.var.accented" unicode="&#x435;`" horiz-adv-x="1079" 
d="M915 512q0 175 -98 274t-266 99t-270 -102t-115 -271h749zM975 556q0 -64 -4 -93h-801q2 -199 116 -313t306 -113q98 0 179 36t132 91l23 -43q-60 -70 -152 -105q-189 -72 -374 -1q-186 70 -258 248q-36 89 -36 193t29 193q60 183 229 254q85 37 186 37t177 -30t131 -84
t86 -130t31 -140zM524 1130l-37 25l224 299l43 -35z" />
    <glyph glyph-name="afii10074.var.accented" unicode="&#x438;`" horiz-adv-x="1148" 
d="M174 0v922h59v-838l685 838h57v-922h-57v838l-685 -838h-59zM537 1130l-37 25l223 299l43 -35z" />
    <glyph glyph-name="afii10080.var.accented" unicode="&#x43e;`" horiz-adv-x="1165" 
d="M166 461q0 -185 117 -304q118 -120 299 -120t299 120t117 305t-118 304t-298 119t-299 -120q-117 -119 -117 -304zM926 804q133 -137 133 -344t-133 -343q-133 -137 -344 -136q-210 1 -343 138t-133 343t133 342t342 136t345 -136zM547 1130l-37 25l223 299l43 -35z" />
    <glyph glyph-name="afii10085.var.accented" unicode="&#x443;`" horiz-adv-x="966" 
d="M205 -356q79 0 143 70t131 237l21 49l-465 922h67l355 -707q39 -74 71 -149q31 87 60 153l278 703h66l-377 -922q-99 -240 -172 -324t-154 -85t-159 38l20 45q66 -30 115 -30zM494 1130l-37 25l223 299l43 -35z" />
    <glyph glyph-name="afii10093.var.accented" unicode="&#x44b;`" horiz-adv-x="1234" 
d="M1004 922h57v-922h-57v922zM233 528v-473h156q176 -1 246 63t70 175t-72 173t-242 62h-158zM174 922h59v-338h166q291 0 347 -176q38 -119 -1 -230q-60 -178 -356 -178h-215v922zM565 1130l-37 25l224 299l43 -35z" />
    <glyph glyph-name="afii10095.var.accented" unicode="&#x44d;`" horiz-adv-x="1005" 
d="M328 444v52h512q-12 178 -128 284q-116 105 -294 105q-96 0 -177 -36t-135 -93l-26 41q59 71 152 107q94 36 192 36q206 0 340 -131q135 -131 135 -341q0 -209 -130 -349q-130 -139 -320 -137q-238 0 -355 112l29 45q116 -104 319 -102q161 0 276 113q116 113 124 294
h-514zM418 1130l-37 25l223 299l43 -35z" />
    <glyph glyph-name="afii10096.var.accented" unicode="&#x44e;`" horiz-adv-x="1519" 
d="M671 158q111 -117 285 -117t284 117t110 301q0 185 -110 304q-110 118 -284 118q-175 0 -285 -118t-110 -304q0 -184 110 -301zM174 922h62v-422h262q12 193 138 317q126 123 323 123q198 0 326 -137t128 -344q0 -206 -129 -342q-129 -137 -329 -136t-327 131
q-126 130 -130 330h-262v-442h-62v922zM727 1130l-37 25l223 299l43 -35z" />
    <glyph glyph-name="afii10097.var.accented" unicode="&#x44f;`" horiz-adv-x="968" 
d="M225 640q0 -86 72 -148t152 -62h288v436h-215q-224 0 -280 -137q-16 -41 -17 -89zM795 922v-922h-58v375h-272l-297 -375h-74l312 387q-157 21 -220 156q-20 45 -20 100q0 195 192 256q70 23 174 23h263zM551 1130l-37 25l223 299l43 -35z" />
    <glyph glyph-name="afii10071.var.accented" unicode="&#x451;`" horiz-adv-x="1079" 
d="M282 783q-103 -102 -116 -271h749q0 172 -97 272.5t-265 100.5t-271 -102zM975 556q0 -65 -4 -93h-801q2 -199 115.5 -312.5t306.5 -113.5q98 0 179 36t132 91l23 -43q-59 -70 -151.5 -104.5t-191.5 -34.5q-207 0 -342 131t-135 345t119.5 348t337.5 134q180 0 265 -84
t116 -159.5t31 -140.5zM465 1130l-33 21l225 299l37 -31zM737 1277q0 17 12.5 28.5t29 11.5t27.5 -11.5t11 -28.5t-11 -29.5t-27.5 -12.5t-29 12.5t-12.5 29.5zM272 1277q0 17 12.5 28.5t27.5 11.5t27.5 -11.5t12.5 -28.5t-12 -29.5t-28 -12.5t-28 12.5t-12 29.5z" />
    <glyph glyph-name="fi" unicode="fi" horiz-adv-x="1003" 
d="M748 866h-480v-866h-57v1065q0 199 92 293t252 94t254 -94l-39 -37q-39 31 -87 53.5t-122 22.5q-137 0 -215 -83t-78 -267v-125h537v-922h-57v866z" />
    <glyph glyph-name="fl" unicode="fl" horiz-adv-x="1124" 
d="M522 1397q-254 0 -254 -344v-131h275v-56h-275v-866h-57v1071q0 381 313 381q137 0 230 -72h37v-1106q0 -117 32.5 -172t117.5 -55t142 47l21 -47q-74 -55 -178 -55t-148.5 58.5t-44.5 180.5v1100q-91 66 -211 66z" />
    <glyph glyph-name=".notdef" horiz-adv-x="1024" 
d="M102 1049h820v-1049h-820v1049zM905 16v1016h-786v-1016h786z" />
    <glyph glyph-name=".null" horiz-adv-x="0" 
 />
    <glyph glyph-name=".null" horiz-adv-x="0" 
 />
    <glyph glyph-name="nonmarkingreturn" unicode="&#xd;" horiz-adv-x="497" 
 />
    <glyph glyph-name="space" unicode=" " horiz-adv-x="497" 
 />
    <glyph glyph-name="exclam" unicode="!" horiz-adv-x="634" 
d="M268 47q0 18 14.5 32.5t34.5 14.5t35 -14t15 -32t-14.5 -34t-35.5 -16t-35 15.5t-14 33.5zM287 1434h61v-1078h-61v1078z" />
    <glyph glyph-name="quotedbl" unicode="&#x22;" horiz-adv-x="796" 
d="M512 1434h57v-400h-57v400zM227 1434h58v-400h-58v400z" />
    <glyph glyph-name="numbersign" unicode="#" horiz-adv-x="1380" 
d="M371 498h475l162 438h-476zM82 444v54h233l164 438h-397v53h416l174 463l45 -18l-164 -445h475l172 463l47 -16l-166 -447h219v-53h-237l-162 -438h399v-54h-419l-170 -462l-49 18l163 444h-475l-170 -462l-49 18l166 444h-215z" />
    <glyph glyph-name="dollar" unicode="$" 
d="M610 1393q-162 0 -255 -79t-93 -208q0 -202 158 -265t230.5 -89.5t230 -95.5t157.5 -306q0 -157 -112 -255.5t-283 -110.5v-189h-57v187q-200 7 -298 82t-124 120l39 41q100 -130 218.5 -157t180.5 -27q149 0 262 81t113 226q0 113 -57.5 179.5t-143.5 110.5t-187.5 77
t-187.5 80t-143 118.5t-57 204.5t101.5 229.5t283.5 104.5v166h57v-168q106 -4 198.5 -43t147.5 -100l-35 -43q-129 129 -344 129z" />
    <glyph glyph-name="percent" unicode="%" horiz-adv-x="1693" 
d="M1374 1452l35 -27l-1077 -1443l-37 28zM172 1120q0 -116 82 -195t197 -79q114 0 194 77t80 194t-82 194q-82 76 -193 77q-112 1 -195 -75q-83 -77 -83 -193zM117 1116q0 138 94 230t236 92q143 0 239 -92t95 -229t-96 -230q-95 -92 -238 -91t-236 92q-94 91 -94 228z
M969 322q0 -117 81 -194t195 -78t196 76q81 77 81 194t-82 194q-82 76 -193 77q-112 1 -195 -75q-83 -77 -83 -194zM1482 551q95 -93 95 -229q0 -137 -94 -229t-236 -93q-143 0 -239 92q-95 92 -95 228q0 137 94 229t236 92q143 0 239 -90z" />
    <glyph glyph-name="ampersand" unicode="&#x26;" horiz-adv-x="1497" 
d="M440 1018.5q65 -66.5 159 -66.5t159 66.5t65 158.5q0 93 -65.5 158.5t-158.5 65.5t-158.5 -65.5t-65.5 -158.5q0 -92 65 -158.5zM332 654q-94 -114 -94 -264q0 -151 110 -250t257 -99q278 0 435 250l-460 586q-154 -109 -248 -223zM174 438.5q0 227.5 371 472.5
q-98 16 -162 89.5t-64 181.5t82.5 189t197.5 81t197.5 -80.5t82.5 -191.5t-74 -189t-178 -82l452 -573q150 256 150 586h57q0 -370 -170 -635l227 -287h-73l-193 244q-78 -117 -194.5 -189.5t-288.5 -72.5t-296 114.5t-124 342z" />
    <glyph glyph-name="quotesingle" unicode="'" horiz-adv-x="512" 
d="M227 1434h58v-400h-58v400z" />
    <glyph glyph-name="parenleft" unicode="(" horiz-adv-x="534" 
d="M496 -422q-414 354 -414 871t416 894l37 -32q-311 -286 -353.5 -512t-42.5 -338q0 -227 92.5 -447.5t303.5 -402.5z" />
    <glyph glyph-name="parenright" unicode=")" horiz-adv-x="534" 
d="M395 461q0 358 -142 552.5t-253 297.5l37 32q331 -300 373.5 -535t42.5 -555.5t-414 -674.5l-39 33q211 182 303 402t92 448z" />
    <glyph glyph-name="asterisk" unicode="*" horiz-adv-x="919" 
d="M193 1267.5q0 20.5 13.5 35t33.5 14.5t34.5 -14.5t14.5 -35t-14.5 -33.5t-34.5 -13t-33.5 13t-13.5 33.5zM242 999q-49 0 -49 50q0 18 13.5 32.5t33.5 14.5t34.5 -15t14.5 -35t-14.5 -33.5t-32.5 -13.5zM631 1046q0 20 14 35t35 15t34 -15t13 -35t-13.5 -33.5
t-33.5 -13.5t-34.5 13.5t-14.5 33.5zM631 1267.5q0 20.5 14 35t35 14.5t34 -14.5t13 -35t-13.5 -33.5t-33.5 -13t-34.5 13t-14.5 33.5zM414 914q0 19 14 34t34 15t35 -14.5t15 -34.5t-15.5 -34t-34.5 -14t-33.5 14.5t-14.5 33.5zM416 1404q0 20 14 33t34 13t35 -13.5
t15 -33.5t-15.5 -34.5t-34.5 -14.5t-33.5 15t-14.5 35z" />
    <glyph glyph-name="plus" unicode="+" 
d="M150 764h421v422h54v-422h426v-53h-426v-426h-54v426h-421v53z" />
    <glyph glyph-name="comma" unicode="," horiz-adv-x="370" 
d="M176 0q-20 0 -31.5 13.5t-11.5 31.5t15.5 31.5t45.5 13.5t62.5 -40t32.5 -124t-53.5 -146.5t-124.5 -80.5l-15 31q80 21 110 82t33 123t-38 85q-5 -20 -25 -20z" />
    <glyph glyph-name="hyphen" unicode="-" horiz-adv-x="833" 
d="M190 582h453v-56h-453v56z" />
    <glyph glyph-name="period" unicode="." horiz-adv-x="331" 
d="M117 47q0 18 14.5 32.5t34.5 14.5t34.5 -14t14.5 -32t-14.5 -34t-34.5 -16t-34.5 15.5t-14.5 33.5z" />
    <glyph glyph-name="slash" unicode="/" horiz-adv-x="616" 
d="M631 1452l47 -18l-690 -1860l-49 18z" />
    <glyph glyph-name="zero" unicode="0" horiz-adv-x="1185" 
d="M975 622q0 583 -139.5 678t-244 95t-177 -50.5t-117.5 -140.5t-65.5 -215t-20.5 -355.5t93 -412.5t382 -182t289 583zM150 716.5q0 157.5 24.5 292t77.5 232.5t137 153.5t203 55.5t203 -55.5t137 -153.5t77.5 -232.5t24.5 -292t-23.5 -291.5t-75.5 -232.5t-136 -153.5
t-203 -55t-203 55t-138 153.5t-79.5 232.5t-25.5 291.5z" />
    <glyph glyph-name="one" unicode="1" horiz-adv-x="749" 
d="M459 1448v-1448h-60v1360l-256 -209l-34 45l311 252h39z" />
    <glyph glyph-name="two" unicode="2" horiz-adv-x="1087" 
d="M885 1125q0 -419 -695 -1070h762v-55h-837v49l279 279q279 279 354 480.5t75 271.5q0 136 -81 224.5t-228 88.5q-187 0 -252 -104.5t-76 -182.5l-51 16q19 157 133.5 242.5t228.5 85.5q196 0 292 -104t96 -221z" />
    <glyph glyph-name="three" unicode="3" horiz-adv-x="1093" 
d="M147 270q97 -229 387 -229q68 0 134.5 26.5t138.5 98.5t72 217t-97.5 233.5t-230.5 88.5h-131v57h117q109 0 197.5 95t88.5 240t-86 220.5t-274.5 75.5t-278.5 -213l-37 30q39 115 137.5 178.5t231.5 63.5q174 0 270.5 -95t96.5 -268t-88 -249t-144 -97v-6
q131 -19 209 -119.5t78 -211.5q0 -205 -120 -314.5t-318 -109.5t-280.5 92t-110.5 159z" />
    <glyph glyph-name="four" unicode="4" horiz-adv-x="1081" 
d="M725 395h-670v35l656 1004h67l-641 -979h588v467h57v-467h222v-60h-222v-395h-57v395z" />
    <glyph glyph-name="five" unicode="5" horiz-adv-x="1064" 
d="M147 256q121 -215 381 -215q62 0 128.5 29.5t144.5 113t78 246.5t-114 272t-298 109q-101 0 -209 -37l84 660h600v-58h-551l-69 -536q74 24 168 24q199 0 323.5 -119.5t124.5 -315.5t-124 -321.5t-310 -125.5q-185 0 -274 87t-121 148z" />
    <glyph glyph-name="six" unicode="6" horiz-adv-x="1120" 
d="M574 41q88 0 152.5 30.5t112.5 83t76.5 123t28.5 195.5t-97.5 235.5t-266.5 110.5q-170 0 -271.5 -93.5t-130.5 -215.5q0 -192 76 -290.5t154 -138.5t166 -40zM117 508q0 369 159.5 567.5t281.5 275t243 101.5l26 -45q-236 -54 -422.5 -264t-222.5 -541q66 182 195 227
t216 45q183 0 297 -123.5t114 -315.5t-124.5 -322.5t-287.5 -130.5q-230 0 -352.5 152t-122.5 374z" />
    <glyph glyph-name="seven" unicode="7" horiz-adv-x="954" 
d="M76 1434h801v-31l-562 -1403h-65l551 1376h-725v58z" />
    <glyph glyph-name="eight" unicode="8" horiz-adv-x="1204" 
d="M156 371q0 127 84.5 231t224.5 131v6q-111 28 -183.5 131t-72.5 198t30.5 163.5t84 118t125 76t195.5 26.5t237.5 -105t113.5 -270t-98 -240t-160 -96v-6q138 -16 224 -117t86 -243q0 -178 -132 -285.5t-312.5 -107.5t-313.5 106.5t-133 282.5zM575 709
q-143 0 -250.5 -95.5t-107.5 -236.5t112.5 -238.5t271.5 -97.5t272.5 93.5t113.5 244.5t-102 240.5t-250 89.5h-60zM639 766q110 0 202.5 90.5t92.5 228.5q0 139 -100.5 223.5t-233.5 84.5t-232.5 -86.5t-99.5 -223.5t94.5 -227t202.5 -90h74z" />
    <glyph glyph-name="nine" unicode="9" horiz-adv-x="1118" 
d="M563 1393q-161 0 -276 -111t-115 -270t100.5 -271t267.5 -112q166 0 269.5 88.5t130.5 204.5q0 194 -69.5 292.5t-144.5 138.5t-163 40zM1001 924q0 -391 -193.5 -644t-496.5 -298l-22 47q273 47 448.5 256.5t198.5 541.5q-41 -109 -143.5 -181.5t-255.5 -72.5
q-190 0 -307 127.5t-117 312.5t132.5 312t297.5 127q227 0 342.5 -150t115.5 -378z" />
    <glyph glyph-name="colon" unicode=":" horiz-adv-x="663" 
d="M283 891q0 19 14 33q15 14 35 14t34 -14t15 -32q0 -18 -14 -34t-35 -16t-35 16t-14 33zM283 47q0 19 14 33q15 14 35 14t34 -14t15 -32q0 -18 -14 -34t-35 -16t-35 16t-14 33z" />
    <glyph glyph-name="semicolon" unicode=";" horiz-adv-x="667" 
d="M283 891q0 19 14 33q15 14 35 14t34 -14t15 -32q0 -18 -14 -34t-35 -16t-35 16t-14 33zM324 0q-20 0 -32 14q-11 14 -11 31t15 31t46 14q30 0 62 -40t32 -124t-53 -146t-125 -81l-14 31q55 14 82 49q55 70 58 127q4 95 -36 114q-4 -20 -24 -20z" />
    <glyph glyph-name="less" unicode="&#x3c;" 
d="M143 729v25l826 524v-64l-744 -473l744 -477v-65z" />
    <glyph glyph-name="equal" unicode="=" 
d="M150 934h901v-53h-901v53zM150 596h901v-53h-901v53z" />
    <glyph glyph-name="greater" unicode="&#x3e;" 
d="M231 199v65l744 477l-744 473v64l826 -524v-25z" />
    <glyph glyph-name="question" unicode="?" horiz-adv-x="931" 
d="M350 47q0 18 14.5 32.5t34.5 14.5t35 -14t15 -32t-14.5 -34t-35.5 -16t-35 15.5t-14 33.5zM371 478q0 64 31.5 116.5t78.5 94.5t101.5 79t101.5 82t79 102.5t32 131.5q0 138 -93.5 223.5t-242.5 85.5q-207 0 -340 -181l-37 35q55 90 157.5 147.5t210.5 57.5
q199 0 301.5 -101t102.5 -245q0 -217 -214 -356.5t-214 -279.5q0 -58 8 -97l-53 -4q-10 45 -10 109z" />
    <glyph glyph-name="at" unicode="@" horiz-adv-x="2091" 
d="M1380 805q-128 80 -303 80t-303.5 -123.5t-128.5 -311.5t112.5 -300.5t295.5 -112.5q141 0 225 68.5t102 97.5v602zM1380 137q-135 -155 -363 -155q-77 0 -161 33.5t-177 129.5t-93 308t144 349.5t348 137.5q203 0 360 -98v-787h43q185 0 292 145.5t107 325.5
q0 181 -61.5 319t-170 237.5t-258 155.5t-329.5 56t-337 -64.5t-270.5 -176t-178 -264t-64.5 -327.5t64.5 -326.5t178 -264.5t271 -178.5t307.5 -65.5t254 25l10 -53q-124 -27 -231 -27q-199 0 -366 69.5t-287.5 189.5t-188 281.5t-67.5 347.5t67.5 347.5t188 282
t287.5 190.5t359 70t352.5 -59.5t277 -166t182 -254t65.5 -345.5t-120.5 -361.5t-344.5 -163.5h-90v137z" />
    <glyph glyph-name="A" unicode="A" horiz-adv-x="1413" 
d="M371 590h667l-333 768zM684 1448h45l631 -1448h-66l-231 532h-717l-229 -532h-64z" />
    <glyph glyph-name="B" unicode="B" horiz-adv-x="1263" 
d="M299 764h319q156 0 261.5 85.5t105.5 230.5q0 300 -389 300h-20l-277 -4v-612zM1044 382q0 162 -112.5 244.5t-325.5 82.5h-307v-652l35 -1l268 -3q207 0 324.5 83.5t117.5 245.5zM1047 1085q0 -140 -88 -228t-220 -112v-4q176 -16 271.5 -105t95.5 -243
q0 -201 -138 -299t-366 -98h-48l-316 4v1434h42l320 4q447 0 447 -353z" />
    <glyph glyph-name="C" unicode="C" horiz-adv-x="1345" 
d="M810 -18q-142 0 -272 52t-275.5 202t-145.5 473t193 533t499 210q269 0 432 -133l-31 -43q-149 117 -399 117q-141 0 -258 -52.5t-245 -191.5t-128 -437t181 -484.5t470 -186.5q243 0 410 143l27 -47q-76 -74 -196 -114.5t-262 -40.5z" />
    <glyph glyph-name="D" unicode="D" horiz-adv-x="1505" 
d="M569 53q362 0 559 194t197 484q0 291 -184 471t-561 180l-281 -6v-1319l45 -1zM238 0v1434h22l324 6q404 0 604.5 -198.5t200.5 -513.5t-215.5 -523.5t-606.5 -208.5l-315 4h-14z" />
    <glyph glyph-name="E" unicode="E" horiz-adv-x="1177" 
d="M238 1434h778v-58h-717v-618h655v-58h-655v-643h737v-57h-798v1434z" />
    <glyph glyph-name="F" unicode="F" horiz-adv-x="1114" 
d="M238 1434h794v-58h-733v-659h672v-58h-672v-659h-61v1434z" />
    <glyph glyph-name="G" unicode="G" horiz-adv-x="1488" 
d="M1212 1272q-143 121 -411 121t-444.5 -191.5t-176.5 -490.5q0 -300 177 -485t462 -185q212 0 323 64.5t150 103.5v397h-446v58h506v-486q-137 -137 -303 -166.5t-234 -29.5q-313 0 -505.5 202t-192.5 525t140 475.5t266.5 210t272.5 57.5q279 0 447 -133z" />
    <glyph glyph-name="H" unicode="H" horiz-adv-x="1581" 
d="M1284 702h-985v-702h-61v1434h61v-674h985v674h59v-1434h-59v702z" />
    <glyph glyph-name="I" unicode="I" horiz-adv-x="647" 
d="M293 1434h61v-1434h-61v1434z" />
    <glyph glyph-name="J" unicode="J" horiz-adv-x="716" 
d="M418 313v1121h59v-1127q0 -158 -58.5 -241.5t-205.5 -83.5q-106 0 -178 59l24 47q65 -47 141 -47q130 0 174 72.5t44 199.5z" />
    <glyph glyph-name="K" unicode="K" horiz-adv-x="1277" 
d="M238 1434h61v-1434h-61v1434zM477 752l729 -752h-88l-725 748l705 686h84z" />
    <glyph glyph-name="L" unicode="L" horiz-adv-x="1134" 
d="M238 1434h61v-1377h797v-57h-858v1434z" />
    <glyph glyph-name="M" unicode="M" horiz-adv-x="1796" 
d="M238 1434h63l608 -830l590 830h60v-1434h-60v1341l-588 -827h-10l-602 821v-1335h-61v1434z" />
    <glyph glyph-name="N" unicode="N" horiz-adv-x="1636" 
d="M295 0h-57v1434h49l1052 -1328v1328h60v-1434h-49l-1055 1323v-1323z" />
    <glyph glyph-name="O" unicode="O" horiz-adv-x="1652" 
d="M365 235.5q185 -194.5 462 -194.5t460 194.5t183 484t-186 481.5t-458.5 192t-459 -192.5t-186.5 -481.5t185 -483.5zM117 716q0 313 204 524.5t504 211.5q150 0 280 -55.5t225 -153.5t149.5 -233.5t54.5 -293t-54.5 -291.5t-149.5 -232.5t-225 -154.5t-279.5 -56
t-279.5 55t-225.5 153.5t-149.5 233.5t-54 292z" />
    <glyph glyph-name="P" unicode="P" horiz-adv-x="1177" 
d="M564 645q204 0 318.5 104t114.5 269q0 256 -155.5 309t-226.5 53h-27l-289 -4v-721q165 -10 265 -10zM577 588q-113 0 -278 10v-598h-61v1434l327 4q270 0 382 -122t112 -300q0 -287 -184.5 -357.5t-297.5 -70.5z" />
    <glyph glyph-name="Q" unicode="Q" horiz-adv-x="1652" 
d="M365 235.5q185 -194.5 460 -194.5q220 0 383 125l-125 153l39 37l131 -155q102 92 159.5 224.5t57.5 284.5t-49 276t-136 214t-204.5 141.5t-255 51.5t-255 -51.5t-254 -192.5t-136.5 -430t185 -483.5zM117 716q0 313 204 524.5t504 211.5q150 0 280 -55.5t225 -153.5
t149.5 -233.5t54.5 -301.5t-64.5 -309t-177.5 -243l131 -156h-77l-99 119q-183 -137 -422 -137q-150 0 -279.5 55t-225 153.5t-149.5 233.5t-54 292z" />
    <glyph glyph-name="R" unicode="R" horiz-adv-x="1271" 
d="M299 684h279q155 0 278 101.5t123 250.5q0 244 -157.5 294t-278.5 50h-11l-233 -4v-692zM929 1327q113 -111 113 -272t-101.5 -275t-260.5 -141l520 -639h-76l-510 627h-315v-627h-61v1434h42l267 4q269 0 382 -111z" />
    <glyph glyph-name="S" unicode="S" horiz-adv-x="1112" 
d="M563 1393q-160 0 -252 -79t-92 -208q0 -202 158 -265t230.5 -89.5t230 -95.5t157.5 -306q0 -166 -127 -267t-325 -101q-197 0 -298.5 77.5t-127.5 124.5l39 41q100 -130 218 -157t180 -27q148 0 263 80.5t115 226.5q0 113 -57.5 179.5t-143.5 110.5t-187.5 77t-187.5 80
t-143 118.5t-57 207.5t108 233.5t301 97.5q117 0 217.5 -40t159.5 -105l-35 -43q-129 129 -344 129z" />
    <glyph glyph-name="T" unicode="T" horiz-adv-x="1210" 
d="M20 1434h1170v-58h-555v-1376h-60v1376h-555v58z" />
    <glyph glyph-name="U" unicode="U" horiz-adv-x="1538" 
d="M1321 602q0 -310 -151 -463t-392 -153t-401 163.5t-160 466.5v818h62v-809q0 -279 142 -430.5t359 -151.5t348.5 144t131.5 429v818h61v-832z" />
    <glyph glyph-name="V" unicode="V" horiz-adv-x="1343" 
d="M698 -14h-39l-626 1448h65l584 -1352l565 1352h64z" />
    <glyph glyph-name="W" unicode="W" horiz-adv-x="1941" 
d="M1485 0h-47l-463 1325l-451 -1325h-47l-442 1434h67l404 -1313l446 1313h49l459 -1315l385 1315h60z" />
    <glyph glyph-name="X" unicode="X" horiz-adv-x="1345" 
d="M713 729l561 -729h-74l-528 682l-527 -682h-73l563 729l-541 705h74l506 -658l508 658h73z" />
    <glyph glyph-name="Y" unicode="Y" horiz-adv-x="1161" 
d="M608 0h-59v637l-514 797h71l474 -740l477 740h69l-518 -797v-637z" />
    <glyph glyph-name="Z" unicode="Z" horiz-adv-x="1277" 
d="M123 1434h1053v-33l-1006 -1344h1026v-57h-1114v33l1003 1343h-962v58z" />
    <glyph glyph-name="bracketleft" unicode="[" horiz-adv-x="565" 
d="M123 1331h436v-55h-379v-1630h379v-56h-436v1741z" />
    <glyph glyph-name="backslash" unicode="\" horiz-adv-x="616" 
d="M678 -408l-49 -18l-690 1860l47 18z" />
    <glyph glyph-name="bracketright" unicode="]" horiz-adv-x="565" 
d="M442 -410h-436v56h377v1630h-377v55h436v-1741z" />
    <glyph glyph-name="asciicircum" unicode="^" horiz-adv-x="962" 
d="M465 1450h35l350 -528h-66l-301 462l-307 -462h-63z" />
    <glyph glyph-name="underscore" unicode="_" horiz-adv-x="544" 
d="M0 -352h545v-58h-545v58z" />
    <glyph glyph-name="grave" unicode="`" horiz-adv-x="512" 
d="M123 1419l43 35l223 -299l-37 -25z" />
    <glyph glyph-name="a" unicode="a" horiz-adv-x="935" 
d="M380 45q137 0 210 48t135 126v184q-115 82 -274 82q-193 0 -243 -84t-50 -143q0 -102 68.5 -157.5t153.5 -55.5zM451 940q261 0 296 -139t35 -226v-575h-57v160q-126 -170 -342 -170q-129 0 -208 71.5t-79 198.5t99 201t261 74t269 -76q0 96 -6 175t-48 165t-227 86
q-78 0 -135 -19.5t-123 -58.5l-18 49q135 84 283 84z" />
    <glyph glyph-name="b" unicode="b" horiz-adv-x="1126" 
d="M233 131q133 -94 310 -94q176 0 297 117t121 309t-104.5 307t-285.5 115q-98 0 -192.5 -48t-145.5 -114v-592zM174 1434h59v-648q55 66 152 110t199 44q199 0 318.5 -127.5t119.5 -344.5q0 -218 -138 -352t-354 -134q-215 0 -356 112v1340z" />
    <glyph glyph-name="c" unicode="c" horiz-adv-x="1005" 
d="M881 780q-122 105 -299 105t-296.5 -121t-119.5 -307t119 -303t307 -117q94 0 175 37t132 96l29 -39q-59 -74 -150.5 -111.5t-192.5 -37.5q-212 0 -345.5 131.5t-133.5 340.5t130 347.5t321 138.5q234 0 352 -113z" />
    <glyph glyph-name="d" unicode="d" horiz-adv-x="1132" 
d="M899 791q-137 94 -309 94t-298 -118.5t-126 -308.5t112 -304.5t293 -114.5q140 0 223 67.5t105 96.5v588zM562 -16q-207 0 -331.5 129t-124.5 342t142 349t356 136q172 0 295 -92v586h57v-1434h-57v145q-55 -66 -144 -113.5t-193 -47.5z" />
    <glyph glyph-name="e" unicode="e" horiz-adv-x="1079" 
d="M282 783q-103 -102 -116 -271h749q0 172 -97 272.5t-265 100.5t-271 -102zM975 556q0 -65 -4 -93h-801q2 -199 115.5 -312.5t306.5 -113.5q98 0 179 36t132 91l23 -43q-59 -70 -151.5 -104.5t-191.5 -34.5q-207 0 -342 131t-135 345t119.5 348t337.5 134q180 0 265 -84
t116 -159.5t31 -140.5z" />
    <glyph glyph-name="f" unicode="f" horiz-adv-x="692" 
d="M522 1397q-254 0 -254 -344v-131h391v-56h-391v-866h-57v1071q0 381 313 381q138 0 230 -76l-23 -45q-88 66 -209 66z" />
    <glyph glyph-name="g" unicode="g" horiz-adv-x="997" 
d="M195 616.5q0 -115.5 81 -191t211.5 -75.5t211.5 75.5t81 191t-82.5 192t-210.5 76.5t-210 -76.5t-82 -192zM96 -141.5q0 -55.5 29 -97.5t81 -71.5t123.5 -45t160 -15.5t161 15.5t123.5 44t80 71.5t29 98.5t-29 98.5t-80 73.5t-123.5 46t-161 15.5t-160 -15.5t-123.5 -46
t-81 -73.5t-29 -98.5zM511 147q78 0 162.5 -18t144 -55t93 -91.5t33.5 -124t-33.5 -122.5t-93 -89t-143.5 -54.5t-237 -18.5t-277.5 73t-124.5 212q0 109 76.5 177t210.5 95q-35 39 -35 97t39 98q-90 39 -141.5 114.5t-51.5 160.5q0 158 100 248.5t247 90.5q146 0 239 -74
l258 72v-55l-211 -58q76 -86 76 -217t-100 -222t-255 -91q-68 0 -116 14q-29 -29 -29 -83t37 -87q54 8 132 8z" />
    <glyph glyph-name="h" unicode="h" horiz-adv-x="1132" 
d="M174 1434h59v-652q91 104 198.5 130t156.5 26q197 0 293 -100.5t96 -317.5v-520h-57v508q0 193 -83 284t-251 91t-249 -64.5t-104 -93.5v-725h-59v1434z" />
    <glyph glyph-name="i" unicode="i" horiz-adv-x="522" 
d="M231 922h58v-922h-58v922zM215 1287q0 19 14 33q13 14 31 13q18 0 32 -13q14 -12 13 -32q0 -20 -13 -34q-12 -14 -30 -13q-18 0 -33 13q-14 14 -14 33z" />
    <glyph glyph-name="j" unicode="j" horiz-adv-x="526" 
d="M236 922h57v-990q0 -170 -68 -264t-221 -94q-101 0 -174 53l20 47q67 -43 146 -45q129 0 184 79t56 226v988zM217 1287q0 19 14 33q13 14 31 13q18 0 32 -13q14 -12 13 -32q0 -20 -13 -34q-12 -14 -30 -13q-18 0 -33 13q-14 14 -14 33z" />
    <glyph glyph-name="k" unicode="k" horiz-adv-x="935" 
d="M174 1434h59v-1434h-59v1434zM387 485l500 -485h-82l-492 481l457 441h78z" />
    <glyph glyph-name="l" unicode="l" horiz-adv-x="565" 
d="M174 231v1203h59v-1160q0 -117 32 -172t115 -55t146 47l19 -47q-69 -55 -175 -55q-105 0 -150.5 58.5t-45.5 180.5z" />
    <glyph glyph-name="m" unicode="m" horiz-adv-x="1652" 
d="M1440 590q0 293 -253 293q-216 0 -327 -172q4 -12 4 -17v-694h-57v647q0 104 -66.5 170t-180.5 66t-197.5 -47t-129.5 -115v-721h-59v922h59v-140q51 70 141 113t194 43t180.5 -46t103.5 -132q49 82 144.5 130t179.5 48q162 0 241.5 -77.5t79.5 -254.5v-606h-57v590z" />
    <glyph glyph-name="n" unicode="n" horiz-adv-x="1132" 
d="M174 922h59v-140q51 62 153.5 109t201.5 47q197 0 293 -100.5t96 -317.5v-520h-57v508q0 193 -83 284t-248 91t-249 -64.5t-107 -93.5v-725h-59v922z" />
    <glyph glyph-name="o" unicode="o" horiz-adv-x="1165" 
d="M581.5 37q181.5 0 298.5 119t117 305t-117.5 305t-297.5 119t-298 -119t-118 -305t117 -305t298.5 -119zM106 460.5q0 104.5 35 191.5t98.5 151.5t150.5 100.5t191.5 36t192.5 -36t151.5 -100.5t98.5 -151.5t35 -191.5t-35 -191.5t-98.5 -151.5t-151.5 -100t-192.5 -35.5
t-191.5 35.5t-150.5 100t-98.5 151.5t-35 191.5z" />
    <glyph glyph-name="p" unicode="p" horiz-adv-x="1130" 
d="M233 135q138 -98 321 -98q184 0 297.5 121t113.5 310t-103.5 303t-286.5 114q-100 0 -195 -45.5t-147 -110.5v-594zM233 786q127 154 381 154q76 0 158 -35t168 -128t86 -304q0 -212 -130 -351.5t-334 -139.5t-329 92v-484h-59v1332h59v-136z" />
    <glyph glyph-name="q" unicode="q" horiz-adv-x="1132" 
d="M901 805q-128 80 -303 80t-303.5 -124t-128.5 -310t112 -300t297 -114q144 0 226 64.5t100 91.5v612zM958 -410h-57v537q-55 -61 -145 -103t-190 -42q-205 0 -332.5 129.5t-127.5 341.5t144 349.5t349 137.5q204 0 359 -98v-1252z" />
    <glyph glyph-name="r" unicode="r" horiz-adv-x="655" 
d="M494 938q96 0 143 -35l-19 -55q-35 20 -60.5 27.5t-73.5 7.5q-88 0 -145 -44t-106 -118v-721h-59v922h59v-134q101 150 261 150z" />
    <glyph glyph-name="s" unicode="s" horiz-adv-x="837" 
d="M420 887q-102 0 -160.5 -52.5t-58.5 -124t39 -112.5t96 -66.5t124.5 -45t164 -67.5t96.5 -177t-87.5 -194.5t-222.5 -65.5t-207.5 51t-88.5 76l37 36q53 -73 140 -91.5t128 -18.5q96 0 169 53t73 133t-39 118t-96.5 62.5t-125 44t-164 70.5t-96.5 193q0 102 76 166.5
t205 64.5q84 0 154.5 -28.5t109.5 -69.5l-29 -43q-84 88 -237 88z" />
    <glyph glyph-name="t" unicode="t" horiz-adv-x="704" 
d="M154 350v828h59v-256h397v-56h-397v-497q0 -160 55.5 -242t184.5 -82q84 0 149 49l25 -47q-77 -57 -185 -57q-154 0 -221 91t-67 269z" />
    <glyph glyph-name="u" unicode="u" horiz-adv-x="1120" 
d="M946 0h-57v160q-99 -119 -207.5 -148.5t-163.5 -29.5q-182 0 -273 100t-91 315v525h59v-510q0 -188 77 -281.5t247 -93.5q99 0 198.5 54.5t153.5 127.5v703h57v-922z" />
    <glyph glyph-name="v" unicode="v" horiz-adv-x="960" 
d="M504 -14h-35l-436 936h67l301 -652q23 -47 44.5 -97t43.5 -101q36 92 89 207l286 643h62z" />
    <glyph glyph-name="w" unicode="w" horiz-adv-x="1400" 
d="M1063 -14h-43l-277 729q-10 29 -20 58.5t-21 60.5q-12 -33 -22 -64t-23 -63l-270 -721h-39l-313 936h63l232 -701q12 -35 22 -68.5t21 -68.5q14 35 25.5 68.5t25.5 68.5l258 701h43l315 -840q10 39 22.5 77t24.5 77l218 686h59z" />
    <glyph glyph-name="x" unicode="x" horiz-adv-x="993" 
d="M537 475l383 -475h-72l-352 434l-353 -434h-69l383 473l-363 449h72l330 -410l333 410h70z" />
    <glyph glyph-name="y" unicode="y" horiz-adv-x="966" 
d="M205 -356q78 0 142.5 70.5t131.5 236.5l21 49l-465 922h67l355 -707q39 -74 71 -149q31 87 60 153l278 703h66l-377 -922q-99 -240 -173 -325t-169 -85q-65 0 -143 39l20 45q66 -30 115 -30z" />
    <glyph glyph-name="z" unicode="z" horiz-adv-x="978" 
d="M131 922h748v-33l-693 -834h682v-55h-768v33l688 833h-657v56z" />
    <glyph glyph-name="braceleft" unicode="{" horiz-adv-x="602" 
d="M225 233q0 110 -53.5 155.5t-130.5 45.5v53q118 0 151 79t33 147v366q0 117 48.5 184.5t175.5 67.5h112v-55h-102q-96 0 -136 -50t-40 -161v-369q0 -100 -42 -161.5t-112 -71.5q66 -8 110 -61.5t44 -172.5v-376q0 -111 48 -159t140 -48h90v-56h-106q-115 0 -172.5 58.5
t-57.5 187.5v397z" />
    <glyph glyph-name="bar" unicode="|" horiz-adv-x="645" 
d="M293 1434h59v-1434h-59v1434z" />
    <glyph glyph-name="braceright" unicode="}" horiz-adv-x="602" 
d="M377 -164q0 -129 -57.5 -187.5t-172.5 -58.5h-106v56h90q92 0 140 48t48 159v376q0 119 44.5 172.5t109.5 61.5q-70 10 -112 71.5t-42 161.5v369q0 111 -39.5 161t-136.5 50h-102v55h113q127 0 175 -67.5t48 -184.5v-366q0 -122 56 -174t128 -52v-53q-77 0 -130.5 -45.5
t-53.5 -155.5v-397z" />
    <glyph glyph-name="asciitilde" unicode="~" 
d="M377 842q63 0 121.5 -23.5t117 -52.5t115.5 -52.5t117 -23.5q96 0 194 94l29 -41q-113 -106 -225 -106q-61 0 -119.5 23.5t-117 53t-117 53.5t-117.5 24q-106 0 -213 -105l-33 39q127 117 248 117z" />
    <glyph glyph-name="uni00A0" unicode="&#xa0;" horiz-adv-x="497" 
 />
    <glyph glyph-name="exclamdown" unicode="&#xa1;" horiz-adv-x="634" 
d="M320 940q20 0 34 -16t15 -33q-1 -19 -15 -33t-34 -14t-35 14t-15 32t14 34q16 16 36 16zM350 -496h-61v1078h61v-1078z" />
    <glyph glyph-name="cent" unicode="&#xa2;" 
d="M967 780q-122 105 -299 105t-296.5 -121t-119.5 -307t119 -303t307 -117q94 0 175 37t132 96l29 -39q-57 -72 -145.5 -108.5t-182.5 -40.5v-228h-57v230q-196 12 -316 140.5t-120 330.5t124.5 339.5t311.5 145.5v223h57v-225q201 -9 309 -111z" />
    <glyph glyph-name="sterling" unicode="&#xa3;" 
d="M362 441q0 85 -14 153h-174v49h160q-16 45 -35.5 87t-49.5 121t-30 177q0 183 112 302.5t300 119.5q117 0 216 -40t159 -105l-33 -43q-131 131 -346 131q-150 0 -248 -102.5t-98 -232.5t30.5 -206t50 -118t35.5 -91h371v-49h-358q12 -54 12 -144q0 -155 -105 -300
q31 6 77 6q70 0 220.5 -53.5t253 -53.5t205.5 101l31 -44q-119 -114 -264 -114q-83 0 -187 37t-162.5 53t-150 16t-209.5 -112l-31 45q66 63 148 100q114 131 114 310z" />
    <glyph glyph-name="currency" unicode="&#xa4;" 
d="M602 301q181 0 290 121.5t109 292t-108.5 291t-290.5 120.5t-290.5 -120.5t-108.5 -291t109 -292t290 -121.5zM147 714q0 176 109 308l-195 197l37 36l195 -194q123 119 306.5 119t311.5 -119l207 207l37 -37l-207 -209q109 -130 109 -307t-109 -307l197 -201l-37 -37
l-197 199q-123 -119 -309 -119t-309 117l-211 -209l-37 37l211 213q-109 130 -109 306z" />
    <glyph glyph-name="yen" unicode="&#xa5;" 
d="M150 686h387l-474 748h72l465 -740l467 740h70l-478 -748h390v-51h-420v-283h420v-49h-420v-303h-62v303h-417v49h417v283h-417v51z" />
    <glyph glyph-name="brokenbar" unicode="&#xa6;" horiz-adv-x="645" 
d="M352 532v-532h-59v532h59zM293 901v533h59v-533h-59z" />
    <glyph glyph-name="section" unicode="&#xa7;" horiz-adv-x="1073" 
d="M309.5 285q96.5 -90 228.5 -90q131 0 226.5 89.5t95.5 225t-95 226.5t-228 91t-228.5 -91t-95.5 -226t96.5 -225zM243.5 753.5q87.5 100.5 229.5 120.5q-86 34 -150.5 105.5t-64.5 184.5t84.5 191.5t214.5 78.5q161 0 254 -119l-35 -41q-43 50 -88 77t-114 27
q-119 0 -189 -66.5t-70 -166.5q0 -143 101.5 -198.5t144.5 -69.5q157 -8 257 -112t100 -250q0 -145 -87.5 -245.5t-230.5 -122.5q142 -58 176.5 -140.5t34.5 -138.5q0 -121 -84.5 -199.5t-214.5 -78.5q-161 0 -254 119l35 41q43 -50 88 -77t114 -27q116 0 187.5 66t71.5 165
t-70.5 165.5t-175.5 100.5q-153 8 -252.5 111.5t-99.5 251.5q0 147 87.5 247.5z" />
    <glyph glyph-name="dieresis" unicode="&#xa8;" horiz-adv-x="765" 
d="M555 1278q0 20 13.5 33.5t30.5 13.5t30.5 -13.5t13.5 -33.5t-13.5 -31.5t-30.5 -11.5t-30.5 11.5t-13.5 31.5zM123 1278q0 20 13.5 33.5t30.5 13.5t29.5 -13.5t12.5 -33.5t-12.5 -31.5t-29.5 -11.5t-30.5 11.5t-13.5 31.5z" />
    <glyph glyph-name="copyright" unicode="&#xa9;" horiz-adv-x="2084" 
d="M1352 780q-122 105 -299 105t-296.5 -121t-119.5 -307t119 -303t307 -117q94 0 175 37t132 96l29 -39q-59 -74 -150.5 -111.5t-192.5 -37.5q-212 0 -345 131t-133 341t129.5 348t320.5 138q234 0 352 -113zM213 453q0 -172 62.5 -322.5t173 -263.5t263 -178.5t331 -65.5
t331 65.5t263 178.5t173 263.5t62.5 322.5t-62.5 322.5t-173 263t-263 178t-331 65.5t-331 -65.5t-263 -178t-173 -263t-62.5 -322.5zM162 452.5q0 182.5 66.5 343t184 280.5t278.5 188.5t351.5 68.5t351 -68.5t278.5 -188.5t184.5 -280.5t66.5 -343t-66.5 -343
t-184.5 -280.5t-278.5 -188.5t-351 -68.5t-351.5 68.5t-278.5 188.5t-184 280.5t-66.5 343z" />
    <glyph glyph-name="ordfeminine" unicode="&#xaa;" horiz-adv-x="808" 
d="M360 760q147 0 238 108v140q-41 25 -103.5 40t-109.5 15q-90 0 -151.5 -41t-61.5 -109t55.5 -110.5t132.5 -42.5zM398 1348q124 0 188.5 -62.5t64.5 -179.5v-387h-53v110q-85 -116 -246 -116t-198 76.5t-37 115.5q0 96 67.5 147.5t195.5 51.5t218 -57v47q0 206 -207 206
q-92 0 -178 -63l-29 35q90 76 214 76z" />
    <glyph glyph-name="guillemotleft" unicode="&#xab;" horiz-adv-x="993" 
d="M442 508v8l361 416l39 -35l-334 -385l330 -387l-37 -37zM115 508v8l360 416l39 -35l-334 -385l330 -387l-37 -37z" />
    <glyph glyph-name="logicalnot" unicode="&#xac;" 
d="M145 764h910v-322h-51v269h-859v53z" />
    <glyph glyph-name="uni00AD" unicode="&#xad;" horiz-adv-x="833" 
d="M190 582h453v-56h-453v56z" />
    <glyph glyph-name="registered" unicode="&#xae;" horiz-adv-x="1128" 
d="M446 1274v-256h111q56 0 100.5 36t44.5 95t-40.5 92t-118.5 33h-97zM401 737v574h146q159 0 180 -65.5t21 -108.5t-38 -88t-106 -62l199 -250h-58l-192 244h-107v-244h-45zM168 1016q0 -82 31.5 -155t85 -126t126 -85t154.5 -32t155 32t126 85t85 126t32 155t-32 154.5
t-85 126t-126 85t-155 31.5t-154.5 -31.5t-126 -85t-85 -126t-31.5 -154.5zM117 1016q0 92 34.5 174t96 142.5t143.5 95t174 34.5t174 -34.5t142.5 -95t95.5 -142.5t35 -174t-35 -174t-95.5 -142.5t-142.5 -95.5t-174 -35t-174 35t-143.5 95.5t-96 142.5t-34.5 174z" />
    <glyph glyph-name="macron" unicode="&#xaf;" horiz-adv-x="741" 
d="M123 1329h495v-51h-495v51z" />
    <glyph glyph-name="degree" unicode="&#xb0;" horiz-adv-x="794" 
d="M170 1167q0 -47 18.5 -88t49 -71.5t71.5 -49t88 -18.5t88 18.5t72 49t49.5 71.5t18.5 88t-18.5 88t-49.5 72t-72 49.5t-88 18.5t-88 -18.5t-71.5 -49.5t-49 -72t-18.5 -88zM199.5 1365.5q82.5 80.5 197.5 80.5t197 -79.5t82 -197.5t-82 -200t-198 -82t-197.5 82
t-81.5 199t82.5 197.5z" />
    <glyph glyph-name="plusminus" unicode="&#xb1;" 
d="M150 422h901v-53h-901v53zM150 915h421v420h54v-420h426v-53h-426v-313h-54v313h-421v53z" />
    <glyph glyph-name="twosuperior" unicode="&#xb2;" horiz-adv-x="675" 
d="M510 1232q0 68 -42 115q-42 48 -142 48t-157 -77q-19 -26 -26 -63l-45 15q11 80 81 126q69 46 142 46q74 0 117 -18q127 -52 127 -191q0 -182 -307 -402q-68 -47 -98 -67h446v-47h-520v41q51 37 124 90t139 116q161 149 161 268z" />
    <glyph glyph-name="threesuperior" unicode="&#xb3;" horiz-adv-x="686" 
d="M96 1319q54 123 244 123q96 0 156 -46t61 -132q0 -54 -37 -104t-106 -70v-3q84 -10 129 -61t45 -115q0 -94 -74 -148t-170 -54q-209 0 -270 131l35 26q54 -114 233 -112q80 0 135 46t55 114t-54 107q-54 40 -132 40h-78v43h70q66 0 114 43t49 111q1 69 -49 104t-128 35
q-142 0 -197 -107z" />
    <glyph glyph-name="acute" unicode="&#xb4;" horiz-adv-x="512" 
d="M160 1130l-37 25l223 299l43 -35z" />
    <glyph glyph-name="mu" unicode="&#xb5;" horiz-adv-x="1124" 
d="M948 0h-57v160q-99 -119 -207.5 -148.5t-163.5 -29.5q-221 0 -305 143v-535h-59v1332h59v-510q0 -188 77 -281.5t247 -93.5q99 0 198.5 54.5t153.5 127.5v703h57v-922z" />
    <glyph glyph-name="mu" unicode="&#x3bc;" horiz-adv-x="1124" 
d="M948 0h-57v160q-99 -119 -207.5 -148.5t-163.5 -29.5q-221 0 -305 143v-535h-59v1332h59v-510q0 -188 77 -281.5t247 -93.5q99 0 198.5 54.5t153.5 127.5v703h57v-922z" />
    <glyph glyph-name="paragraph" unicode="&#xb6;" horiz-adv-x="854" 
d="M584 -86q0 -340 -260 -340q-115 0 -193 59l27 45q68 -49 145 -49q133 0 178 75t45 208v627q-178 0 -294.5 120.5t-116.5 328.5t109.5 327t305.5 119h246v-56h-192v-1464z" />
    <glyph glyph-name="periodcentered" unicode="&#xb7;" horiz-adv-x="497" 
d="M199 602q0 18 14 32q15 14 35 15q20 0 34 -14q14 -15 15 -33q0 -18 -14 -34t-35 -15q-21 -1 -35 15t-14 34z" />
    <glyph glyph-name="cedilla" unicode="&#xb8;" horiz-adv-x="638" 
d="M459 -230.5q0 80.5 -168 80.5h-12v150h38v-115q106 -2 152.5 -42t46.5 -105.5t-57 -107.5t-135 -42t-119 13.5t-82 33.5l20 35q78 -41 150 -41t119 30t47 110.5z" />
    <glyph glyph-name="onesuperior" unicode="&#xb9;" horiz-adv-x="466" 
d="M291 1440v-723h-51v655l-152 -100l-22 39l190 129h35z" />
    <glyph glyph-name="ordmasculine" unicode="&#xba;" horiz-adv-x="905" 
d="M259 833q83 -77 195 -77q113 0 194 76t81 195t-82 195t-194.5 76t-194.5 -76t-82 -194t83 -195zM121 1027q0 137 93.5 229t237.5 92q143 0 237.5 -92t94.5 -229t-94 -228.5t-238 -91.5t-237.5 91.5t-93.5 228.5z" />
    <glyph glyph-name="guillemotright" unicode="&#xbb;" horiz-adv-x="993" 
d="M520 88l-39 37l330 387l-334 385l39 35l361 -416v-8zM193 88l-39 37l329 387l-333 385l38 35l361 -416v-8z" />
    <glyph glyph-name="onequarter" unicode="&#xbc;" horiz-adv-x="1316" 
d="M326 1440v-723h-52v655l-151 -100l-23 39l191 129h35zM1196 1452l35 -27l-1077 -1443l-37 28zM1096 190h-402v33l387 494h52l-377 -481h340v225h49v-225h131v-46h-131v-190h-49v190z" />
    <glyph glyph-name="onehalf" unicode="&#xbd;" horiz-adv-x="1349" 
d="M326 1440v-723h-52v655l-151 -100l-23 39l191 129h35zM1126 1452l35 -27l-1077 -1443l-37 28zM1171 514q0 68 -42 116t-122 48t-119 -26q-72 -48 -83 -113l-45 14q11 82 81 127q69 45 142 45q186 0 230 -130q76 -221 -293 -480q-68 -47 -99 -68h447v-47h-520v41
q52 37 124 90t139 116q160 148 160 267z" />
    <glyph glyph-name="threequarters" unicode="&#xbe;" horiz-adv-x="1390" 
d="M1290 1452l35 -27l-1077 -1443l-37 28zM1167 190h-401v33l387 494h51l-377 -481h340v225h50v-225h131v-46h-131v-190h-50v190zM98 1319q54 123 244 123q96 0 156 -46t61 -132q0 -54 -37 -104t-106 -70v-3q84 -10 129 -61t45 -115q0 -94 -74 -148t-170 -54
q-209 0 -270 131l35 26q54 -114 233 -112q80 0 135 46t55 114t-54 107q-54 40 -132 40h-78v43h70q66 0 114 43t49 111q1 69 -49 104t-128 35q-142 0 -197 -107z" />
    <glyph glyph-name="questiondown" unicode="&#xbf;" horiz-adv-x="931" 
d="M532 940q20 0 36 -16q14 -16 14 -33q0 -19 -14 -33t-36 -14q-20 0 -34 14t-14 32t14 34t34 16zM561 460q0 -148 -212 -290q-212 -144 -212 -316q0 -135 93 -224q94 -85 243 -85q207 0 340 181l37 -35q-56 -89 -158 -147t-210 -58q-290 0 -379 214q-25 62 -25 145
q1 205 214 343q214 142 214 280q0 58 -8 97l53 4q10 -45 10 -109z" />
    <glyph glyph-name="Agrave" unicode="&#xc0;" horiz-adv-x="1413" 
d="M371 590h667l-333 768zM684 1448h45l631 -1448h-66l-231 532h-717l-229 -532h-64zM422 1698l22 47l338 -193l-20 -36z" />
    <glyph glyph-name="Aacute" unicode="&#xc1;" horiz-adv-x="1413" 
d="M371 590h667l-333 768zM684 1448h45l631 -1448h-66l-231 532h-717l-229 -532h-64zM657 1516l-18 36l338 193l22 -47z" />
    <glyph glyph-name="Acircumflex" unicode="&#xc2;" horiz-adv-x="1413" 
d="M371 590h667l-333 768zM684 1448h45l631 -1448h-66l-231 532h-717l-229 -532h-64zM702 1743h9l342 -191l-31 -36l-315 174l-318 -174l-27 34z" />
    <glyph glyph-name="Atilde" unicode="&#xc3;" horiz-adv-x="1413" 
d="M371 590h667l-333 768zM684 1448h45l631 -1448h-66l-231 532h-717l-229 -532h-64zM518 1636q-56 0 -123 -55l-22 37q77 70 154 71q76 1 181 -48q106 -49 174 -49q68 -1 136 71l22 -39q-75 -82 -174 -84q-55 0 -132 32t-119 48q-41 16 -97 16z" />
    <glyph glyph-name="Adieresis" unicode="&#xc4;" horiz-adv-x="1413" 
d="M371 590h667l-333 768zM684 1448h45l631 -1448h-66l-231 532h-717l-229 -532h-64zM948 1585q-49 0 -49 45q0 20 14 32q15 12 33 11q18 0 32 -11t15 -33q0 -22 -14 -33t-31 -11zM516 1630q0 -45 -48 -45t-48 45q0 20 14 32t34 11q20 0 34 -11t14 -32z" />
    <glyph glyph-name="Aring" unicode="&#xc5;" horiz-adv-x="1413" 
d="M547 1596q0 -67 46 -99.5t113 -32.5t113.5 33t46.5 99t-47 96t-113 30t-112.5 -29.5t-46.5 -96.5zM371 590h667l-333 768zM500 1600q0 81 59 121t145.5 40t147.5 -40t61 -121t-50 -122.5t-126 -50.5l623 -1427h-66l-231 532h-717l-229 -532h-64l621 1427q-74 8 -124 50
t-50 123z" />
    <glyph glyph-name="AE" unicode="&#xc6;" horiz-adv-x="1974" 
d="M1032 604v739l-524 -739h524zM1032 0v547h-565l-387 -547h-74l1026 1434h780v-58h-718v-618h657v-58h-657v-643h739v-57h-801z" />
    <glyph glyph-name="Ccedilla" unicode="&#xc7;" horiz-adv-x="1345" 
d="M805 -371q70 0 117 30t47 110.5t-168 80.5h-13v134q-303 12 -487 211.5t-184 518.5t193 528.5t499 209.5q269 0 432 -133l-31 -43q-149 117 -399 117q-141 0 -258 -52.5t-245 -191.5t-128 -437t181 -484.5t470 -186.5q243 0 410 143l27 -47q-76 -74 -196 -114.5
t-245 -40.5v-97q201 -4 201 -108.5t-57 -146.5t-135 -42t-121 13.5t-84 36.5l20 34q84 -43 154 -43z" />
    <glyph glyph-name="Egrave" unicode="&#xc8;" horiz-adv-x="1177" 
d="M238 1434h778v-58h-717v-618h655v-58h-655v-643h737v-57h-798v1434zM387 1698l23 47l338 -193l-21 -36z" />
    <glyph glyph-name="Eacute" unicode="&#xc9;" horiz-adv-x="1177" 
d="M238 1434h778v-58h-717v-618h655v-58h-655v-643h737v-57h-798v1434zM520 1516l-18 36l338 193l22 -47z" />
    <glyph glyph-name="Ecircumflex" unicode="&#xca;" horiz-adv-x="1177" 
d="M238 1434h778v-58h-717v-618h655v-58h-655v-643h737v-57h-798v1434zM627 1743h8l342 -191l-31 -36l-315 174l-318 -174l-26 34z" />
    <glyph glyph-name="Edieresis" unicode="&#xcb;" horiz-adv-x="1177" 
d="M238 1434h778v-58h-717v-618h655v-58h-655v-643h737v-57h-798v1434zM872 1585q-49 0 -49 45q1 20 15 32t32 11q18 0 32 -11t16 -33q0 -22 -14 -33t-32 -11zM440 1630q0 -45 -48 -45t-48 45q0 20 14 32t34 11q20 0 34 -11t14 -32z" />
    <glyph glyph-name="Igrave" unicode="&#xcc;" horiz-adv-x="647" 
d="M293 1434h61v-1434h-61v1434zM16 1698l23 47l338 -193l-21 -36z" />
    <glyph glyph-name="Iacute" unicode="&#xcd;" horiz-adv-x="647" 
d="M293 1434h61v-1434h-61v1434zM291 1516l-19 36l338 193l23 -47z" />
    <glyph glyph-name="Icircumflex" unicode="&#xce;" horiz-adv-x="647" 
d="M293 1434h61v-1434h-61v1434zM322 1743h8l342 -191l-31 -36l-315 174l-318 -174l-26 34z" />
    <glyph glyph-name="Idieresis" unicode="&#xcf;" horiz-adv-x="647" 
d="M293 1434h61v-1434h-61v1434zM567 1585q-49 0 -49 45q0 20 14 32t32 11q18 0 34 -11q14 -11 14 -33t-14 -33t-31 -11zM135 1630q0 -45 -48 -45t-48 45q0 20 14 32q13 12 33 11q20 0 34 -11t15 -32z" />
    <glyph glyph-name="Eth" unicode="&#xd0;" horiz-adv-x="1558" 
d="M625 53q361 0 557 194t196 484t-184 470.5t-561 180.5l-281 -6v-614h422v-55h-422v-650l46 -1zM291 0v707h-271v55h271v672h22l324 6q403 0 604 -198t201 -513q0 -316 -215 -524.5t-606 -208.5l-316 4h-14z" />
    <glyph glyph-name="Ntilde" unicode="&#xd1;" horiz-adv-x="1636" 
d="M295 0h-57v1434h49l1052 -1328v1328h60v-1434h-49l-1055 1323v-1323zM638 1636q-56 0 -122 -55l-22 37q77 70 153 71t181 -48q106 -49 174 -49q68 -1 137 71l22 -39q-75 -82 -174 -84q-55 0 -132 32t-119 48t-98 16z" />
    <glyph glyph-name="Ograve" unicode="&#xd2;" horiz-adv-x="1652" 
d="M180 717q0 -289 185 -482q185 -194 462 -194t460 194t183 484t-185 481t-460 193q-137 1 -255 -51q-240 -105 -341 -356q-49 -124 -49 -269zM117 716q0 314 204 524q95 100 224 156t279 56t281 -55q263 -111 375 -387q54 -135 54 -293q0 -316 -204 -524
q-95 -99 -225 -155t-280 -56t-279 55q-264 113 -374 387q-54 136 -55 292zM633 1698l22 47l338 -193l-20 -36z" />
    <glyph glyph-name="Oacute" unicode="&#xd3;" horiz-adv-x="1652" 
d="M180 717q0 -289 185 -482q185 -194 462 -194t460 194t183 484t-185 481t-460 193q-137 1 -255 -51q-240 -105 -341 -356q-49 -124 -49 -269zM117 716q0 314 204 524q95 100 224 156t279 56t281 -55q263 -111 375 -387q54 -135 54 -293q0 -316 -204 -524
q-95 -99 -225 -155t-280 -56t-279 55q-264 113 -374 387q-54 136 -55 292zM729 1516l-18 36l338 193l22 -47z" />
    <glyph glyph-name="Ocircumflex" unicode="&#xd4;" horiz-adv-x="1652" 
d="M180 717q0 -289 185 -482q185 -194 462 -194t460 194t183 484t-185 481t-460 193q-137 1 -255 -51q-240 -105 -341 -356q-49 -124 -49 -269zM117 716q0 314 204 524q95 100 224 156t279 56t281 -55q263 -111 375 -387q54 -135 54 -293q0 -316 -204 -524
q-95 -99 -225 -155t-280 -56t-279 55q-264 113 -374 387q-54 136 -55 292zM829 1743h9l342 -191l-31 -36l-315 174l-318 -174l-27 34z" />
    <glyph glyph-name="Otilde" unicode="&#xd5;" horiz-adv-x="1652" 
d="M180 717q0 -289 185 -482q185 -194 462 -194t460 194t183 484t-185 481t-460 193q-137 1 -255 -51q-240 -105 -341 -356q-49 -124 -49 -269zM117 716q0 314 204 524q95 100 224 156t279 56t281 -55q263 -111 375 -387q54 -135 54 -293q0 -316 -204 -524
q-95 -99 -225 -155t-280 -56t-279 55q-264 113 -374 387q-54 136 -55 292zM642 1636q-56 0 -122 -55l-22 37q77 70 154 71q76 1 181 -48q106 -49 174 -49q68 -1 136 71l22 -39q-75 -82 -174 -84q-55 0 -132 32t-119 48t-98 16z" />
    <glyph glyph-name="Odieresis" unicode="&#xd6;" horiz-adv-x="1652" 
d="M180 717q0 -289 185 -482q185 -194 462 -194t460 194t183 484t-185 481t-460 193q-137 1 -255 -51q-240 -105 -341 -356q-49 -124 -49 -269zM117 716q0 314 204 524q95 100 224 156t279 56t281 -55q263 -111 375 -387q54 -135 54 -293q0 -316 -204 -524
q-95 -99 -225 -155t-280 -56t-279 55q-264 113 -374 387q-54 136 -55 292zM1071 1585q-49 0 -49 45q0 20 14 32t32 11q18 0 34 -11q14 -11 14 -33t-14 -33t-31 -11zM639 1630q0 -45 -48 -45t-48 45q0 20 14 32q13 12 33 11q20 0 34 -11t15 -32z" />
    <glyph glyph-name="multiply" unicode="&#xd7;" 
d="M303 1073l297 -299l297 299l37 -37l-297 -299l301 -299l-37 -37l-301 299l-301 -299l-37 37l301 299l-297 299z" />
    <glyph glyph-name="Oslash" unicode="&#xd8;" horiz-adv-x="1652" 
d="M1280 1204q-185 189 -456 189t-457.5 -192.5t-186.5 -483.5q0 -253 148 -441zM365 238q184 -197 461.5 -197t460.5 194.5t183 468.5t-155 463zM283 233q-166 204 -166 500t204 507.5t502 211.5q297 0 502 -205l105 103l36 -35l-106 -105q174 -208 174 -507t-149.5 -454
t-279.5 -211t-280 -56q-299 0 -506 211l-102 -99l-37 39z" />
    <glyph glyph-name="Ugrave" unicode="&#xd9;" horiz-adv-x="1538" 
d="M1321 602q0 -310 -152 -464t-392 -153q-239 1 -400 165q-160 164 -160 466v818h62v-809q0 -280 142 -431t367 -151q324 0 435 315q37 109 37 258v818h61v-832zM549 1698l22 47l338 -193l-20 -36z" />
    <glyph glyph-name="Uacute" unicode="&#xda;" horiz-adv-x="1538" 
d="M1321 602q0 -310 -152 -464t-392 -153q-239 1 -400 165q-160 164 -160 466v818h62v-809q0 -280 142 -431t367 -151q324 0 435 315q37 109 37 258v818h61v-832zM666 1516l-19 36l338 193l23 -47z" />
    <glyph glyph-name="Ucircumflex" unicode="&#xdb;" horiz-adv-x="1538" 
d="M1321 602q0 -310 -152 -464t-392 -153q-239 1 -400 165q-160 164 -160 466v818h62v-809q0 -280 142 -431t367 -151q324 0 435 315q37 109 37 258v818h61v-832zM764 1743h8l342 -191l-31 -36l-315 174l-317 -174l-27 34z" />
    <glyph glyph-name="Udieresis" unicode="&#xdc;" horiz-adv-x="1538" 
d="M1321 602q0 -310 -152 -464t-392 -153q-239 1 -400 165q-160 164 -160 466v818h62v-809q0 -280 142 -431t367 -151q324 0 435 315q37 109 37 258v818h61v-832zM1006 1585q-50 0 -50 45q0 20 14 32t34 11q45 0 47 -43q-1 -23 -15 -34t-30 -11zM573 1630q0 -45 -48 -45
t-48 45q1 20 15 32t33 11q19 0 33 -11t15 -32z" />
    <glyph glyph-name="Yacute" unicode="&#xdd;" horiz-adv-x="1161" 
d="M608 0h-59v637l-514 797h71l474 -740l477 740h69l-518 -797v-637zM492 1516l-19 36l338 193l23 -47z" />
    <glyph glyph-name="Thorn" unicode="&#xde;" horiz-adv-x="1177" 
d="M564 424q204 0 318.5 104t114.5 267q0 257 -156.5 309.5t-273.5 52.5h-15l-253 -4v-719q165 -10 265 -10zM577 365q-113 0 -278 10v-375h-61v1434h61v-224h35l231 4q270 0 382 -120t112 -302q0 -181 -88 -267.5t-184.5 -123t-209.5 -36.5z" />
    <glyph glyph-name="germandbls" unicode="&#xdf;" horiz-adv-x="1103" 
d="M190 1063q0 389 330 389q116 0 191 -64.5t75 -149.5t-35.5 -133t-79.5 -88t-80 -79t-36 -98t33 -101.5t81 -76t104 -65.5t137 -99t81 -203q0 -137 -88 -225t-223 -88t-195.5 63.5t-76.5 89.5l26 41q60 -86 129.5 -112.5t142 -26.5t148.5 72.5t76 187.5t-81 179.5
t-136.5 97t-136 91.5t-80.5 166q0 68 35.5 113t78.5 84t79 82.5t36 95.5q0 93 -64.5 142t-146.5 49q-135 0 -199.5 -83t-64.5 -270v-1050h-60v1069z" />
    <glyph glyph-name="agrave" unicode="&#xe0;" horiz-adv-x="935" 
d="M380 45q139 1 212 49t133 125v184q-115 82 -274 82q-192 0 -268 -125q-26 -43 -25 -102q0 -102 68 -158q69 -55 154 -55zM782 575v-575h-57v160q-58 -78 -113 -110q-103 -60 -231 -60q-127 0 -206 72t-79 198q0 127 97 200t262 74t270 -75q0 96 -6 175t-33 134
q-57 117 -242 117q-78 1 -135 -19t-123 -59l-18 49q138 86 298 85t238 -93t78 -273zM297 1419l43 35l223 -299l-37 -25z" />
    <glyph glyph-name="aacute" unicode="&#xe1;" horiz-adv-x="935" 
d="M380 45q139 1 212 49t133 125v184q-115 82 -274 82q-192 0 -268 -125q-26 -43 -25 -102q0 -102 68 -158q69 -55 154 -55zM782 575v-575h-57v160q-58 -78 -113 -110q-103 -60 -231 -60q-127 0 -206 72t-79 198q0 127 97 200t262 74t270 -75q0 96 -6 175t-33 134
q-57 117 -242 117q-78 1 -135 -19t-123 -59l-18 49q138 86 298 85t238 -93t78 -273zM414 1130l-37 25l223 299l43 -35z" />
    <glyph glyph-name="acircumflex" unicode="&#xe2;" horiz-adv-x="935" 
d="M380 45q139 1 212 49t133 125v184q-115 82 -274 82q-192 0 -268 -125q-26 -43 -25 -102q0 -102 68 -158q69 -55 154 -55zM782 575v-575h-57v160q-58 -78 -113 -110q-103 -60 -231 -60q-127 0 -206 72t-79 198q0 127 97 200t262 74t270 -75q0 96 -6 175t-33 134
q-57 117 -242 117q-78 1 -135 -19t-123 -59l-18 49q138 86 298 85t238 -93t78 -273zM719 1182l-31 -37l-219 233l-221 -231l-33 35l250 268h8z" />
    <glyph glyph-name="atilde" unicode="&#xe3;" horiz-adv-x="935" 
d="M380 45q139 1 212 49t133 125v184q-115 82 -274 82q-192 0 -268 -125q-26 -43 -25 -102q0 -102 68 -158q69 -55 154 -55zM782 575v-575h-57v160q-58 -78 -113 -110q-103 -60 -231 -60q-127 0 -206 72t-79 198q0 127 97 200t262 74t270 -75q0 96 -6 175t-33 134
q-57 117 -242 117q-78 1 -135 -19t-123 -59l-18 49q138 86 298 85t238 -93t78 -273zM360 1325q55 0 117 -49q25 -18 51 -34t56 -15q66 0 155 84l25 -33q-106 -102 -186 -100q-35 0 -61 15q-25 15 -51 33t-52 32q-26 15 -62 16q-67 0 -155 -74l-27 31q105 94 190 94z" />
    <glyph glyph-name="adieresis" unicode="&#xe4;" horiz-adv-x="935" 
d="M380 45q139 1 212 49t133 125v184q-115 82 -274 82q-192 0 -268 -125q-26 -43 -25 -102q0 -102 68 -158q69 -55 154 -55zM782 575v-575h-57v160q-58 -78 -113 -110q-103 -60 -231 -60q-127 0 -206 72t-79 198q0 127 97 200t262 74t270 -75q0 96 -6 175t-33 134
q-57 117 -242 117q-78 1 -135 -19t-123 -59l-18 49q138 86 298 85t238 -93t78 -273zM627 1278q0 20 13 34q12 14 30 13q18 0 31 -13t13 -33t-12 -32q-14 -12 -31 -12t-31 12q-13 11 -13 31zM195 1278q0 20 13 34q12 14 30 13q18 0 30 -13t12 -33t-12 -32t-29 -12t-31 12
q-13 11 -13 31z" />
    <glyph glyph-name="aring" unicode="&#xe5;" horiz-adv-x="935" 
d="M380 45q139 1 212 49t133 125v184q-115 82 -274 82q-192 0 -268 -125q-26 -43 -25 -102q0 -102 68 -158q69 -55 154 -55zM782 575v-575h-57v160q-58 -78 -113 -110q-103 -60 -231 -60q-127 0 -206 72t-79 198q0 127 97 200t262 74t270 -75q0 96 -6 175t-33 134
q-57 117 -242 117q-78 1 -135 -19t-123 -59l-18 49q138 86 298 85t238 -93t78 -273zM454 1100q68 0 114 46t46 113t-47 113t-113 47q-66 -1 -112 -47q-45 -46 -45 -113t45 -113t112 -46zM454 1458q86 0 145 -58q58 -58 58 -142t-59 -141q-58 -56 -142 -56t-143 56t-59 140
q0 85 57 143t143 58z" />
    <glyph glyph-name="ae" unicode="&#xe6;" horiz-adv-x="1640" 
d="M158 262q0 -106 68.5 -161.5t153.5 -55.5q137 0 210 48t135 126v242q-178 24 -252 24q-144 0 -229.5 -58.5t-85.5 -164.5zM782 575v-63h695q0 174 -98.5 273.5t-264.5 99.5q-123 0 -209 -52.5t-133 -140.5q10 -73 10 -117zM451 940q240 0 303 -176q125 176 368 176
q180 0 297 -115t117 -299q0 -35 -4 -63h-750v-232q53 -92 147.5 -143t206.5 -51q210 0 328 127l21 -43q-59 -70 -151.5 -104.5t-184.5 -34.5q-259 0 -395 184q-70 -82 -155 -129t-214 -47t-209 71.5t-80 198.5t99 201t248 74q150 0 282 -23q9 196 -53 284.5t-228 88.5
q-78 0 -135 -19.5t-123 -58.5l-18 49q135 84 283 84z" />
    <glyph glyph-name="ccedilla" unicode="&#xe7;" horiz-adv-x="1005" 
d="M780 -223.5q0 -104.5 -57 -146.5t-135 -42t-119 13.5t-82 33.5l21 35q78 -41 149.5 -41t118.5 30t47 110.5t-168 80.5h-12v134q-196 12 -316.5 141t-120.5 333t130 343t321 139q234 0 352 -113l-28 -47q-122 105 -299 105t-296.5 -121t-119.5 -307t119 -303t307 -117
q94 0 175 37t132 96l29 -39q-59 -74 -150.5 -111.5t-189.5 -37.5h-6v-97q198 -4 198 -108.5z" />
    <glyph glyph-name="egrave" unicode="&#xe8;" horiz-adv-x="1079" 
d="M915 512q0 175 -98 274t-266 99t-270 -102t-115 -271h749zM975 556q0 -64 -4 -93h-801q2 -199 116 -313t306 -113q98 0 179 36t132 91l23 -43q-60 -70 -152 -105q-189 -72 -374 -1q-186 70 -258 248q-36 89 -36 193t29 193q60 183 229 254q85 37 186 37t177 -30t131 -84
t86 -130t31 -140zM356 1419l43 35l224 -299l-37 -25z" />
    <glyph glyph-name="eacute" unicode="&#xe9;" horiz-adv-x="1079" 
d="M915 512q0 175 -98 274t-266 99t-270 -102t-115 -271h749zM975 556q0 -64 -4 -93h-801q2 -199 116 -313t306 -113q98 0 179 36t132 91l23 -43q-60 -70 -152 -105q-189 -72 -374 -1q-186 70 -258 248q-36 89 -36 193t29 193q60 183 229 254q85 37 186 37t177 -30t131 -84
t86 -130t31 -140zM543 1130l-37 25l223 299l43 -35z" />
    <glyph glyph-name="ecircumflex" unicode="&#xea;" horiz-adv-x="1079" 
d="M915 512q0 175 -98 274t-266 99t-270 -102t-115 -271h749zM975 556q0 -64 -4 -93h-801q2 -199 116 -313t306 -113q98 0 179 36t132 91l23 -43q-60 -70 -152 -105q-189 -72 -374 -1q-186 70 -258 248q-36 89 -36 193t29 193q60 183 229 254q85 37 186 37t177 -30t131 -84
t86 -130t31 -140zM811 1182l-31 -37l-219 233l-221 -231l-33 35l250 268h8z" />
    <glyph glyph-name="edieresis" unicode="&#xeb;" horiz-adv-x="1079" 
d="M915 512q0 175 -98 274t-266 99t-270 -102t-115 -271h749zM975 556q0 -64 -4 -93h-801q2 -199 116 -313t306 -113q98 0 179 36t132 91l23 -43q-60 -70 -152 -105q-189 -72 -374 -1q-186 70 -258 248q-36 89 -36 193t29 193q60 183 229 254q85 37 186 37t177 -30t131 -84
t86 -130t31 -140zM715 1278q0 20 13 34q12 14 30 13q18 0 32 -13t13 -33q0 -20 -13 -32q-12 -12 -30 -12t-32 12q-13 11 -13 31zM283 1278q0 20 13 34q12 14 30 13q18 0 30 -13t12 -33t-12 -32t-29 -12t-31 12q-13 11 -13 31z" />
    <glyph glyph-name="igrave" unicode="&#xec;" horiz-adv-x="522" 
d="M231 922h58v-922h-58v922zM47 1419l43 35l223 -299l-37 -25z" />
    <glyph glyph-name="iacute" unicode="&#xed;" horiz-adv-x="522" 
d="M231 922h58v-922h-58v922zM242 1130l-37 25l223 299l43 -35z" />
    <glyph glyph-name="icircumflex" unicode="&#xee;" horiz-adv-x="522" 
d="M231 922h58v-922h-58v922zM516 1182l-31 -37l-219 233l-221 -231l-33 35l250 268h8z" />
    <glyph glyph-name="idieresis" unicode="&#xef;" horiz-adv-x="522" 
d="M231 922h58v-922h-58v922zM480 1235q-18 0 -30 12q-14 11 -14 31t14 34t30 13q16 0 30 -13t14 -33t-13 -32t-31 -12zM4 1278q0 20 13 34t31 13q18 0 30 -13t12 -33t-12 -32t-30 -12t-31 12q-13 11 -13 31z" />
    <glyph glyph-name="eth" unicode="&#xf0;" horiz-adv-x="1165" 
d="M884 171q117 134 113 359q-18 138 -131.5 246.5t-289 108.5t-293 -119t-117.5 -305t117 -305t300.5 -119t300.5 134zM973 930q86 -195 86 -424t-132 -376.5t-343 -147.5t-344.5 135.5t-133.5 343t134 343.5t342 136q135 0 239.5 -69.5t159.5 -192.5q-49 335 -301 567
l-254 -135l-20 49l231 123q-108 93 -248 150l64 20q124 -54 233 -143l213 112l21 -49l-191 -102q158 -145 244 -340z" />
    <glyph glyph-name="ntilde" unicode="&#xf1;" horiz-adv-x="1132" 
d="M174 922h59v-140q53 65 153 110q100 46 202 46q197 0 293 -100t96 -318v-520h-57v508q0 193 -83 284t-249 91t-295 -101q-37 -29 -60 -57v-725h-59v922zM457 1325q54 0 116 -49q68 -49 107 -49q67 0 156 84l24 -33q-106 -102 -186 -100q-35 0 -61 15q-25 15 -51 33
q-69 47 -125 47q-56 1 -144 -73l-27 31q105 94 191 94z" />
    <glyph glyph-name="ograve" unicode="&#xf2;" horiz-adv-x="1165" 
d="M166 461q0 -185 117 -304q118 -120 299 -120t299 120t117 305t-118 304t-298 119t-299 -120q-117 -119 -117 -304zM926 804q133 -137 133 -344t-133 -343q-133 -137 -344 -136q-210 1 -343 138t-133 343t133 342t342 136t345 -136zM389 1419l43 35l223 -299l-37 -25z" />
    <glyph glyph-name="oacute" unicode="&#xf3;" horiz-adv-x="1165" 
d="M166 461q0 -185 117 -304q118 -120 299 -120t299 120t117 305t-118 304t-298 119t-299 -120q-117 -119 -117 -304zM926 804q133 -137 133 -344t-133 -343q-133 -137 -344 -136q-210 1 -343 138t-133 343t133 342t342 136t345 -136zM547 1130l-37 25l223 299l43 -35z" />
    <glyph glyph-name="ocircumflex" unicode="&#xf4;" horiz-adv-x="1165" 
d="M166 461q0 -185 117 -304q118 -120 299 -120t299 120t117 305t-118 304t-298 119t-299 -120q-117 -119 -117 -304zM926 804q133 -137 133 -344t-133 -343q-133 -137 -344 -136q-210 1 -343 138t-133 343t133 342t342 136t345 -136zM831 1182l-30 -37l-219 233l-222 -231
l-32 35l250 268h8z" />
    <glyph glyph-name="otilde" unicode="&#xf5;" horiz-adv-x="1165" 
d="M166 461q0 -185 117 -304q118 -120 299 -120t299 120t117 305t-118 304t-298 119t-299 -120q-117 -119 -117 -304zM926 804q133 -137 133 -344t-133 -343q-133 -137 -344 -136q-210 1 -343 138t-133 343t133 342t342 136t345 -136zM473 1325q55 0 117 -49q24 -18 50 -34
t56 -15q67 0 156 84l25 -33q-106 -102 -187 -100q-34 0 -60 15t-52 33q-69 47 -124 47q-56 1 -145 -73l-26 31q105 94 190 94z" />
    <glyph glyph-name="odieresis" unicode="&#xf6;" horiz-adv-x="1165" 
d="M166 461q0 -185 117 -304q118 -120 299 -120t299 120t117 305t-118 304t-298 119t-299 -120q-117 -119 -117 -304zM926 804q133 -137 133 -344t-133 -343q-133 -137 -344 -136q-210 1 -343 138t-133 343t133 342t342 136t345 -136zM758 1278q0 20 13 34t31 13
q18 0 30 -13q14 -13 14 -33t-13 -32t-31 -12t-31 12q-13 11 -13 31zM326 1278q0 20 13 34t31 13q18 0 29 -13q13 -13 13 -33t-12 -32t-30 -12q-17 0 -31 12q-13 11 -13 31z" />
    <glyph glyph-name="divide" unicode="&#xf7;" 
d="M150 764h901v-53h-901v53zM555 298q0 17 12.5 30.5t32.5 13.5t32.5 -13.5t12.5 -30.5t-12 -31.5t-33 -14.5t-33 14.5t-12 31.5zM555 1177q0 17 12.5 30.5t32.5 13.5t32.5 -13.5t12.5 -30.5t-12 -32t-33 -15t-33 15t-12 32z" />
    <glyph glyph-name="oslash" unicode="&#xf8;" horiz-adv-x="1165" 
d="M309 129q111 -92 283 -92t288.5 119t116.5 290t-88 285zM877 770q-119 115 -297.5 115t-296 -119t-117.5 -302q0 -184 106 -298zM231 125q-125 133 -125 338t134 341t336 136t342 -129l112 113l33 -37l-113 -113q109 -130 109 -326q0 -195 -133.5 -330.5t-333.5 -135.5
t-322 108l-116 -117l-35 39z" />
    <glyph glyph-name="ugrave" unicode="&#xf9;" horiz-adv-x="1120" 
d="M946 0h-57v160q-99 -119 -260 -163q-55 -15 -111 -15q-182 0 -273 100t-91 315v525h59v-510q0 -188 77 -282t247 -93q103 0 200 55t152 127v703h57v-922zM367 1419l43 35l223 -299l-37 -25z" />
    <glyph glyph-name="uacute" unicode="&#xfa;" horiz-adv-x="1120" 
d="M946 0h-57v160q-99 -119 -260 -163q-55 -15 -111 -15q-182 0 -273 100t-91 315v525h59v-510q0 -188 77 -282t247 -93q103 0 200 55t152 127v703h57v-922zM526 1130l-37 25l224 299l43 -35z" />
    <glyph glyph-name="ucircumflex" unicode="&#xfb;" horiz-adv-x="1120" 
d="M946 0h-57v160q-99 -119 -260 -163q-55 -15 -111 -15q-182 0 -273 100t-91 315v525h59v-510q0 -188 77 -282t247 -93q103 0 200 55t152 127v703h57v-922zM801 1182l-31 -37l-219 233l-221 -231l-33 35l250 268h8z" />
    <glyph glyph-name="udieresis" unicode="&#xfc;" horiz-adv-x="1120" 
d="M946 0h-57v160q-99 -119 -260 -163q-55 -15 -111 -15q-182 0 -273 100t-91 315v525h59v-510q0 -188 77 -282t247 -93q103 0 200 55t152 127v703h57v-922zM733 1278q0 20 13 34q12 14 30 13q18 0 32 -13t13 -33q0 -20 -13 -32q-12 -12 -30 -12t-32 12q-13 11 -13 31z
M301 1278q0 20 13 34q12 14 30 13q18 0 30 -13t13 -33q0 -20 -12 -32q-11 -12 -29 -12t-32 12q-13 11 -13 31z" />
    <glyph glyph-name="yacute" unicode="&#xfd;" horiz-adv-x="966" 
d="M205 -356q79 0 143 70t131 237l21 49l-465 922h67l355 -707q39 -74 71 -149q31 87 60 153l278 703h66l-377 -922q-99 -240 -172 -324t-154 -85t-159 38l20 45q66 -30 115 -30zM446 1130l-36 25l223 299l43 -35z" />
    <glyph glyph-name="thorn" unicode="&#xfe;" horiz-adv-x="1130" 
d="M233 135q138 -98 321 -98q184 0 297.5 121t113.5 310t-103.5 303t-286.5 114q-100 0 -195 -45.5t-147 -110.5v-594zM233 -410h-59v1844h59v-643q57 66 153 107.5t200 41.5q203 0 321.5 -128t118.5 -339q0 -212 -130 -351.5t-334 -139.5t-329 92v-484z" />
    <glyph glyph-name="ydieresis" unicode="&#xff;" horiz-adv-x="966" 
d="M205 -356q79 0 143 70t131 237l21 49l-465 922h67l355 -707q39 -74 71 -149q31 87 60 153l278 703h66l-377 -922q-99 -240 -172 -324t-154 -85t-159 38l20 45q66 -30 115 -30zM659 1278q-1 20 13 34t32 13q18 0 30 -13q14 -13 14 -33t-14 -32t-30 -12q-17 0 -31 12
q-14 11 -14 31zM272 1235q-18 0 -32 12q-14 11 -13 31q-1 20 13 34t31 13q17 0 29 -13t13 -33q0 -20 -12 -32q-11 -12 -29 -12z" />
    <glyph glyph-name="Amacron" unicode="&#x100;" horiz-adv-x="1413" 
d="M371 590h667l-333 768zM684 1448h45l631 -1448h-66l-231 532h-717l-229 -532h-64zM401 1657h609v-49h-609v49z" />
    <glyph glyph-name="amacron" unicode="&#x101;" horiz-adv-x="935" 
d="M380 45q139 1 212 49t133 125v184q-115 82 -274 82q-192 0 -268 -125q-26 -43 -25 -102q0 -102 68 -158q69 -55 154 -55zM782 575v-575h-57v160q-58 -78 -113 -110q-103 -60 -231 -60q-127 0 -206 72t-79 198q0 127 97 200t262 74t270 -75q0 96 -6 175t-33 134
q-57 117 -242 117q-78 1 -135 -19t-123 -59l-18 49q138 86 298 85t238 -93t78 -273zM221 1329h496v-51h-496v51z" />
    <glyph glyph-name="Abreve" unicode="&#x102;" horiz-adv-x="1413" 
d="M371 590h667l-333 768zM684 1448h45l631 -1448h-66l-231 532h-717l-229 -532h-64zM711 1602q102 0 174 44t112 95l27 -31q-118 -158 -313 -162q-164 0 -280 112q-28 28 -42 50l29 31q124 -139 293 -139z" />
    <glyph glyph-name="abreve" unicode="&#x103;" horiz-adv-x="935" 
d="M380 45q139 1 212 49t133 125v184q-115 82 -274 82q-192 0 -268 -125q-26 -43 -25 -102q0 -102 68 -158q69 -55 154 -55zM782 575v-575h-57v160q-58 -78 -113 -110q-103 -60 -231 -60q-127 0 -206 72t-79 198q0 127 97 200t262 74t270 -75q0 96 -6 175t-33 134
q-57 117 -242 117q-78 1 -135 -19t-123 -59l-18 49q138 86 298 85t238 -93t78 -273zM739 1362q-107 -155 -261 -156q-187 -2 -283 156l28 31q105 -135 248 -138q86 0 144 43t100 95z" />
    <glyph glyph-name="Aogonek" unicode="&#x104;" horiz-adv-x="1413" 
d="M371 590h667l-333 768zM1008 -225q0 97 81 162.5t195 82.5l-221 512h-717l-229 -532h-64l631 1448h45l631 -1448h-31q-103 -4 -183.5 -62.5t-80.5 -142.5t54 -119.5t114 -35.5q59 0 98 18l19 -39q-56 -29 -107 -29q-101 0 -168 44t-67 141z" />
    <glyph glyph-name="aogonek" unicode="&#x105;" horiz-adv-x="935" 
d="M380 45q137 0 210 48t135 126v184q-115 82 -274 82q-193 0 -243 -84t-50 -143q0 -102 68.5 -157.5t153.5 -55.5zM451 -225q0 97 80.5 162.5t193.5 82.5v140q-126 -170 -342 -170q-129 0 -208 71.5t-79 198.5t99 201t261 74t269 -76q0 96 -6 175t-48 165t-227 86
q-78 0 -135 -19.5t-123 -58.5l-18 49q135 84 283 84q261 0 296 -139t35 -226v-575q-103 0 -188.5 -60.5t-85.5 -144.5t54 -119.5t114 -35.5q59 0 98 18l19 -39q-56 -29 -107 -29q-101 0 -168 44t-67 141z" />
    <glyph glyph-name="Cacute" unicode="&#x106;" horiz-adv-x="1345" 
d="M810 -18q-142 0 -272 52q-265 105 -369 380q-52 135 -52 296t49 295q99 272 358 390q128 57 274 57q278 0 443 -133l-31 -43q-149 117 -399 117q-141 -1 -258 -53t-200 -142q-173 -188 -173 -486t180 -484q180 -187 471 -187q243 0 410 143l27 -47q-76 -75 -196 -115
t-262 -40zM700 1516l-18 36l338 193l22 -47z" />
    <glyph glyph-name="cacute" unicode="&#x107;" horiz-adv-x="1005" 
d="M881 780q-122 105 -299 105t-297 -122q-119 -122 -119 -306q0 -185 120 -303q120 -117 306 -117q94 0 175 37t132 96l29 -39q-58 -74 -150 -112q-185 -77 -384 -4q-177 68 -252 248q-36 89 -36 193q0 206 129 345t322 139q232 0 352 -113zM530 1130l-36 25l223 299
l43 -35z" />
    <glyph glyph-name="Ccircumflex" unicode="&#x108;" horiz-adv-x="1345" 
d="M810 -18q-142 0 -272 52q-265 105 -369 380q-52 135 -52 296t49 295q99 272 358 390q128 57 274 57q278 0 443 -133l-31 -43q-149 117 -399 117q-141 -1 -258 -53t-200 -142q-173 -188 -173 -486t180 -484q180 -187 471 -187q243 0 410 143l27 -47q-76 -75 -196 -115
t-262 -40zM805 1743h8l342 -191l-31 -36l-315 174l-317 -174l-27 34z" />
    <glyph glyph-name="ccircumflex" unicode="&#x109;" horiz-adv-x="1005" 
d="M881 780q-122 105 -299 105t-297 -122q-119 -122 -119 -306q0 -185 120 -303q120 -117 306 -117q94 0 175 37t132 96l29 -39q-58 -74 -150 -112q-185 -77 -384 -4q-177 68 -252 248q-36 89 -36 193q0 206 129 345t322 139q232 0 352 -113zM819 1182l-31 -37l-219 233
l-221 -231l-33 35l250 268h8z" />
    <glyph glyph-name="Cdotaccent" unicode="&#x10a;" horiz-adv-x="1345" 
d="M810 -18q-142 0 -272 52q-265 105 -369 380q-52 135 -52 296t49 295q99 272 358 390q128 57 274 57q278 0 443 -133l-31 -43q-149 117 -399 117q-141 -1 -258 -53t-200 -142q-173 -188 -173 -486t180 -484q180 -187 471 -187q243 0 410 143l27 -47q-76 -75 -196 -115
t-262 -40zM729 1632q0 45 51 45q16 0 30 -11t15 -34q0 -23 -14 -36t-34 -13t-34 13t-14 36z" />
    <glyph glyph-name="cdotaccent" unicode="&#x10b;" horiz-adv-x="1005" 
d="M881 780q-122 105 -299 105t-297 -122q-119 -122 -119 -306q0 -185 120 -303q120 -117 306 -117q94 0 175 37t132 96l29 -39q-58 -74 -150 -112q-185 -77 -384 -4q-177 68 -252 248q-36 89 -36 193q0 206 129 345t322 139q232 0 352 -113zM537 1287q0 19 14 33
q13 14 31 13q18 0 31 -13q13 -12 13 -32t-12 -34q-14 -14 -31 -13q-17 0 -32 13q-14 14 -14 33z" />
    <glyph glyph-name="Ccaron" unicode="&#x10c;" horiz-adv-x="1345" 
d="M810 -18q-142 0 -272 52q-265 105 -369 380q-52 135 -52 296t49 295q99 272 358 390q128 57 274 57q278 0 443 -133l-31 -43q-149 117 -399 117q-141 -1 -258 -53t-200 -142q-173 -188 -173 -486t180 -484q180 -187 471 -187q243 0 410 143l27 -47q-76 -75 -196 -115
t-262 -40zM465 1710l27 35l319 -174l315 174l29 -35l-340 -190h-8z" />
    <glyph glyph-name="ccaron" unicode="&#x10d;" horiz-adv-x="1005" 
d="M881 780q-122 105 -299 105t-297 -122q-119 -122 -119 -306q0 -185 120 -303q120 -117 306 -117q94 0 175 37t132 96l29 -39q-58 -74 -150 -112q-185 -77 -384 -4q-177 68 -252 248q-36 89 -36 193q0 206 129 345t322 139q232 0 352 -113zM332 1415l33 37l221 -244
l219 242l33 -35l-248 -268h-8z" />
    <glyph glyph-name="Dcaron" unicode="&#x10e;" horiz-adv-x="1505" 
d="M1137 255q188 186 188 476t-174 461q-194 190 -571 190l-281 -6v-1319l183 -2l87 -2q362 0 568 202zM238 0v1434h22l324 6q404 0 617 -211q186 -184 187 -499t-205 -517q-224 -217 -616 -217l-315 4h-14zM344 1710l27 35l319 -174l316 174l28 -35l-340 -190h-8z" />
    <glyph glyph-name="dcaron" unicode="&#x10f;" horiz-adv-x="1132" 
d="M899 791q-133 92 -308 93q-174 1 -299 -118q-126 -119 -126 -309q0 -189 112 -303q112 -115 293 -115q138 0 271 106q35 29 57 58v588zM562 -16q-207 0 -331 129q-125 129 -125 342t143 350q144 135 355 135q172 0 295 -92v586h57v-1434h-57v145q-55 -65 -144 -113
t-193 -48zM1270 1323q0 -73 -40 -137t-93 -90l-25 30q47 29 75 86q27 56 27 120t-20 102h57q19 -38 19 -111z" />
    <glyph glyph-name="Dcroat" unicode="&#x110;" horiz-adv-x="1558" 
d="M1190 255q188 186 188 476t-174 461q-194 190 -571 190l-281 -6v-614h422v-55h-422v-650l184 -2l89 -2q359 0 565 202zM291 0v707h-271v55h271v672h22l324 6q406 0 617 -211q188 -186 188 -501t-215 -523q-215 -209 -606 -209l-316 4h-14z" />
    <glyph glyph-name="dcroat" unicode="&#x111;" horiz-adv-x="1132" 
d="M899 791q-137 94 -309 94t-298 -118.5t-126 -308.5t112 -304.5t293 -114.5q140 0 223 67.5t105 96.5v588zM500 1184h399v250h57v-250h232v-49h-232v-1135h-57v145q-55 -66 -144 -113.5t-193 -47.5q-207 0 -331.5 129t-124.5 342t142 349t356 136q172 0 295 -92v287h-399
v49z" />
    <glyph glyph-name="Emacron" unicode="&#x112;" horiz-adv-x="1177" 
d="M238 1434h778v-58h-717v-618h655v-58h-655v-643h737v-57h-798v1434zM322 1657h608v-49h-608v49z" />
    <glyph glyph-name="emacron" unicode="&#x113;" horiz-adv-x="1079" 
d="M915 512q0 175 -98 274t-266 99t-270 -102t-115 -271h749zM975 556q0 -64 -4 -93h-801q2 -199 116 -313t306 -113q98 0 179 36t132 91l23 -43q-60 -70 -152 -105q-189 -72 -374 -1q-186 70 -258 248q-36 89 -36 193t29 193q60 183 229 254q85 37 186 37t177 -30t131 -84
t86 -130t31 -140zM295 1329h496v-51h-496v51z" />
    <glyph glyph-name="Edotaccent" unicode="&#x116;" horiz-adv-x="1177" 
d="M238 1434h778v-58h-717v-618h655v-58h-655v-643h737v-57h-798v1434zM584 1632q0 45 51 45q17 0 31 -11t14 -34t-14 -36t-34 -13t-34 13t-14 36z" />
    <glyph glyph-name="edotaccent" unicode="&#x117;" horiz-adv-x="1079" 
d="M915 512q0 175 -98 274t-266 99t-270 -102t-115 -271h749zM975 556q0 -64 -4 -93h-801q2 -199 116 -313t306 -113q98 0 179 36t132 91l23 -43q-60 -70 -152 -105q-189 -72 -374 -1q-186 70 -258 248q-36 89 -36 193t29 193q60 183 229 254q85 37 186 37t177 -30t131 -84
t86 -130t31 -140zM496 1287q0 19 14 33t32 13q18 0 30 -13q14 -12 14 -32t-14 -34t-30 -13q-17 0 -32 13q-14 14 -14 33z" />
    <glyph glyph-name="Eogonek" unicode="&#x118;" horiz-adv-x="1177" 
d="M705 -232q0 89 55 146t135 86h-657v1434h778v-58h-717v-618h655v-58h-655v-643h737v-57h-10q-103 -4 -183.5 -62.5t-80.5 -142.5t54 -119.5t113 -35.5t99 18l19 -39q-56 -29 -107 -29q-101 0 -168 44.5t-67 133.5z" />
    <glyph glyph-name="eogonek" unicode="&#x119;" horiz-adv-x="1079" 
d="M282 783q-103 -102 -116 -271h749q0 172 -97 272.5t-265 100.5t-271 -102zM975 556q0 -65 -4 -93h-801q2 -199 115.5 -312.5t306.5 -113.5q98 0 179 36t132 91l23 -43q-65 -76 -176 -113q-156 -99 -156 -219q0 -78 54 -113.5t114 -35.5q59 0 98 18l17 -39
q-56 -29 -107 -29q-101 0 -168 44t-67 129q0 84 36.5 134t102.5 93q-38 -8 -114 -8t-164.5 33.5t-189 131t-100.5 311.5t119.5 348t337.5 134q180 0 265 -84t116 -159.5t31 -140.5z" />
    <glyph glyph-name="Ecaron" unicode="&#x11a;" horiz-adv-x="1177" 
d="M238 1434h778v-58h-717v-618h655v-58h-655v-643h737v-57h-798v1434zM301 1710l27 35l319 -174l316 174l28 -35l-340 -190h-8z" />
    <glyph glyph-name="ecaron" unicode="&#x11b;" horiz-adv-x="1079" 
d="M915 512q0 175 -98 274t-266 99t-270 -102t-115 -271h749zM975 556q0 -64 -4 -93h-801q2 -199 116 -313t306 -113q98 0 179 36t132 91l23 -43q-60 -70 -152 -105q-189 -72 -374 -1q-186 70 -258 248q-36 89 -36 193t29 193q60 183 229 254q85 37 186 37t177 -30t131 -84
t86 -130t31 -140zM309 1415l33 37l221 -244l219 242l33 -35l-248 -268h-8z" />
    <glyph glyph-name="Gcircumflex" unicode="&#x11c;" horiz-adv-x="1488" 
d="M1212 1272q-143 121 -411 121t-445 -191q-176 -191 -176 -491t177 -485t462 -185q204 0 379 97q55 32 94 71v397h-446v58h506v-486q-138 -138 -396 -183q-74 -13 -141 -13q-312 0 -505 201t-193 525t189 530q91 98 218 156q126 58 272 58q277 0 447 -133zM805 1743h8
l342 -191l-31 -36l-315 174l-317 -174l-27 34z" />
    <glyph glyph-name="gcircumflex" unicode="&#x11d;" horiz-adv-x="997" 
d="M195 617q0 -116 80 -191q80 -74 211 -75t213 75q83 76 82 191t-83 191q-82 75 -209 76q-128 1 -211 -75t-83 -192zM883 -142q0 56 -29 99t-80 74t-124 46t-161 15q-181 0 -287 -63t-106 -171q0 -107 106 -167t287 -62q275 0 365 131q29 42 29 98zM511 147q79 0 163 -18
t143 -55t93 -91t34 -124t-34 -123q-104 -162 -421 -162t-420 160q-34 53 -34 125q0 109 77 177t210 95q-35 39 -35 97t39 98q-90 39 -142 114q-51 76 -51 161q0 153 98 247q101 92 248 92t240 -74l258 72v-55l-211 -58q76 -86 76 -217t-101 -223t-254 -90q-68 0 -116 14
q-29 -29 -29 -83t37 -87q54 8 132 8zM745 1182l-30 -37l-219 233l-222 -231l-32 35l250 268h8z" />
    <glyph glyph-name="Gbreve" unicode="&#x11e;" horiz-adv-x="1488" 
d="M1212 1272q-143 121 -411 121t-445 -191q-176 -191 -176 -491t177 -485t462 -185q204 0 379 97q55 32 94 71v397h-446v58h506v-486q-138 -138 -396 -183q-74 -13 -141 -13q-312 0 -505 201t-193 525t189 530q91 98 218 156q126 58 272 58q277 0 447 -133zM821 1602
q102 0 174 44t113 95l27 -31q-118 -158 -314 -162q-167 0 -279 112q-28 28 -42 50l28 31q124 -139 293 -139z" />
    <glyph glyph-name="gbreve" unicode="&#x11f;" horiz-adv-x="997" 
d="M195 617q0 -116 80 -191q80 -74 211 -75t213 75q83 76 82 191t-83 191q-82 75 -209 76q-128 1 -211 -75t-83 -192zM883 -142q0 56 -29 99t-80 74t-124 46t-161 15q-181 0 -287 -63t-106 -171q0 -107 106 -167t287 -62q275 0 365 131q29 42 29 98zM511 147q79 0 163 -18
t143 -55t93 -91t34 -124t-34 -123q-104 -162 -421 -162t-420 160q-34 53 -34 125q0 109 77 177t210 95q-35 39 -35 97t39 98q-90 39 -142 114q-51 76 -51 161q0 153 98 247q101 92 248 92t240 -74l258 72v-55l-211 -58q76 -86 76 -217t-101 -223t-254 -90q-68 0 -116 14
q-29 -29 -29 -83t37 -87q54 8 132 8zM766 1362q-107 -155 -270 -158q-170 0 -275 158l29 31q105 -135 248 -138q86 0 144 43t99 95z" />
    <glyph glyph-name="Gdotaccent" unicode="&#x120;" horiz-adv-x="1488" 
d="M1212 1272q-143 121 -411 121t-445 -191q-176 -191 -176 -491t177 -485t462 -185q204 0 379 97q55 32 94 71v397h-446v58h506v-486q-138 -138 -396 -183q-74 -13 -141 -13q-312 0 -505 201t-193 525t189 530q91 98 218 156q126 58 272 58q277 0 447 -133zM743 1632
q0 45 52 45q16 0 30 -11q15 -11 15 -34t-14 -36t-34 -13t-34 13t-15 36z" />
    <glyph glyph-name="gdotaccent" unicode="&#x121;" horiz-adv-x="997" 
d="M195 617q0 -116 80 -191q80 -74 211 -75t213 75q83 76 82 191t-83 191q-82 75 -209 76q-128 1 -211 -75t-83 -192zM883 -142q0 56 -29 99t-80 74t-124 46t-161 15q-181 0 -287 -63t-106 -171q0 -107 106 -167t287 -62q275 0 365 131q29 42 29 98zM511 147q79 0 163 -18
t143 -55t93 -91t34 -124t-34 -123q-104 -162 -421 -162t-420 160q-34 53 -34 125q0 109 77 177t210 95q-35 39 -35 97t39 98q-90 39 -142 114q-51 76 -51 161q0 153 98 247q101 92 248 92t240 -74l258 72v-55l-211 -58q76 -86 76 -217t-101 -223t-254 -90q-68 0 -116 14
q-29 -29 -29 -83t37 -87q54 8 132 8zM449 1287q0 19 14 33q13 14 31 13q18 0 31 -13q13 -12 13 -32t-12 -34q-14 -14 -31 -13q-17 0 -32 13q-14 14 -14 33z" />
    <glyph glyph-name="Gcommaaccent" unicode="&#x122;" horiz-adv-x="1488" 
d="M1212 1272q-143 121 -411 121t-445 -191q-176 -191 -176 -491t177 -485t462 -185q204 0 379 97q55 32 94 71v397h-446v58h506v-486q-138 -138 -396 -183q-74 -13 -141 -13q-312 0 -505 201t-193 525t189 530q91 98 218 156q126 58 272 58q277 0 447 -133zM801 -131
q82 -9 82 -122q0 -112 -144 -159l-16 31q104 41 102 135q0 77 -65 90z" />
    <glyph glyph-name="gcommaaccent" unicode="&#x123;" horiz-adv-x="997" 
d="M195 617q0 -116 80 -191q80 -74 211 -75t213 75q83 76 82 191t-83 191q-82 75 -209 76q-128 1 -211 -75t-83 -192zM883 -142q0 56 -29 99t-80 74t-124 46t-161 15q-181 0 -287 -63t-106 -171q0 -107 106 -167t287 -62q275 0 365 131q29 42 29 98zM511 147q79 0 163 -18
t143 -55t93 -91t34 -124t-34 -123q-104 -162 -421 -162t-420 160q-34 53 -34 125q0 109 77 177t210 95q-35 39 -35 97t39 98q-90 39 -142 114q-51 76 -51 161q0 153 98 247q101 92 248 92t240 -74l258 72v-55l-211 -58q76 -86 76 -217t-101 -223t-254 -90q-68 0 -116 14
q-29 -29 -29 -83t37 -87q54 8 132 8zM473 1264q0 -75 66 -91l-41 -24q-82 10 -82 119q0 61 40 101t103 60l16 -30q-102 -40 -102 -135z" />
    <glyph glyph-name="Hcircumflex" unicode="&#x124;" horiz-adv-x="1581" 
d="M1284 702h-985v-702h-61v1434h61v-674h985v674h59v-1434h-59v702zM786 1743h9l342 -191l-31 -36l-315 174l-318 -174l-27 34z" />
    <glyph glyph-name="hcircumflex" unicode="&#x125;" horiz-adv-x="1132" 
d="M174 1434h59v-652q63 71 133 101q129 55 222 55q197 0 293 -100t96 -318v-520h-57v508q0 193 -83 284t-259 91q-102 0 -196 -46t-149 -112v-725h-59v1434zM334 1743h8l342 -191l-31 -36l-315 174l-318 -174l-26 34z" />
    <glyph glyph-name="Hbar" unicode="&#x126;" horiz-adv-x="1601" 
d="M1294 760v319h-985v-319h985zM59 1135h189v299h61v-299h985v299h60v-299h190v-56h-190v-1079h-60v702h-985v-702h-61v1079h-189v56z" />
    <glyph glyph-name="hbar" unicode="&#x127;" horiz-adv-x="1144" 
d="M-86 1165h272v269h60v-269h372v-55h-372v-328q91 104 198 130t156 26q197 0 293 -100.5t96 -317.5v-520h-57v508q0 193 -83 284t-251 91t-249 -64.5t-103 -93.5v-725h-60v1110h-272v55z" />
    <glyph glyph-name="Imacron" unicode="&#x12a;" horiz-adv-x="647" 
d="M293 1434h61v-1434h-61v1434zM25 1657h608v-49h-608v49z" />
    <glyph glyph-name="imacron" unicode="&#x12b;" horiz-adv-x="522" 
d="M231 922h58v-922h-58v922zM14 1329h496v-51h-496v51z" />
    <glyph glyph-name="Iogonek" unicode="&#x12e;" horiz-adv-x="647" 
d="M90 -366q-67 44 -67 142q0 97 80 162t190 82v1414h61v-1434h-10q-103 -4 -183.5 -62.5t-80.5 -142.5t54 -119.5t113 -35.5t99 18l19 -39q-56 -29 -132 -29t-143 44z" />
    <glyph glyph-name="iogonek" unicode="&#x12f;" horiz-adv-x="522" 
d="M213 1287q0 19 14.5 32.5t31.5 13.5t30.5 -12.5t13.5 -32.5t-13.5 -33.5t-30.5 -13.5t-31.5 13.5t-14.5 32.5zM-43 -225q0 97 81.5 162.5t192.5 82.5v902h58v-922h-10q-104 -4 -184.5 -62.5t-80.5 -142.5t54 -119.5t113 -35.5t100 18l18 -39q-56 -29 -107 -29
q-100 0 -167.5 44t-67.5 141z" />
    <glyph glyph-name="Idotaccent" unicode="&#x130;" horiz-adv-x="647" 
d="M293 1434h61v-1434h-61v1434zM276 1632q0 45 52 45q16 0 30 -11t14 -34t-14 -36t-34 -13t-34 13t-14 36z" />
    <glyph glyph-name="dotlessi" unicode="&#x131;" horiz-adv-x="522" 
d="M231 922h58v-922h-58v922z" />
    <glyph glyph-name="Jcircumflex" unicode="&#x134;" horiz-adv-x="716" 
d="M418 313v1121h59v-1127q0 -158 -59 -242q-59 -85 -205 -83q-104 0 -178 59l24 47q65 -47 141 -47q130 0 179 80q39 63 39 192zM428 1743h8l342 -191l-30 -36l-316 174l-317 -174l-27 34z" />
    <glyph glyph-name="jcircumflex" unicode="&#x135;" horiz-adv-x="522" 
d="M236 922h57v-990q0 -170 -68 -264t-221 -94q-101 0 -174 53l20 47q67 -43 146 -45q129 0 184 79t56 226v988zM516 1182l-31 -37l-219 233l-221 -231l-33 35l250 268h8z" />
    <glyph glyph-name="Kcommaaccent" unicode="&#x136;" horiz-adv-x="1277" 
d="M238 1434h61v-1434h-61v1434zM477 752l729 -752h-88l-725 748l705 686h84zM631 -255q0 85 -66 99l41 25q83 -10 82 -122t-143 -159l-17 31q103 41 103 126z" />
    <glyph glyph-name="kcommaaccent" unicode="&#x137;" horiz-adv-x="935" 
d="M174 1434h59v-1434h-59v1434zM387 485l500 -485h-82l-492 481l457 441h78zM467 -255q0 86 -66 99l41 25q83 -10 82 -122t-143 -159l-16 31q102 40 102 126z" />
    <glyph glyph-name="Lacute" unicode="&#x139;" horiz-adv-x="1134" 
d="M238 1434h61v-1377h797v-57h-858v1434zM512 1516l-18 36l337 193l23 -47z" />
    <glyph glyph-name="lacute" unicode="&#x13a;" horiz-adv-x="565" 
d="M174 231v1203h59v-1160q0 -117 32 -172t117 -55t144 47l19 -47q-69 -55 -175 -55q-105 0 -151 58q-45 58 -45 181zM164 1516l-19 36l338 193l23 -47z" />
    <glyph glyph-name="Lcommaaccent" unicode="&#x13b;" horiz-adv-x="1134" 
d="M238 1434h61v-1377h797v-57h-858v1434zM631 -131q82 -9 82 -122q0 -112 -144 -159l-16 31q104 41 102 135q0 77 -65 90z" />
    <glyph glyph-name="lcommaaccent" unicode="&#x13c;" horiz-adv-x="565" 
d="M174 231v1203h59v-1160q0 -117 32 -172t117 -55t144 47l19 -47q-69 -55 -175 -55q-105 0 -151 58q-45 58 -45 181zM338 -255q0 86 -66 99l41 25q83 -10 82 -122t-143 -159l-16 31q102 40 102 126z" />
    <glyph glyph-name="Lcaron" unicode="&#x13d;" horiz-adv-x="1134" 
d="M238 1434h61v-1377h797v-57h-858v1434zM807 1323q0 -73 -40 -137t-93 -90l-25 30q47 29 75 86q28 56 28 120t-21 102h57q19 -38 19 -111z" />
    <glyph glyph-name="lcaron" unicode="&#x13e;" horiz-adv-x="565" 
d="M174 231v1203h59v-1160q0 -117 32 -172t117 -55t144 47l19 -47q-69 -55 -175 -55q-105 0 -151 58q-45 58 -45 181zM551 1323q0 -73 -40 -137t-93 -90l-25 30q47 29 75 86q28 56 28 120t-21 102h57q19 -38 19 -111z" />
    <glyph glyph-name="Ldot" unicode="&#x13f;" horiz-adv-x="1134" 
d="M238 1434h61v-1377h797v-57h-858v1434zM838 715q-20 -1 -36 15q-14 16 -14 34t14 32t36 15q20 0 34 -14q14 -15 14 -33t-14 -34t-34 -15z" />
    <glyph glyph-name="ldot" unicode="&#x140;" horiz-adv-x="583" 
d="M174 231v1203h59v-1160q0 -117 32 -172t117 -55t144 47l19 -47q-69 -55 -175 -55q-105 0 -151 58q-45 58 -45 181zM457 632q0 18 14 32q13 14 31 14t32 -13t13 -33q0 -20 -13 -32q-12 -14 -30 -14t-33 13q-14 14 -14 33z" />
    <glyph glyph-name="Lslash" unicode="&#x141;" horiz-adv-x="1155" 
d="M258 1434h61v-742l402 209v-59l-402 -211v-574h797v-57h-858v598l-199 -104v63l199 102v775z" />
    <glyph glyph-name="lslash" unicode="&#x142;" horiz-adv-x="626" 
d="M215 231v377l-176 -92v62l176 92v764h59v-734l244 127v-59l-244 -129v-365q0 -117 32 -172t115 -55t146 47l19 -47q-69 -55 -175 -55q-105 0 -150.5 58.5t-45.5 180.5z" />
    <glyph glyph-name="Nacute" unicode="&#x143;" horiz-adv-x="1636" 
d="M295 0h-57v1434h49l1052 -1328v1328h60v-1434h-49l-1055 1323v-1323zM760 1516l-19 36l338 193l23 -47z" />
    <glyph glyph-name="nacute" unicode="&#x144;" horiz-adv-x="1132" 
d="M174 922h59v-140q53 65 153 110q100 46 202 46q197 0 293 -100t96 -318v-520h-57v508q0 193 -83 284t-249 91t-295 -101q-37 -29 -60 -57v-725h-59v922zM535 1130l-37 25l223 299l43 -35z" />
    <glyph glyph-name="Ncommaaccent" unicode="&#x145;" horiz-adv-x="1636" 
d="M295 0h-57v1434h49l1052 -1328v1328h60v-1434h-49l-1055 1323v-1323zM797 -131q82 -9 82 -122q0 -112 -144 -159l-16 31q104 41 102 135q0 77 -65 90z" />
    <glyph glyph-name="ncommaaccent" unicode="&#x146;" horiz-adv-x="1132" 
d="M174 922h59v-140q53 65 153 110q100 46 202 46q197 0 293 -100t96 -318v-520h-57v508q0 193 -83 284t-249 91t-295 -101q-37 -29 -60 -57v-725h-59v922zM559 -131q82 -9 82 -121t-143 -160l-17 31q103 40 103 126q0 85 -66 99z" />
    <glyph glyph-name="Ncaron" unicode="&#x147;" horiz-adv-x="1636" 
d="M295 0h-57v1434h49l1052 -1328v1328h60v-1434h-49l-1055 1323v-1323zM471 1710l27 35l319 -174l316 174l28 -35l-340 -190h-8z" />
    <glyph glyph-name="ncaron" unicode="&#x148;" horiz-adv-x="1132" 
d="M174 922h59v-140q53 65 153 110q100 46 202 46q197 0 293 -100t96 -318v-520h-57v508q0 193 -83 284t-249 91t-295 -101q-37 -29 -60 -57v-725h-59v922zM311 1415l33 37l221 -244l219 242l33 -35l-248 -268h-8z" />
    <glyph glyph-name="Omacron" unicode="&#x14c;" horiz-adv-x="1652" 
d="M180 717q0 -289 185 -482q185 -194 462 -194t460 194t183 484t-185 481t-460 193q-137 1 -255 -51q-240 -105 -341 -356q-49 -124 -49 -269zM117 716q0 314 204 524q95 100 224 156t279 56t281 -55q263 -111 375 -387q54 -135 54 -293q0 -316 -204 -524
q-95 -99 -225 -155t-280 -56t-279 55q-264 113 -374 387q-54 136 -55 292zM524 1657h609v-49h-609v49z" />
    <glyph glyph-name="omacron" unicode="&#x14d;" horiz-adv-x="1165" 
d="M166 461q0 -185 117 -304q118 -120 299 -120t299 120t117 305t-118 304t-298 119t-299 -120q-117 -119 -117 -304zM926 804q133 -137 133 -344t-133 -343q-133 -137 -344 -136q-210 1 -343 138t-133 343t133 342t342 136t345 -136zM336 1329h495v-51h-495v51z" />
    <glyph glyph-name="Ohungarumlaut" unicode="&#x150;" horiz-adv-x="1652" 
d="M180 717q0 -289 185 -482q185 -194 462 -194t460 194t183 484t-185 481t-460 193q-137 1 -255 -51q-240 -105 -341 -356q-49 -124 -49 -269zM117 716q0 314 204 524q95 100 224 156t279 56t281 -55q263 -111 375 -387q54 -135 54 -293q0 -316 -204 -524
q-95 -99 -225 -155t-280 -56t-279 55q-264 113 -374 387q-54 136 -55 292zM625 1516l-27 28l303 201l43 -31zM977 1516l-27 28l320 201l35 -39z" />
    <glyph glyph-name="ohungarumlaut" unicode="&#x151;" horiz-adv-x="1165" 
d="M166 461q0 -185 117 -304q118 -120 299 -120t299 120t117 305t-118 304t-298 119t-299 -120q-117 -119 -117 -304zM926 804q133 -137 133 -344t-133 -343q-133 -137 -344 -136q-210 1 -343 138t-133 343t133 342t342 136t345 -136zM424 1130l-37 25l221 299l41 -31z
M719 1130l-37 25l227 297l41 -35z" />
    <glyph glyph-name="OE" unicode="&#x152;" horiz-adv-x="2146" 
d="M811 1393q-141 0 -258 -52.5t-245 -191.5t-128 -437t181 -484.5t470 -186.5q227 0 375 117v1120q-151 115 -395 115zM827 -18q-318 0 -514 202t-196 525t193 533t499 210q243 0 397 -106v88h779v-58h-717v-618h655v-58h-655v-643h737v-57h-799v88q-156 -106 -379 -106z
" />
    <glyph glyph-name="oe" unicode="&#x153;" horiz-adv-x="1734" 
d="M1573 512q0 174 -98.5 273.5t-266.5 99.5t-271 -102.5t-116 -270.5h752zM864 784q-114 101 -287 101t-291 -119t-118 -305t117 -305t294 -119t289 104q-106 127 -106 322t102 321zM1630 556q0 -65 -4 -93h-801q2 -199 116 -312.5t306 -113.5q98 0 179 36t133 91l22 -43
q-59 -70 -151.5 -104.5t-184.5 -34.5q-199 0 -336 118q-129 -118 -333 -118t-337 135.5t-133 343t134 343.5t334 136t325 -115q124 115 311 115q188 0 273.5 -84t116 -159.5t30.5 -140.5z" />
    <glyph glyph-name="Racute" unicode="&#x154;" horiz-adv-x="1271" 
d="M543 1380h-46q-30 0 -66 -1l-72 -2t-60 -1v-692h279q153 0 277 101t124 254q0 152 -96 242q-110 99 -340 99zM299 627v-627h-61v1434l169 2l140 2q269 0 394 -123q103 -101 101 -279q0 -144 -102 -257t-260 -140l520 -639h-76l-510 627h-315zM449 1516l-19 36l338 193
l23 -47z" />
    <glyph glyph-name="racute" unicode="&#x155;" horiz-adv-x="655" 
d="M485 883q-148 0 -252 -162v-721h-59v922h59v-134q101 150 261 150q98 0 143 -35l-19 -55q-34 20 -60 28t-73 7zM365 1130l-37 25l223 299l43 -35z" />
    <glyph glyph-name="Rcommaaccent" unicode="&#x156;" horiz-adv-x="1271" 
d="M543 1380h-46q-30 0 -66 -1l-72 -2t-60 -1v-692h279q153 0 277 101t124 254q0 152 -96 242q-110 99 -340 99zM299 627v-627h-61v1434l169 2l140 2q269 0 394 -123q103 -101 101 -279q0 -144 -102 -257t-260 -140l520 -639h-76l-510 627h-315zM602 -131q82 -9 82 -121
t-143 -160l-17 31q103 40 103 126q0 85 -66 99z" />
    <glyph glyph-name="rcommaaccent" unicode="&#x157;" horiz-adv-x="655" 
d="M485 883q-148 0 -252 -162v-721h-59v922h59v-134q101 150 261 150q98 0 143 -35l-19 -55q-34 20 -60 28t-73 7zM287 -131q82 -9 82 -122q0 -112 -144 -159l-16 31q104 41 102 135q0 77 -65 90z" />
    <glyph glyph-name="Rcaron" unicode="&#x158;" horiz-adv-x="1271" 
d="M543 1380h-46q-30 0 -66 -1l-72 -2t-60 -1v-692h279q153 0 277 101t124 254q0 152 -96 242q-110 99 -340 99zM299 627v-627h-61v1434l169 2l140 2q269 0 394 -123q103 -101 101 -279q0 -144 -102 -257t-260 -140l520 -639h-76l-510 627h-315zM215 1710l27 35l319 -174
l316 174l28 -35l-340 -190h-8z" />
    <glyph glyph-name="rcaron" unicode="&#x159;" horiz-adv-x="655" 
d="M485 883q-148 0 -252 -162v-721h-59v922h59v-134q101 150 261 150q98 0 143 -35l-19 -55q-34 20 -60 28t-73 7zM133 1415l33 37l221 -244l219 242l33 -35l-248 -268h-8z" />
    <glyph glyph-name="Sacute" unicode="&#x15a;" horiz-adv-x="1112" 
d="M563 1393q-160 0 -252 -79t-92 -208q0 -205 246 -300q71 -28 143 -54q190 -69 254 -124q134 -113 133 -279t-128 -268q-128 -101 -322 -100t-354 119q-48 37 -74 84l39 41q69 -90 174 -137t196 -47q273 0 373 172q33 57 33 153t-58 162q-96 111 -329 187
q-234 76 -332 198q-57 72 -57 207t108 234q108 98 301 98q117 0 217 -40t160 -105l-35 -43q-129 129 -344 129zM483 1516l-18 36l338 193l22 -47z" />
    <glyph glyph-name="sacute" unicode="&#x15b;" horiz-adv-x="837" 
d="M420 887q-102 0 -160 -52t-59 -124q0 -72 39 -113q65 -68 219 -111t223 -123q39 -46 39 -119q0 -131 -88 -197t-224 -66t-246 79q-32 23 -48 48l37 36q50 -69 189 -102q38 -8 79 -8t85 12q93 25 135 98q22 37 22 97q0 103 -136 159q-57 25 -125 44q-149 42 -221 130
q-39 49 -39 143t76 158q76 65 205 64q84 0 155 -29t109 -69l-29 -43q-84 88 -237 88zM397 1130l-37 25l224 299l43 -35z" />
    <glyph glyph-name="Scircumflex" unicode="&#x15c;" horiz-adv-x="1112" 
d="M563 1393q-160 0 -252 -79t-92 -208q0 -205 246 -300q71 -28 143 -54q190 -69 254 -124q134 -113 133 -279t-128 -268q-128 -101 -322 -100t-354 119q-48 37 -74 84l39 41q69 -90 174 -137t196 -47q273 0 373 172q33 57 33 153t-58 162q-96 111 -329 187
q-234 76 -332 198q-57 72 -57 207t108 234q108 98 301 98q117 0 217 -40t160 -105l-35 -43q-129 129 -344 129zM551 1743h8l342 -191l-31 -36l-315 174l-317 -174l-27 34z" />
    <glyph glyph-name="scircumflex" unicode="&#x15d;" horiz-adv-x="837" 
d="M420 887q-102 0 -160 -52t-59 -124q0 -72 39 -113q65 -68 219 -111t223 -123q39 -46 39 -119q0 -131 -88 -197t-224 -66t-246 79q-32 23 -48 48l37 36q50 -69 189 -102q38 -8 79 -8t85 12q93 25 135 98q22 37 22 97q0 103 -136 159q-57 25 -125 44q-149 42 -221 130
q-39 49 -39 143t76 158q76 65 205 64q84 0 155 -29t109 -69l-29 -43q-84 88 -237 88zM676 1182l-31 -37l-219 233l-221 -231l-33 35l250 268h8z" />
    <glyph glyph-name="Scedilla" unicode="&#x15e;" horiz-adv-x="1112" 
d="M534 -371q70 0 117 30t47 110.5t-168 80.5h-12v134q-188 6 -281.5 81.5t-119.5 118.5l39 41q100 -130 218 -157t180 -27q148 0 263 80.5t115 226.5q0 113 -57.5 179.5t-143.5 110.5t-187.5 77t-187.5 80t-143 118.5t-57 207.5t108 233.5t301 97.5q117 0 217.5 -40
t159.5 -105l-35 -43q-129 129 -344 129q-160 0 -252 -79t-92 -208q0 -202 158 -265t230.5 -89.5t230 -95.5t157.5 -306q0 -166 -125 -265t-313 -103v-97q201 -4 201 -108.5t-57 -146.5t-135 -42t-121.5 13.5t-84.5 36.5l21 34q83 -43 153 -43z" />
    <glyph glyph-name="scedilla" unicode="&#x15f;" horiz-adv-x="837" 
d="M616 -223.5q0 -104.5 -57 -146.5t-135 -42t-119 13.5t-82 33.5l21 35q78 -41 149.5 -41t118.5 30t47 110.5t-168 80.5h-12v134q-130 13 -190 57.5t-74 67.5l37 36q53 -73 140 -91.5t128 -18.5q96 0 169 53t73 133t-39 118t-96.5 62.5t-125 44t-164 70.5t-96.5 193
q0 102 76 166.5t205 64.5q84 0 154.5 -28.5t109.5 -69.5l-29 -43q-84 88 -237 88q-102 0 -160.5 -52.5t-58.5 -124t39 -112.5t96 -66.5t124.5 -45t164 -67.5t96.5 -176t-87.5 -194.5t-215.5 -66.5v-97q198 -4 198 -108.5z" />
    <glyph glyph-name="Scaron" unicode="&#x160;" horiz-adv-x="1112" 
d="M563 1393q-160 0 -252 -79t-92 -208q0 -205 246 -300q71 -28 143 -54q190 -69 254 -124q134 -113 133 -279t-128 -268q-128 -101 -322 -100t-354 119q-48 37 -74 84l39 41q69 -90 174 -137t196 -47q273 0 373 172q33 57 33 153t-58 162q-96 111 -329 187
q-234 76 -332 198q-57 72 -57 207t108 234q108 98 301 98q117 0 217 -40t160 -105l-35 -43q-129 129 -344 129zM223 1710l27 35l319 -174l316 174l28 -35l-340 -190h-8z" />
    <glyph glyph-name="scaron" unicode="&#x161;" horiz-adv-x="837" 
d="M420 887q-102 0 -160 -52t-59 -124q0 -72 39 -113q65 -68 219 -111t223 -123q39 -46 39 -119q0 -131 -88 -197t-224 -66t-246 79q-32 23 -48 48l37 36q50 -69 189 -102q38 -8 79 -8t85 12q93 25 135 98q22 37 22 97q0 103 -136 159q-57 25 -125 44q-149 42 -221 130
q-39 49 -39 143t76 158q76 65 205 64q84 0 155 -29t109 -69l-29 -43q-84 88 -237 88zM166 1415l33 37l221 -244l219 242l33 -35l-248 -268h-8z" />
    <glyph glyph-name="Tcedilla" unicode="&#x162;" horiz-adv-x="1210" 
d="M602 -371q70 0 117 30t47 110.5t-168 80.5h-12v150h-11v1376h-555v58h1170v-58h-555v-1376h-10v-115q200 -4 200 -108.5t-57 -146.5t-135 -42t-121 13.5t-84 36.5l21 34q83 -43 153 -43z" />
    <glyph glyph-name="tcedilla" unicode="&#x163;" horiz-adv-x="704" 
d="M586 -262.5q0 -65.5 -57 -107.5t-135 -42t-119.5 13.5t-81.5 33.5l20 35q78 -41 149.5 -41t118.5 30t47 110.5t-168 80.5h-12v150q-104 27 -149 115t-45 235v828h59v-256h397v-56h-397v-497q0 -160 55.5 -242t184.5 -82q84 0 149 49l25 -47q-77 -57 -185 -57q-31 0 -55 4
v-109q106 -2 152.5 -42t46.5 -105.5z" />
    <glyph glyph-name="Tcaron" unicode="&#x164;" horiz-adv-x="1210" 
d="M20 1434h1170v-58h-555v-1376h-60v1376h-555v58zM260 1710l27 35l319 -174l316 174l28 -35l-340 -190h-8z" />
    <glyph glyph-name="tcaron" unicode="&#x165;" horiz-adv-x="704" 
d="M154 1178h59v-256h397v-56h-397v-497q0 -160 55 -242t185 -82q87 0 149 49l25 -47q-77 -57 -185 -57q-154 0 -222 91t-66 269v828zM565 1324q0 -74 -40 -138t-93 -90l-24 30q47 29 74 86q28 56 28 120t-21 102h58q18 -36 18 -110z" />
    <glyph glyph-name="Umacron" unicode="&#x16a;" horiz-adv-x="1538" 
d="M1321 602q0 -310 -152 -464t-392 -153q-239 1 -400 165q-160 164 -160 466v818h62v-809q0 -280 142 -431t367 -151q324 0 435 315q37 109 37 258v818h61v-832zM467 1657h608v-49h-608v49z" />
    <glyph glyph-name="umacron" unicode="&#x16b;" horiz-adv-x="1120" 
d="M946 0h-57v160q-99 -119 -260 -163q-55 -15 -111 -15q-182 0 -273 100t-91 315v525h59v-510q0 -188 77 -282t247 -93q103 0 200 55t152 127v703h57v-922zM311 1329h496v-51h-496v51z" />
    <glyph glyph-name="Ubreve" unicode="&#x16c;" horiz-adv-x="1538" 
d="M1321 602q0 -310 -152 -464t-392 -153q-239 1 -400 165q-160 164 -160 466v818h62v-809q0 -280 142 -431t367 -151q324 0 435 315q37 109 37 258v818h61v-832zM772 1602q102 0 174 44t113 95l26 -31q-118 -159 -313 -162q-167 0 -279 112q-28 28 -42 50l28 31
q124 -139 293 -139z" />
    <glyph glyph-name="ubreve" unicode="&#x16d;" horiz-adv-x="1120" 
d="M946 0h-57v160q-99 -119 -260 -163q-55 -15 -111 -15q-182 0 -273 100t-91 315v525h59v-510q0 -188 77 -282t247 -93q103 0 200 55t152 127v703h57v-922zM829 1362q-107 -155 -261 -156q-187 -2 -283 156l28 31q105 -135 248 -138q87 0 145 43t99 95z" />
    <glyph glyph-name="Uring" unicode="&#x16e;" horiz-adv-x="1538" 
d="M1321 602q0 -310 -152 -464t-392 -153q-239 1 -400 165q-160 164 -160 466v818h62v-809q0 -280 142 -431t367 -151q324 0 435 315q37 109 37 258v818h61v-832zM610 1596q0 -68 46 -100t113 -32t114 33t47 99t-47 97q-47 29 -114 29t-113 -30t-46 -96zM768 1425
q-86 0 -146 43t-59 128q-1 85 59 125t146 40t147 -40t61 -125t-60 -128q-62 -43 -148 -43z" />
    <glyph glyph-name="uring" unicode="&#x16f;" horiz-adv-x="1120" 
d="M946 0h-57v160q-99 -119 -260 -163q-55 -15 -111 -15q-182 0 -273 100t-91 315v525h59v-510q0 -188 77 -282t247 -93q103 0 200 55t152 127v703h57v-922zM717 1259q0 67 -47 113t-114 47q-67 -1 -112 -47t-45 -113t45 -113t112 -46t114 46t47 113zM557 1458q86 0 144 -58
q59 -58 59 -142t-59 -140q-59 -57 -144 -57t-143 57t-58 140q0 84 58 142t143 58z" />
    <glyph glyph-name="Uhungarumlaut" unicode="&#x170;" horiz-adv-x="1538" 
d="M1321 602q0 -310 -152 -464t-392 -153q-239 1 -400 165q-160 164 -160 466v818h62v-809q0 -280 142 -431t367 -151q324 0 435 315q37 109 37 258v818h61v-832zM541 1516l-27 28l303 201l43 -31zM893 1516l-27 28l320 201l35 -39z" />
    <glyph glyph-name="uhungarumlaut" unicode="&#x171;" horiz-adv-x="1120" 
d="M946 0h-57v160q-99 -119 -260 -163q-55 -15 -111 -15q-182 0 -273 100t-91 315v525h59v-510q0 -188 77 -282t247 -93q103 0 200 55t152 127v703h57v-922zM401 1130l-36 25l221 299l41 -31zM696 1130l-37 25l228 297l41 -35z" />
    <glyph glyph-name="Uogonek" unicode="&#x172;" horiz-adv-x="1538" 
d="M735 -366q-67 44 -67 131q0 86 46 137t117 86q-10 -2 -21 -2h-22q-251 0 -411 163.5t-160 466.5v818h62v-809q0 -279 142 -430.5t359 -151.5t348.5 144t131.5 429v818h61v-832q0 -266 -113 -417.5t-299 -186.5q-76 -33 -130 -82t-54 -127t54 -113.5t114 -35.5q59 0 98 18
l19 -39q-56 -29 -132 -29t-143 44z" />
    <glyph glyph-name="uogonek" unicode="&#x173;" horiz-adv-x="1120" 
d="M681.5 -366q-67.5 44 -67.5 140t81 162.5t194 83.5v140q-99 -119 -207.5 -148.5t-163.5 -29.5q-182 0 -273 100t-91 315v525h59v-510q0 -188 77 -281.5t247 -93.5q99 0 198.5 54.5t153.5 127.5v703h57v-922h-10q-103 -4 -183.5 -62.5t-80.5 -142.5t54 -119.5t113 -35.5
t99 18l18 -39q-56 -29 -131 -29q-76 0 -143.5 44z" />
    <glyph glyph-name="Ydieresis" unicode="&#x178;" horiz-adv-x="1161" 
d="M608 0h-59v637l-514 797h71l474 -740l477 740h69l-518 -797v-637zM823 1585q-49 0 -49 45q0 20 14 32t32 11q18 0 34 -11q14 -11 14 -33t-14 -33t-31 -11zM391 1630q0 -45 -48 -45t-48 45q0 20 14 32q13 12 33 11q20 0 34 -11t15 -32z" />
    <glyph glyph-name="Zacute" unicode="&#x179;" horiz-adv-x="1277" 
d="M123 1434h1053v-33l-1006 -1344h1026v-57h-1114v33l1003 1343h-962v58zM563 1516l-18 36l338 193l22 -47z" />
    <glyph glyph-name="zacute" unicode="&#x17a;" horiz-adv-x="978" 
d="M131 922h748v-33l-693 -834h682v-55h-768v33l688 833h-657v56zM471 1130l-37 25l223 299l43 -35z" />
    <glyph glyph-name="Zdotaccent" unicode="&#x17b;" horiz-adv-x="1277" 
d="M123 1434h1053v-33l-1006 -1344h1026v-57h-1114v33l1003 1343h-962v58zM573 1632q0 45 52 45q16 0 30 -11q15 -11 15 -34t-14 -36t-34 -13t-34 13t-15 36z" />
    <glyph glyph-name="zdotaccent" unicode="&#x17c;" horiz-adv-x="978" 
d="M131 922h748v-33l-693 -834h682v-55h-768v33l688 833h-657v56zM440 1287q0 19 14 33t32 13q16 0 30 -13q14 -12 14 -32t-13 -34t-31 -13q-18 -1 -32 13t-14 33z" />
    <glyph glyph-name="Zcaron" unicode="&#x17d;" horiz-adv-x="1277" 
d="M123 1434h1053v-33l-1006 -1344h1026v-57h-1114v33l1003 1343h-962v58zM291 1710l26 35l320 -174l315 174l29 -35l-340 -190h-8z" />
    <glyph glyph-name="zcaron" unicode="&#x17e;" horiz-adv-x="978" 
d="M131 922h748v-33l-693 -834h682v-55h-768v33l688 833h-657v56zM240 1415l32 37l222 -244l219 242l32 -35l-247 -268h-9z" />
    <glyph glyph-name="longs" unicode="&#x17f;" horiz-adv-x="516" 
d="M522 1397q-254 0 -254 -344v-1053h-57v1071q0 381 313 381q138 0 230 -76l-23 -45q-88 66 -209 66z" />
    <glyph glyph-name="Schwa" unicode="&#x18f;" horiz-adv-x="1593" 
d="M1235 226.5q168 185.5 176 475.5h-1247q4 -282 173.5 -471.5t449.5 -189.5t448 185.5zM319 1313q157 139 461 139q142 0 274 -51t276.5 -198t144.5 -473t-188.5 -537t-503.5 -211t-501 217.5t-182 560.5h1309q-12 290 -189.5 461.5t-471.5 171.5q-239 0 -402 -123z" />
    <glyph glyph-name="florin" unicode="&#x192;" 
d="M1047 922v-56h-385l-168 -934q-34 -184 -108 -271t-220 -87q-100 0 -174 53l20 47q70 -45 140 -45q128 0 191 74t93 238l166 925h-350v56h360l27 149q35 195 115 288t227 93t238 -76l-25 -45q-84 66 -206 66t-190.5 -82t-101.5 -262l-24 -131h375z" />
    <glyph glyph-name="eturn" unicode="&#x1dd;" horiz-adv-x="1079" 
d="M532 37q171 0 274 110.5t107 278.5h-751q-4 -190 97.5 -289.5t272.5 -99.5zM156 801q124 139 384 139q76 0 161 -34t178.5 -130t93.5 -310q0 -215 -116.5 -349.5t-316.5 -134.5t-319 115t-119 298l4 82h803q0 173 -109 290.5t-292 117.5q-98 0 -188.5 -36t-141.5 -91z
" />
    <glyph glyph-name="Scommaaccent" unicode="&#x218;" horiz-adv-x="1112" 
d="M563 1393q-160 0 -252 -79t-92 -208q0 -205 246 -300q71 -28 143 -54q190 -69 254 -124q134 -113 133 -279t-128 -268q-128 -101 -322 -100t-354 119q-48 37 -74 84l39 41q69 -90 174 -137t196 -47q273 0 373 172q33 57 33 153t-58 162q-96 111 -329 187
q-234 76 -332 198q-57 72 -57 207t108 234q108 98 301 98q117 0 217 -40t160 -105l-35 -43q-129 129 -344 129zM539 -131q82 -9 82 -122q0 -112 -144 -159l-16 31q104 41 102 135q0 77 -65 90z" />
    <glyph glyph-name="scommaaccent" unicode="&#x219;" horiz-adv-x="837" 
d="M420 887q-102 0 -160 -52t-59 -124q0 -72 39 -113q65 -68 219 -111t223 -123q39 -46 39 -119q0 -131 -88 -197t-224 -66t-246 79q-32 23 -48 48l37 36q50 -69 189 -102q38 -8 79 -8t85 12q93 25 135 98q22 37 22 97q0 103 -136 159q-57 25 -125 44q-149 42 -221 130
q-39 49 -39 143t76 158q76 65 205 64q84 0 155 -29t109 -69l-29 -43q-84 88 -237 88zM416 -131q82 -9 82 -122q0 -112 -144 -159l-16 31q104 41 102 135q0 77 -65 90z" />
    <glyph glyph-name="Tcommaaccent" unicode="&#x21a;" horiz-adv-x="1210" 
d="M20 1434h1170v-58h-555v-1376h-60v1376h-555v58zM600 -131q82 -9 82 -121t-143 -160l-17 31q103 40 103 126q0 85 -66 99z" />
    <glyph glyph-name="tcommaaccent" unicode="&#x21b;" horiz-adv-x="704" 
d="M154 1178h59v-256h397v-56h-397v-497q0 -160 55 -242t185 -82q87 0 149 49l25 -47q-77 -57 -185 -57q-154 0 -222 91t-66 269v828zM389 -131q82 -9 82 -121t-143 -160l-17 31q103 40 103 126q0 85 -66 99z" />
    <glyph glyph-name="dotlessj" unicode="&#x237;" horiz-adv-x="522" 
d="M-4 -371q129 0 184.5 79t55.5 226v988h57v-990q0 -170 -67.5 -264t-221.5 -94q-97 0 -174 53l20 47q70 -45 146 -45z" />
    <glyph glyph-name="schwa" unicode="&#x259;" horiz-adv-x="1079" 
d="M531 37q170 0 275 111t107 278h-751q-4 -190 97 -290q102 -99 272 -99zM909 477q0 173 -109 290q-109 118 -292 118q-98 0 -188 -36t-142 -91l-22 43q84 95 258 130q50 9 126 9t161 -34q174 -69 239 -248q33 -89 33 -193q0 -215 -117 -350t-317 -134t-318 115
q-119 114 -119 299l4 82h803z" />
    <glyph glyph-name="afii57929" unicode="&#x2bc;" horiz-adv-x="403" 
d="M227 1184q0 72 -41 110l50 35q45 -50 46 -138q2 -161 -132 -235l-25 31q104 62 102 197z" />
    <glyph glyph-name="circumflex" unicode="&#x2c6;" horiz-adv-x="749" 
d="M627 1182l-31 -37l-219 233l-221 -231l-33 35l250 268h8z" />
    <glyph glyph-name="caron" unicode="&#x2c7;" horiz-adv-x="751" 
d="M123 1415l33 37l221 -244l219 242l33 -35l-248 -268h-8z" />
    <glyph glyph-name="breve" unicode="&#x2d8;" horiz-adv-x="790" 
d="M397 1204q-100 0 -168 49t-106 109l29 31q107 -138 247 -138q86 0 144.5 43t99.5 95l25 -31q-109 -158 -271 -158z" />
    <glyph glyph-name="dotaccent" unicode="&#x2d9;" horiz-adv-x="335" 
d="M123 1287q0 19 14.5 32.5t31.5 13.5t30.5 -12.5t13.5 -32.5t-13.5 -33.5t-30.5 -13.5t-31.5 13.5t-14.5 32.5z" />
    <glyph glyph-name="ring" unicode="&#x2da;" horiz-adv-x="649" 
d="M166 1259q0 -67 45 -113t112 -46t113.5 46t46.5 113t-47.5 113.5t-113.5 46.5t-111 -46.5t-45 -113.5zM324 1458q86 0 144 -58.5t58 -142.5t-59.5 -140t-142.5 -56t-142 57t-59 140t57.5 141.5t143.5 58.5z" />
    <glyph glyph-name="ogonek" unicode="&#x2db;" horiz-adv-x="587" 
d="M190 -366q-67 44 -67 147q0 102 101.5 173t230.5 71v-25q-104 0 -189.5 -60.5t-85.5 -144.5t54 -119.5t114 -35.5q59 0 98 18l19 -39q-56 -29 -132 -29t-143 44z" />
    <glyph glyph-name="tilde" unicode="&#x2dc;" horiz-adv-x="839" 
d="M530 1178q-35 0 -60.5 15t-51 32.5t-52 33t-61.5 15.5q-67 0 -155 -74l-27 31q105 94 190 94q52 0 117 -49t118 -49t144 84l25 -33q-104 -100 -187 -100z" />
    <glyph glyph-name="hungarumlaut" unicode="&#x2dd;" horiz-adv-x="808" 
d="M160 1130l-37 25l221 299l41 -31zM455 1130l-37 25l227 297l41 -35z" />
    <glyph glyph-name="gravecomb" unicode="&#x300;" horiz-adv-x="0" 
d="M-756 1419l43 35l224 -299l-37 -25z" />
    <glyph glyph-name="acutecomb" unicode="&#x301;" horiz-adv-x="0" 
d="M-582 1130l-36 25l223 299l43 -35z" />
    <glyph glyph-name="Delta" unicode="&#x394;" horiz-adv-x="1441" 
d="M166 57h1108l-561 1286zM696 1450h33l635 -1450h-1288z" />
    <glyph glyph-name="Delta" unicode="&#x2206;" horiz-adv-x="1441" 
d="M166 57h1108l-561 1286zM696 1450h33l635 -1450h-1288z" />
    <glyph glyph-name="Omega" unicode="&#x3a9;" horiz-adv-x="1652" 
d="M184 57h383q-200 69 -323 251t-123 419q0 156 54 289t149.5 229t224.5 151.5t278.5 55.5t278.5 -55.5t223 -151.5t148.5 -228.5t54.5 -272.5q0 -257 -126 -438.5t-323 -248.5h385v-57h-503v57q225 51 364 235t139 429q0 285 -182.5 478.5t-457.5 193.5t-459.5 -193.5
t-184.5 -480.5q0 -241 138 -426t364 -236v-57h-502v57z" />
    <glyph glyph-name="Omega" unicode="&#x2126;" horiz-adv-x="1652" 
d="M184 57h383q-200 69 -323 251t-123 419q0 156 54 289t149.5 229t224.5 151.5t278.5 55.5t278.5 -55.5t223 -151.5t148.5 -228.5t54.5 -272.5q0 -257 -126 -438.5t-323 -248.5h385v-57h-503v57q225 51 364 235t139 429q0 285 -182.5 478.5t-457.5 193.5t-459.5 -193.5
t-184.5 -480.5q0 -241 138 -426t364 -236v-57h-502v57z" />
    <glyph glyph-name="pi" unicode="&#x3c0;" horiz-adv-x="1325" 
d="M932 197v669h-541v-172q0 -575 -120.5 -636.5t-190.5 -61.5l-4 57q126 0 192 137t66 484v192h-223v56h1101v-56h-223v-628q0 -102 21.5 -146.5t89.5 -44.5t129 47l18 -47q-69 -55 -157 -55q-87 0 -122.5 48t-35.5 157z" />
    <glyph glyph-name="afii10023" unicode="&#x401;" horiz-adv-x="1177" 
d="M238 1434h778v-58h-717v-618h655v-58h-655v-643h737v-57h-798v1434zM872 1585q-49 0 -49 45q1 20 15 32t32 11q18 0 32 -11t16 -33q0 -22 -14 -33t-32 -11zM440 1630q0 -45 -48 -45t-48 45q0 20 14 32t34 11q20 0 34 -11t14 -32z" />
    <glyph glyph-name="afii10051" unicode="&#x402;" horiz-adv-x="1552" 
d="M1374 421q0 204 -95 296t-267 92t-259 -56.5t-118 -74.5v-678h-60v1376h-555v58h1170v-58h-555v-641q104 67 180 99t184 32q211 0 324 -105t113 -337q0 -231 -91.5 -336.5t-246.5 -105.5q-59 0 -109.5 22.5t-66.5 36.5l24 47q65 -47 148 -47q125 0 202.5 88t77.5 292z
" />
    <glyph glyph-name="afii10052" unicode="&#x403;" horiz-adv-x="1026" 
d="M238 1434h784v-58h-723v-1376h-61v1434zM565 1516l-18 36l338 193l22 -47z" />
    <glyph glyph-name="afii10053" unicode="&#x404;" horiz-adv-x="1396" 
d="M981 760v-58h-803q4 -296 190.5 -478.5t483.5 -182.5q225 0 422 139l29 -49q-205 -149 -457 -149q-327 0 -528 203t-201 530t198 532t519 205q119 0 237.5 -34t200.5 -105l-31 -43q-160 123 -399 123q-288 0 -470 -178t-194 -455h803z" />
    <glyph glyph-name="afii10054" unicode="&#x405;" horiz-adv-x="1112" 
d="M563 1393q-160 0 -252 -79t-92 -208q0 -205 246 -300q71 -28 143 -54q190 -69 254 -124q134 -113 133 -279t-128 -268q-128 -101 -322 -100t-354 119q-48 37 -74 84l39 41q69 -90 174 -137t196 -47q273 0 373 172q33 57 33 153t-58 162q-96 111 -329 187
q-234 76 -332 198q-57 72 -57 207t108 234q108 98 301 98q117 0 217 -40t160 -105l-35 -43q-129 129 -344 129z" />
    <glyph glyph-name="afii10055" unicode="&#x406;" horiz-adv-x="647" 
d="M293 1434h61v-1434h-61v1434z" />
    <glyph glyph-name="afii10056" unicode="&#x407;" horiz-adv-x="647" 
d="M293 1434h61v-1434h-61v1434zM424 1629q0 19 13.5 31.5t30.5 12.5t30.5 -11.5t13.5 -31.5t-13.5 -32.5t-30.5 -12.5t-30.5 12.5t-13.5 31.5zM137 1629q0 19 14.5 31.5t31.5 12.5t29.5 -11.5t12.5 -31.5t-11.5 -32.5t-29.5 -12.5t-32.5 12.5t-14.5 31.5z" />
    <glyph glyph-name="afii10057" unicode="&#x408;" horiz-adv-x="716" 
d="M418 313v1121h59v-1127q0 -158 -59 -242q-59 -85 -205 -83q-104 0 -178 59l24 47q65 -47 141 -47q130 0 179 80q39 63 39 192z" />
    <glyph glyph-name="afii10058" unicode="&#x409;" horiz-adv-x="2131" 
d="M1952 427q0 179 -118.5 272.5t-354.5 93.5q-121 0 -238 -13v-723l229 -4q236 0 359 97.5t123 276.5zM1479 850q534 0 534 -426q0 -207 -148.5 -317.5t-402.5 -110.5l-282 4v1376h-672l-23 -270q-81 -1031 -235 -1069.5t-191 -36.5v59q66 0 188.5 117.5t182.5 970.5
l21 287h790v-594q120 10 238 10z" />
    <glyph glyph-name="afii10059" unicode="&#x40a;" horiz-adv-x="2215" 
d="M1563 770q-132 0 -240 -12v-701l231 -4q480 0 480 375q0 166 -118 254t-353 88zM1563 827q534 -1 534 -415q0 -204 -148.5 -310t-402.5 -106l-231 4h-51v756h-965v-756h-61v1434h61v-621h965v621h59v-619q147 12 240 12z" />
    <glyph glyph-name="afii10060" unicode="&#x40b;" horiz-adv-x="1552" 
d="M20 1434h1170v-58h-555v-643q57 45 158 89t215 44q428 0 428 -458v-408h-60v399q0 209 -93 309.5t-263 100.5t-262 -57.5t-123 -75.5v-676h-60v1376h-555v58z" />
    <glyph glyph-name="afii10061" unicode="&#x40c;" horiz-adv-x="1277" 
d="M238 1434h61v-1434h-61v1434zM477 752l729 -752h-88l-725 748l705 686h84zM582 1516l-19 36l338 193l23 -47z" />
    <glyph glyph-name="afii10062" unicode="&#x40e;" horiz-adv-x="1310" 
d="M444 55q52 -1 84 17q87 48 154 194l31 62l-674 1106h67l635 -1047l469 1047h62l-504 -1115q-74 -167 -144 -243t-162 -76q-93 0 -147 43l21 51q56 -39 108 -39zM677 1575q99 0 177 44t104 112h58q-23 -87 -122 -145t-220 -58t-213 58t-127 145h57q41 -66 114 -111
t172 -45z" />
    <glyph glyph-name="afii10145" unicode="&#x40f;" horiz-adv-x="1558" 
d="M238 1434h61v-1377h961v1377h61v-1434h-514v-326h-57v326h-512v1434z" />
    <glyph glyph-name="afii10017" unicode="&#x410;" horiz-adv-x="1413" 
d="M371 590h667l-333 768zM684 1448h45l631 -1448h-66l-231 532h-717l-229 -532h-64z" />
    <glyph glyph-name="afii10018" unicode="&#x411;" horiz-adv-x="1245" 
d="M1026 420q0 174 -115.5 268t-351.5 94q-152 0 -260 -12v-713l250 -4q236 0 356.5 96.5t120.5 270.5zM238 1434h772v-58h-711v-549q156 13 260 13q268 0 398 -108.5t130 -313.5t-147 -313.5t-399 -108.5l-303 4v1434z" />
    <glyph glyph-name="afii10019" unicode="&#x412;" horiz-adv-x="1263" 
d="M299 764h319q158 0 262 86q105 86 105 230q0 300 -389 300h-79l-218 -4v-612zM606 709h-307v-652l139 -2l164 -2q207 0 325 84q117 83 117 245t-112 245q-113 82 -326 82zM600 1438q447 0 447 -354q0 -139 -89 -228t-219 -111v-4q175 -16 271 -105t96 -243
q0 -200 -140 -300q-140 -99 -364 -97l-194 2l-170 2v1434l168 2z" />
    <glyph glyph-name="afii10020" unicode="&#x413;" horiz-adv-x="1026" 
d="M238 1434h784v-58h-723v-1376h-61v1434z" />
    <glyph glyph-name="afii10021" unicode="&#x414;" horiz-adv-x="1511" 
d="M1180 57v1319h-656l-18 -266q-28 -448 -104.5 -711.5t-141.5 -341.5h920zM39 57h154q124 156 182.5 493t73.5 597l16 287h774v-1377h195v-338h-58v281h-1280v-281h-57v338z" />
    <glyph glyph-name="afii10022" unicode="&#x415;" horiz-adv-x="1177" 
d="M238 1434h778v-58h-717v-618h655v-58h-655v-643h737v-57h-798v1434z" />
    <glyph glyph-name="afii10024" unicode="&#x416;" horiz-adv-x="1851" 
d="M94 1434h80l629 -686l-651 -748h-80l655 748zM895 1434h61v-1434h-61v1434zM1124 750l658 -750h-82l-651 748l628 686h82z" />
    <glyph glyph-name="afii10025" unicode="&#x417;" horiz-adv-x="1165" 
d="M554 -18q-148 0 -274.5 58.5t-183.5 143.5l37 37q68 -79 222 -148t327.5 -12.5t218.5 159t45 186.5q0 139 -89 219t-236 80h-191v57h176q108 0 196.5 95t88.5 236q0 142 -93.5 221t-234.5 79t-229 -45t-160 -121l-37 35q72 92 181.5 141t234.5 49q182 0 289.5 -95
t107.5 -265t-86 -248t-141 -101v-6q128 -11 205.5 -110t77.5 -211q0 -113 -36 -192t-99.5 -132t-150 -81.5t-166.5 -28.5z" />
    <glyph glyph-name="afii10026" unicode="&#x418;" horiz-adv-x="1636" 
d="M238 0v1434h61v-1338l1044 1338h56v-1434h-62v1335l-1044 -1335h-55z" />
    <glyph glyph-name="afii10027" unicode="&#x419;" horiz-adv-x="1636" 
d="M238 0v1434h61v-1338l1044 1338h56v-1434h-62v1335l-1044 -1335h-55zM814 1575q99 0 177 44t105 112h57q-23 -87 -122 -145t-220 -58t-213 58t-127 145h57q41 -66 114 -111t172 -45z" />
    <glyph glyph-name="afii10028" unicode="&#x41a;" horiz-adv-x="1277" 
d="M238 1434h61v-1434h-61v1434zM477 752l729 -752h-88l-725 748l705 686h84z" />
    <glyph glyph-name="afii10029" unicode="&#x41b;" horiz-adv-x="1478" 
d="M1180 1376h-672l-23 -270q-81 -1031 -235 -1069.5t-191 -36.5v59q66 0 188.5 117.5t182.5 970.5l21 287h790v-1434h-61v1376z" />
    <glyph glyph-name="afii10030" unicode="&#x41c;" horiz-adv-x="1796" 
d="M238 1434h63l608 -830l590 830h60v-1434h-60v1341l-588 -827h-10l-602 821v-1335h-61v1434z" />
    <glyph glyph-name="afii10031" unicode="&#x41d;" horiz-adv-x="1581" 
d="M1284 702h-985v-702h-61v1434h61v-674h985v674h59v-1434h-59v702z" />
    <glyph glyph-name="afii10032" unicode="&#x41e;" horiz-adv-x="1652" 
d="M180 717q0 -289 185 -482q185 -194 462 -194t460 194t183 484t-185 481t-460 193q-137 1 -255 -51q-240 -105 -341 -356q-49 -124 -49 -269zM117 716q0 314 204 524q95 100 224 156t279 56t281 -55q263 -111 375 -387q54 -135 54 -293q0 -316 -204 -524
q-95 -99 -225 -155t-280 -56t-279 55q-264 113 -374 387q-54 136 -55 292z" />
    <glyph glyph-name="afii10033" unicode="&#x41f;" horiz-adv-x="1579" 
d="M1280 1376h-981v-1376h-61v1434h1103v-1434h-61v1376z" />
    <glyph glyph-name="afii10034" unicode="&#x420;" horiz-adv-x="1177" 
d="M564 645q100 0 184 29q164 57 221 195q58 139 5 291q-79 220 -403 220h-62l-210 -4v-721q165 -10 265 -10zM576 588q-114 0 -277 10v-598h-61v1434l327 4q270 0 393 -134q101 -110 101 -290q0 -179 -116 -293q-61 -59 -157 -96t-210 -37z" />
    <glyph glyph-name="afii10035" unicode="&#x421;" horiz-adv-x="1345" 
d="M810 -18q-142 0 -272 52q-265 105 -369 380q-52 135 -52 296t49 295q99 272 358 390q128 57 274 57q278 0 443 -133l-31 -43q-149 117 -399 117q-141 -1 -258 -53t-200 -142q-173 -188 -173 -486t180 -484q180 -187 471 -187q243 0 410 143l27 -47q-76 -75 -196 -115
t-262 -40z" />
    <glyph glyph-name="afii10036" unicode="&#x422;" horiz-adv-x="1210" 
d="M20 1434h1170v-58h-555v-1376h-60v1376h-555v58z" />
    <glyph glyph-name="afii10037" unicode="&#x423;" horiz-adv-x="1310" 
d="M682 266l31 62l-674 1106h67l635 -1047l469 1047h62l-504 -1115q-74 -166 -143.5 -242.5t-162.5 -76.5t-147 43l21 51q57 -39 123 -39q125 0 223 211z" />
    <glyph glyph-name="afii10038" unicode="&#x424;" horiz-adv-x="1693" 
d="M336.5 359q176.5 -134 462.5 -134h16v1024h-12q-291 0 -467 -133.5t-176 -378.5q0 -244 176.5 -378zM874 1249v-1024h21q287 0 462 133t175 379t-173.5 379t-471.5 133h-13zM815 170h-18q-313 0 -507 149t-194 418.5t192.5 418.5t516.5 149h10v145h59v-145h11
q332 0 521 -150t189 -417t-192.5 -417.5t-507.5 -150.5h-21v-186h-59v186z" />
    <glyph glyph-name="afii10039" unicode="&#x425;" horiz-adv-x="1345" 
d="M713 729l561 -729h-74l-528 682l-527 -682h-73l563 729l-541 705h74l506 -658l508 658h73z" />
    <glyph glyph-name="afii10040" unicode="&#x426;" horiz-adv-x="1603" 
d="M238 1434h61v-1377h971v1377h61v-1377h195v-338h-58v281h-1230v1434z" />
    <glyph glyph-name="afii10041" unicode="&#x427;" horiz-adv-x="1277" 
d="M1040 0h-61v684q-109 -81 -236 -106t-205 -25q-180 0 -296.5 112.5t-116.5 346.5v422h61v-414q0 -207 102.5 -307.5t294.5 -100.5t396 131v691h61v-1434z" />
    <glyph glyph-name="afii10042" unicode="&#x428;" horiz-adv-x="2029" 
d="M238 1434h59v-1377h688v1377h59v-1377h689v1377h59v-1434h-1554v1434z" />
    <glyph glyph-name="afii10043" unicode="&#x429;" horiz-adv-x="2064" 
d="M238 1434h59v-1377h688v1377h59v-1377h689v1377h59v-1377h195v-338h-58v281h-1691v1434z" />
    <glyph glyph-name="afii10044" unicode="&#x42a;" horiz-adv-x="1359" 
d="M1178 427q0 179 -120 272.5t-356 93.5q-139 0 -256 -13v-723l248 -4q236 0 360 97.5t124 276.5zM385 1376h-383v58h444v-594q120 10 256 10q276 0 407.5 -110.5t131.5 -313.5t-146 -316.5t-409 -113.5l-301 4v1376z" />
    <glyph glyph-name="afii10045" unicode="&#x42b;" horiz-adv-x="1669" 
d="M537 850q534 0 534 -426q0 -207 -148.5 -317.5t-400.5 -110.5l-284 4v1434h61v-594q120 10 238 10zM1010 427q0 179 -118.5 272.5t-354.5 93.5q-121 0 -238 -13v-723l229 -4q236 0 359 97.5t123 276.5zM1372 1434h60v-1434h-60v1434z" />
    <glyph glyph-name="afii10046" unicode="&#x42c;" horiz-adv-x="1210" 
d="M555 850q274 0 405.5 -110.5t131.5 -313.5t-146.5 -316.5t-406.5 -113.5l-301 4v1434h61v-594q120 10 256 10zM1030 427q0 179 -119.5 272.5t-355.5 93.5q-139 0 -256 -13v-723l248 -4q236 0 359.5 97.5t123.5 276.5z" />
    <glyph glyph-name="afii10047" unicode="&#x42d;" horiz-adv-x="1398" 
d="M127 1313q159 139 459 139q142 0 273.5 -51t276 -197t144.5 -474t-197 -538t-514 -210q-270 0 -475 149l31 49q199 -139 440 -139q287 0 465.5 186.5t188.5 474.5h-803v58h803q-12 293 -192 463t-474 170q-236 0 -399 -123z" />
    <glyph glyph-name="afii10048" unicode="&#x42e;" horiz-adv-x="2199" 
d="M946.5 235.5q176.5 -194.5 450.5 -194.5q275 0 447.5 192.5t172.5 484.5t-176.5 483.5t-445.5 191.5q-135 0 -250 -51.5t-245 -192.5t-130 -430t176.5 -483.5zM238 1434h61v-674h410q16 301 207.5 496.5t476.5 195.5q150 0 276.5 -55.5t217.5 -153.5t142.5 -233.5
t51.5 -293t-51.5 -291.5t-142.5 -232.5t-218 -154.5t-275 -56q-295 0 -488 204.5t-197 515.5h-410v-702h-61v1434z" />
    <glyph glyph-name="afii10049" unicode="&#x42f;" horiz-adv-x="1245" 
d="M252 995q0 -131 98 -233.5t223 -118.5h375v733l-252 4q-219 0 -331.5 -108.5t-112.5 -276.5zM1008 0h-60v586h-362l-439 -586h-73l450 594q-133 30 -234.5 142t-101.5 259q0 195 134.5 319t384.5 124l301 -4v-1434z" />
    <glyph glyph-name="afii10065" unicode="&#x430;" horiz-adv-x="935" 
d="M380 45q139 1 212 49t133 125v184q-115 82 -274 82q-192 0 -268 -125q-26 -43 -25 -102q0 -102 68 -158q69 -55 154 -55zM782 575v-575h-57v160q-58 -78 -113 -110q-103 -60 -231 -60q-127 0 -206 72t-79 198q0 127 97 200t262 74t270 -75q0 96 -6 175t-33 134
q-57 117 -242 117q-78 1 -135 -19t-123 -59l-18 49q138 86 298 85t238 -93t78 -273z" />
    <glyph glyph-name="afii10066" unicode="&#x431;" horiz-adv-x="1142" 
d="M977 457q0 181 -107 294t-282 113t-287 -99.5t-135 -227.5q0 -235 114 -367.5t289 -132.5t291.5 119.5t116.5 300.5zM610 920q86 0 169 -34t170 -127t87 -298t-131 -342t-336 -137t-335 149.5t-130 406.5t42 389t109 223t169 133t176 52.5t132.5 19.5t104.5 26.5t81 70.5
l32 -37q-37 -59 -85 -80.5t-110.5 -32t-138 -20.5t-162.5 -48q-159 -69 -220.5 -229t-71.5 -364h4q48 126 167 202.5t277 76.5z" />
    <glyph glyph-name="afii10067" unicode="&#x432;" horiz-adv-x="980" 
d="M764 688q0 184 -305 184q-88 0 -226 -6v-372h281q117 0 183.5 53t66.5 141zM803 254q0 190 -307 190h-263v-391l230 -4q340 0 340 205zM825 694q0 -76 -47 -138t-149 -77v-4q129 -16 182 -73.5t53 -153.5q0 -254 -401 -254l-289 6v922l283 6q184 0 276 -55.5t92 -178.5z
" />
    <glyph glyph-name="afii10068" unicode="&#x433;" horiz-adv-x="708" 
d="M174 922h533v-56h-474v-866h-59v922z" />
    <glyph glyph-name="afii10069" unicode="&#x434;" horiz-adv-x="1050" 
d="M801 55v811h-441l-14 -239q-15 -203 -59.5 -358t-91.5 -214h606zM20 55h113q85 106 117.5 288.5t40.5 303.5l14 275h553v-867h154v-295h-56v240h-880v-240h-56v295z" />
    <glyph glyph-name="afii10070" unicode="&#x435;" horiz-adv-x="1079" 
d="M915 512q0 175 -98 274t-266 99t-270 -102t-115 -271h749zM975 556q0 -64 -4 -93h-801q2 -199 116 -313t306 -113q98 0 179 36t132 91l23 -43q-60 -70 -152 -105q-189 -72 -374 -1q-186 70 -258 248q-36 89 -36 193t29 193q60 183 229 254q85 37 186 37t177 -30t131 -84
t86 -130t31 -140z" />
    <glyph glyph-name="afii10072" unicode="&#x436;" horiz-adv-x="1300" 
d="M72 922h73l385 -443l-405 -479h-72l412 479zM618 922h58v-922h-58v922zM829 479l416 -479h-71l-412 479l387 443h72z" />
    <glyph glyph-name="afii10073" unicode="&#x437;" horiz-adv-x="931" 
d="M457 940q156 0 236.5 -63.5t80.5 -174.5q0 -68 -39 -129t-131 -96v-4q104 -8 156.5 -72.5t52.5 -137.5q0 -133 -101.5 -207t-260.5 -74t-246.5 47t-110.5 75l31 46q80 -80 176 -96.5t129 -16.5q145 0 234.5 60.5t89.5 155.5t-65.5 143t-176.5 48h-156v50h146
q87 0 150 59.5t63 147.5q0 87 -72 135.5t-194 48.5q-174 0 -297 -109l-27 43q117 121 332 121z" />
    <glyph glyph-name="afii10074" unicode="&#x438;" horiz-adv-x="1148" 
d="M174 0v922h59v-838l685 838h57v-922h-57v838l-685 -838h-59z" />
    <glyph glyph-name="afii10075" unicode="&#x439;" horiz-adv-x="1148" 
d="M174 0v922h59v-838l685 838h57v-922h-57v838l-685 -838h-59zM373 1407q0 -82 58 -136q57 -54 153 -54t153 54t58 136h51q0 -102 -72 -170t-192 -69q-119 -1 -190 67t-70 172h51z" />
    <glyph glyph-name="afii10076" unicode="&#x43a;" horiz-adv-x="966" 
d="M174 922h59v-922h-59v922zM387 481l528 -481h-86l-520 479l490 443h82z" />
    <glyph glyph-name="afii10077" unicode="&#x43b;" horiz-adv-x="1071" 
d="M840 864h-445l-14 -241q-42 -627 -301 -627l-4 57q129 0 183 191.5t65 390.5l16 287h557v-922h-57v864z" />
    <glyph glyph-name="afii10078" unicode="&#x43c;" horiz-adv-x="1265" 
d="M174 922h57l410 -564l397 564h54v-922h-58v836l-393 -557h-6l-402 557v-836h-59v922z" />
    <glyph glyph-name="afii10079" unicode="&#x43d;" horiz-adv-x="1136" 
d="M903 442h-670v-442h-59v922h59v-424h670v424h60v-922h-60v442z" />
    <glyph glyph-name="afii10080" unicode="&#x43e;" horiz-adv-x="1165" 
d="M166 461q0 -185 117 -304q118 -120 299 -120t299 120t117 305t-118 304t-298 119t-299 -120q-117 -119 -117 -304zM926 804q133 -137 133 -344t-133 -343q-133 -137 -344 -136q-210 1 -343 138t-133 343t133 342t342 136t345 -136z" />
    <glyph glyph-name="afii10081" unicode="&#x43f;" horiz-adv-x="1126" 
d="M893 866h-660v-866h-59v922h778v-922h-59v866z" />
    <glyph glyph-name="afii10082" unicode="&#x440;" horiz-adv-x="1130" 
d="M233 135q138 -98 320 -98q183 0 298 121q114 121 114 310q0 190 -103 303q-103 114 -287 114q-99 0 -193 -44t-149 -112v-594zM233 -410h-59v1332h59v-136q85 104 252 143q51 11 128 11t159 -35t138 -96q116 -126 116 -336t-131 -352q-131 -141 -333 -140q-203 1 -329 93
v-484z" />
    <glyph glyph-name="afii10083" unicode="&#x441;" horiz-adv-x="1005" 
d="M881 780q-122 105 -299 105t-297 -122q-119 -122 -119 -306q0 -185 120 -303q120 -117 306 -117q94 0 175 37t132 96l29 -39q-58 -74 -150 -112q-185 -77 -384 -4q-177 68 -252 248q-36 89 -36 193q0 206 129 345t322 139q232 0 352 -113z" />
    <glyph glyph-name="afii10084" unicode="&#x442;" horiz-adv-x="886" 
d="M23 922h839v-58h-391v-864h-57v864h-391v58z" />
    <glyph glyph-name="afii10085" unicode="&#x443;" horiz-adv-x="966" 
d="M205 -356q79 0 143 70t131 237l21 49l-465 922h67l355 -707q39 -74 71 -149q31 87 60 153l278 703h66l-377 -922q-99 -240 -172 -324t-154 -85t-159 38l20 45q66 -30 115 -30z" />
    <glyph glyph-name="afii10086" unicode="&#x444;" horiz-adv-x="1343" 
d="M700 885v-848h35q205 0 324 117.5t119 297.5q0 179 -117.5 306t-317.5 127h-43zM286 155q120 -118 326 -118h31v848h-41q-197 0 -316.5 -121t-119.5 -306t120 -303zM643 -18h-37q-232 0 -366 134t-134 337t137.5 345t360.5 142h39v494h57v-494h43q216 0 356 -138
t140 -345t-134 -341t-362 -134h-43v-392h-57v392z" />
    <glyph glyph-name="afii10087" unicode="&#x445;" horiz-adv-x="993" 
d="M537 475l383 -475h-72l-352 434l-353 -434h-69l383 473l-363 449h72l330 -410l333 410h70z" />
    <glyph glyph-name="afii10088" unicode="&#x446;" horiz-adv-x="1140" 
d="M174 922h59v-867h658v867h57v-867h154v-295h-55v240h-873v922z" />
    <glyph glyph-name="afii10089" unicode="&#x447;" horiz-adv-x="960" 
d="M176 670q0 -287 275 -287q100 0 170.5 29.5t107.5 58.5v451h57v-922h-57v416q-117 -88 -295 -88q-319 0 -319 342v252h61v-252z" />
    <glyph glyph-name="afii10090" unicode="&#x448;" horiz-adv-x="1425" 
d="M174 922h57v-867h453v867h57v-867h453v867h57v-922h-1077v922z" />
    <glyph glyph-name="afii10091" unicode="&#x449;" horiz-adv-x="1443" 
d="M174 922h57v-867h453v867h57v-867h453v867h57v-867h154v-295h-55v240h-1176v922z" />
    <glyph glyph-name="afii10092" unicode="&#x44a;" horiz-adv-x="1007" 
d="M362 528v-473h177q176 0 244.5 63.5t68.5 174t-70.5 173t-240.5 62.5h-179zM913 177q0 -177 -374 -177h-234v866h-303v56h360v-338h187q291 0 327.5 -115t36.5 -292z" />
    <glyph glyph-name="afii10093" unicode="&#x44b;" horiz-adv-x="1234" 
d="M1004 922h57v-922h-57v922zM705 355q0 173 -314 173h-158v-473h156q176 0 246 63.5t70 236.5zM764 177q0 -177 -375 -177h-215v922h59v-338h166q290 0 327.5 -115t37.5 -292z" />
    <glyph glyph-name="afii10094" unicode="&#x44c;" horiz-adv-x="876" 
d="M233 528v-473h175q176 0 245.5 63.5t69.5 174t-70.5 173t-242.5 62.5h-177zM174 922h59v-338h185q291 0 327.5 -115t36.5 -212.5t-85.5 -177t-286.5 -79.5h-236v922z" />
    <glyph glyph-name="afii10095" unicode="&#x44d;" horiz-adv-x="1005" 
d="M442 37q162 0 277 113.5t123 293.5h-514v52h512q-12 179 -128.5 284t-293.5 105q-96 0 -177 -36t-135 -93l-26 41q59 72 152.5 107.5t191.5 35.5q206 0 340.5 -131t134.5 -341q0 -209 -129 -347.5t-321 -138.5q-238 0 -355 112l29 45q113 -102 319 -102z" />
    <glyph glyph-name="afii10096" unicode="&#x44e;" horiz-adv-x="1519" 
d="M671 157q110 -116 285 -116t284.5 117t109.5 302t-110 303t-284 118q-175 0 -285 -117.5t-110 -304t110 -302.5zM174 922h62v-422h262q12 195 138 317.5t324 122.5t325.5 -136t127.5 -344t-129 -343t-328 -135q-200 0 -327 129t-131 331h-262v-442h-62v922z" />
    <glyph glyph-name="afii10097" unicode="&#x44f;" horiz-adv-x="968" 
d="M225 640q0 -88 73 -149t151 -61h288v436h-215q-225 0 -261 -89t-36 -137zM795 922v-922h-58v375h-272l-297 -375h-74l312 387q-158 21 -199 111t-41 180t87 167t279 77h263z" />
    <glyph glyph-name="afii10071" unicode="&#x451;" horiz-adv-x="1079" 
d="M915 512q0 175 -98 274t-266 99t-270 -102t-115 -271h749zM975 556q0 -64 -4 -93h-801q2 -199 116 -313t306 -113q98 0 179 36t132 91l23 -43q-60 -70 -152 -105q-189 -72 -374 -1q-186 70 -258 248q-36 89 -36 193t29 193q60 183 229 254q85 37 186 37t177 -30t131 -84
t86 -130t31 -140zM719 1278q0 20 13 34q12 14 30 13q18 0 32 -13t13 -33q0 -20 -13 -32q-12 -12 -30 -12t-32 12q-13 11 -13 31zM287 1278q0 20 13 34q12 14 30 13q18 0 30 -13t12 -33t-12 -32t-29 -12t-31 12q-13 11 -13 31z" />
    <glyph glyph-name="afii10099" unicode="&#x452;" horiz-adv-x="1241" 
d="M2 1075h305v359h58v-359h436v-49h-436v-412q57 66 155 110t201 44q195 0 292 -99.5t97 -322.5t-94 -437t-283 -319h-69q203 119 295 322t92 410t-83 299t-257 92q-101 0 -199.5 -48t-146.5 -112v-553h-58v1026h-305v49z" />
    <glyph glyph-name="afii10100" unicode="&#x453;" horiz-adv-x="708" 
d="M174 922h533v-56h-474v-866h-59v922zM430 1130l-37 25l223 299l43 -35z" />
    <glyph glyph-name="afii10101" unicode="&#x454;" horiz-adv-x="1005" 
d="M911 94q-117 -112 -330 -112q-212 0 -343.5 133.5t-131.5 347.5t134.5 345.5t347.5 131.5q92 0 185 -36t153 -107l-27 -41q-53 57 -134 93t-173 36q-182 0 -299 -105t-129 -284h514v-52h-514q4 -186 122.5 -296.5t301.5 -110.5q182 0 297 102z" />
    <glyph glyph-name="afii10102" unicode="&#x455;" horiz-adv-x="837" 
d="M420 887q-102 0 -160 -52t-59 -124q0 -72 39 -113q65 -68 219 -111t223 -123q39 -46 39 -119q0 -131 -88 -197t-224 -66t-246 79q-32 23 -48 48l37 36q50 -69 189 -102q38 -8 79 -8t85 12q93 25 135 98q22 37 22 97q0 103 -136 159q-57 25 -125 44q-149 42 -221 130
q-39 49 -39 143t76 158q76 65 205 64q84 0 155 -29t109 -69l-29 -43q-84 88 -237 88z" />
    <glyph glyph-name="afii10103" unicode="&#x456;" horiz-adv-x="522" 
d="M231 922h58v-922h-58v922zM215 1287q0 19 14 33q13 14 31 13q18 0 32 -13q14 -12 13 -32q0 -20 -13 -34q-12 -14 -30 -13q-18 0 -33 13q-14 14 -14 33z" />
    <glyph glyph-name="afii10104" unicode="&#x457;" horiz-adv-x="534" 
d="M238 922h57v-922h-57v922zM350 1279q0 17 13.5 29.5t30 12.5t28.5 -12.5t12 -29.5t-12 -29.5t-28.5 -12.5t-30 12.5t-13.5 29.5zM104 1279q0 17 12.5 29.5t28.5 12.5t28.5 -12.5t12.5 -29.5t-12 -29.5t-28 -12.5t-29 12.5t-13 29.5z" />
    <glyph glyph-name="afii10105" unicode="&#x458;" horiz-adv-x="522" 
d="M236 922h57v-990q0 -170 -68 -264t-221 -94q-101 0 -174 53l20 47q67 -43 146 -45q129 0 184 79t56 226v988zM217 1287q0 19 14 33q13 14 31 13q18 0 32 -13q14 -12 13 -32q0 -20 -13 -34q-12 -14 -30 -13q-18 0 -33 13q-14 14 -14 33z" />
    <glyph glyph-name="afii10106" unicode="&#x459;" horiz-adv-x="1517" 
d="M897 528v-473h152q176 0 245.5 63.5t69.5 174t-71.5 173t-241.5 62.5h-154zM840 864h-445l-14 -241q-42 -627 -301 -627l-4 57q129 0 183 191.5t65 390.5l16 287h557v-338h162q291 0 327.5 -115t36.5 -212.5t-87.5 -177t-286.5 -79.5h-209v864z" />
    <glyph glyph-name="afii10107" unicode="&#x45a;" horiz-adv-x="1583" 
d="M963 494v-439h151q176 0 244.5 55.5t68.5 165.5t-70.5 164t-240.5 54h-153zM174 922h59v-390h670v390h60v-373h161q290 0 327.5 -106.5t37.5 -203t-87.5 -168t-287.5 -71.5h-211v477h-670v-477h-59v922z" />
    <glyph glyph-name="afii10108" unicode="&#x45b;" horiz-adv-x="1241" 
d="M2 1075h305v359h58v-359h436v-49h-436v-412q57 66 155 110t201 44q195 0 292 -100.5t97 -317.5v-350h-59v340q0 190 -83 281.5t-257 91.5q-101 0 -199.5 -48t-146.5 -112v-553h-58v1026h-305v49z" />
    <glyph glyph-name="afii10109" unicode="&#x45c;" horiz-adv-x="966" 
d="M174 922h59v-922h-59v922zM387 481l528 -481h-86l-520 479l490 443h82zM465 1130l-37 25l223 299l43 -35z" />
    <glyph glyph-name="afii10110" unicode="&#x45e;" horiz-adv-x="966" 
d="M205 -356q79 0 143 70t131 237l21 49l-465 922h67l355 -707q39 -74 71 -149q31 87 60 153l278 703h66l-377 -922q-99 -240 -172 -324t-154 -85t-159 38l20 45q66 -30 115 -30zM285 1407q0 -82 58 -136q57 -54 153 -54t153 54t58 136h51q0 -102 -72 -170t-192 -69
q-119 -1 -190 67t-71 172h52z" />
    <glyph glyph-name="afii10193" unicode="&#x45f;" horiz-adv-x="1105" 
d="M174 922h59v-867h639v867h60v-922h-352v-279h-54v279h-352v922z" />
    <glyph glyph-name="afii10146" unicode="&#x462;" horiz-adv-x="1282" 
d="M1100 434q0 168 -118.5 258t-354.5 90q-151 0 -258 -12v-713l247 -4q484 0 484 381zM309 1110h-303v57h303v267h60v-267h354v-57h-354v-283q160 13 258 13q274 0 405 -108.5t131 -309.5t-144.5 -313.5t-408.5 -112.5l-301 4v1110z" />
    <glyph glyph-name="afii10194" unicode="&#x463;" horiz-adv-x="1005" 
d="M362 514v-459h183q242 0 274.5 88t32.5 142q0 106 -68.5 167.5t-236.5 61.5h-185zM911 172q0 -172 -372 -172h-234v866h-303v56h303v512h57v-512h345v-56h-345v-297h185q291 0 327.5 -112.5t36.5 -284.5z" />
    <glyph glyph-name="afii10147" unicode="&#x472;" horiz-adv-x="1652" 
d="M538 844q100 0 170 -30t135.5 -64.5t133 -64.5t136.5 -30q109 0 206.5 45.5t146.5 92.5q-24 259 -205 429.5t-445 170.5t-450 -192.5t-186 -483.5v-17q68 55 163 99.5t195 44.5zM345.5 740q-99.5 -48 -161.5 -107q28 -258 208 -425t446 -167t449 194.5t183 481.5
q0 4 -1 7t-1 7q-63 -49 -153.5 -90t-184.5 -41t-163.5 29.5t-134 64.5t-133 64.5t-161.5 29.5t-192.5 -48zM117 716q0 313 204 524.5t504 211.5q150 0 280 -55.5t225 -153.5t149.5 -233.5t54.5 -293t-54.5 -291.5t-149.5 -232.5t-225 -154.5t-279.5 -56t-279.5 55
t-225.5 153.5t-149.5 233.5t-54 292z" />
    <glyph glyph-name="afii10195" unicode="&#x473;" horiz-adv-x="1165" 
d="M371 567q61 0 118.5 -24.5t111.5 -53t108.5 -53t111.5 -24.5q96 0 176 69q-8 182 -124.5 293t-289.5 111t-289 -109.5t-128 -283.5q97 75 205 75zM832 356q-78 0 -134.5 25t-111 53.5t-108.5 53t-111 24.5q-106 0 -201 -84q12 -174 126 -282.5t288 -108.5t288.5 106.5
t126.5 276.5q-85 -64 -163 -64zM106 460.5q0 104.5 35 191.5t98.5 151.5t150.5 100.5t191.5 36t192.5 -36t151.5 -100.5t98.5 -151.5t35 -191.5t-35 -191.5t-98.5 -151.5t-151.5 -100t-192.5 -35.5t-191.5 35.5t-150.5 100t-98.5 151.5t-35 191.5z" />
    <glyph glyph-name="afii10148" unicode="&#x474;" horiz-adv-x="1341" 
d="M698 -14h-39l-626 1448h65l582 -1348l356 1022q80 233 141.5 283.5t105.5 51.5t99 -16l-12 -55q-102 38 -159 -32t-136 -293z" />
    <glyph glyph-name="afii10196" unicode="&#x475;" horiz-adv-x="972" 
d="M522 -14h-37l-452 936h67l316 -652q25 -47 45 -94t43 -96q20 51 37.5 99t36.5 100l159 409q66 176 124.5 220t152.5 7l-15 -53q-69 37 -113.5 -14.5t-105.5 -196.5z" />
    <glyph glyph-name="afii10050" unicode="&#x490;" horiz-adv-x="1026" 
d="M238 1434h725v278h59v-336h-723v-1376h-61v1434z" />
    <glyph glyph-name="afii10098" unicode="&#x491;" horiz-adv-x="708" 
d="M174 922h477v237h56v-293h-474v-866h-59v922z" />
    <glyph glyph-name="Germandbls" unicode="&#x1e9e;" horiz-adv-x="1228" 
d="M299 1038v-1044h-61v1057q0 197 108.5 299t283.5 102t318 -121l-286 -420q203 -147 324.5 -289t121.5 -297t-98 -249t-219 -94q-120 0 -185 37.5t-117 84.5l35 43q47 -41 101.5 -73.5t124.5 -32.5q126 0 210 78.5t84 202.5q0 210 -184 357.5t-272 215.5l280 420
q-100 78 -241 78q-228 0 -278 -130t-50 -225z" />
    <glyph glyph-name="uni2010" unicode="&#x2010;" horiz-adv-x="833" 
d="M190 582h453v-56h-453v56z" />
    <glyph glyph-name="uni2011" unicode="&#x2011;" horiz-adv-x="833" 
d="M190 582h453v-56h-453v56z" />
    <glyph glyph-name="figuredash" unicode="&#x2012;" horiz-adv-x="1202" 
d="M199 752h802v-54h-802v54z" />
    <glyph glyph-name="endash" unicode="&#x2013;" horiz-adv-x="1202" 
d="M199 580h802v-54h-802v54z" />
    <glyph glyph-name="emdash" unicode="&#x2014;" horiz-adv-x="1615" 
d="M199 580h1218v-54h-1218v54z" />
    <glyph glyph-name="afii00208" unicode="&#x2015;" horiz-adv-x="1615" 
d="M199 580h1218v-54h-1218v54z" />
    <glyph glyph-name="quoteleft" unicode="&#x2018;" horiz-adv-x="485" 
d="M186 1241q0 165 133 232l25 -31q-102 -58 -102 -195q0 -76 39 -112l-48 -33q-47 53 -47 139z" />
    <glyph glyph-name="quoteright" unicode="&#x2019;" horiz-adv-x="485" 
d="M299 1334q0 -162 -133 -234l-25 30q103 61 103 197q0 70 -41 111l49 35q47 -52 47 -139z" />
    <glyph glyph-name="quotesinglbase" unicode="&#x201a;" horiz-adv-x="485" 
d="M299 -28q0 -162 -133 -234l-25 31q103 61 103 196q0 67 -41 111l49 35q47 -52 47 -139z" />
    <glyph glyph-name="quotedblleft" unicode="&#x201c;" horiz-adv-x="729" 
d="M430 1241q0 163 133 232l25 -31q-103 -59 -103 -195q0 -73 39 -112l-47 -33q-47 53 -47 139zM242 1247q0 -76 39 -112l-48 -33q-45 50 -46 138q-2 163 132 233l25 -31q-104 -59 -102 -195z" />
    <glyph glyph-name="quotedblright" unicode="&#x201d;" horiz-adv-x="729" 
d="M487 1327q0 73 -41 111l50 35q45 -50 46 -138q2 -163 -132 -235l-25 30q104 62 102 197zM299 1334q0 -162 -133 -234l-25 30q103 61 103 197q0 70 -41 111l49 35q47 -52 47 -139z" />
    <glyph glyph-name="quotedblbase" unicode="&#x201e;" horiz-adv-x="729" 
d="M487 -35q0 73 -41 111l50 35q45 -50 46 -138q2 -163 -132 -235l-25 31q104 62 102 196zM299 -28q0 -162 -133 -234l-25 31q103 61 103 196q0 70 -41 111l49 35q47 -52 47 -139z" />
    <glyph glyph-name="dagger" unicode="&#x2020;" horiz-adv-x="841" 
d="M82 938h311v496h56v-496h311v-53h-311v-1090h-56v1090h-311v53z" />
    <glyph glyph-name="daggerdbl" unicode="&#x2021;" horiz-adv-x="841" 
d="M82 938h311v496h56v-496h311v-53h-311v-479h311v-54h-311v-557h-56v557h-311v54h311v479h-311v53z" />
    <glyph glyph-name="bullet" unicode="&#x2022;" horiz-adv-x="303" 
d="M76 534.5q0 30.5 22.5 53t53 22.5t53 -22.5t22.5 -53t-22.5 -53t-53 -22.5t-53 22.5t-22.5 53z" />
    <glyph glyph-name="ellipsis" unicode="&#x2026;" horiz-adv-x="1703" 
d="M1466 -2q-21 0 -35 16t-14 33q1 19 15 33t34 14t35 -14q33 -32 1 -66q-14 -16 -36 -16zM803 47q0 19 14 33q15 14 35 14t34 -14t15 -32q0 -18 -14 -34t-35 -16t-35 16t-14 33zM238 -2q-20 0 -36 16q-14 16 -14 33q0 19 14 33t36 14q20 0 34 -14t14 -32t-14 -34t-34 -16z
" />
    <glyph glyph-name="perthousand" unicode="&#x2030;" horiz-adv-x="2525" 
d="M1800 323q0 -116 81 -194t195 -79t197 77q82 78 81 195q-1 118 -83 193t-193 76q-112 1 -195 -75q-83 -77 -83 -193zM1840 90q-95 92 -95 230t94 230q94 91 236 91q143 0 239 -92t95 -229t-95 -229q-94 -91 -235 -91q-143 0 -239 90zM1374 1452l35 -27l-1077 -1443
l-37 28zM172 1120q0 -116 82 -195t197 -79q114 0 194 77t80 194t-82 194q-82 76 -193 77q-112 1 -195 -75q-83 -77 -83 -193zM117 1116q0 138 94 230t236 92q143 0 239 -92t95 -229t-96 -230q-95 -92 -238 -91t-236 92q-94 91 -94 228zM969 322q0 -117 81 -194t195 -78
t196 76q81 77 81 194t-82 194q-82 76 -193 77q-112 1 -195 -75q-83 -77 -83 -194zM1482 551q95 -93 95 -229q0 -137 -94 -229t-236 -93q-143 0 -239 92q-95 92 -95 228q0 137 94 229t236 92q143 0 239 -90z" />
    <glyph glyph-name="guilsinglleft" unicode="&#x2039;" horiz-adv-x="665" 
d="M115 508v8l360 416l39 -35l-334 -385l330 -387l-37 -37z" />
    <glyph glyph-name="guilsinglright" unicode="&#x203a;" horiz-adv-x="665" 
d="M193 88l-39 37l329 387l-333 385l38 35l361 -416v-8z" />
    <glyph glyph-name="fraction" unicode="&#x2044;" horiz-adv-x="376" 
d="M711 1452l34 -27l-1077 -1443l-37 28z" />
    <glyph glyph-name="zerosuperior" unicode="&#x2070;" horiz-adv-x="743" 
d="M152 1075q0 -143 57 -231t168 -88t163 88t52 231t-55 231t-165 89q-110 -1 -165 -89t-55 -231zM96 1075q0 254 157 339q52 28 120 28t120 -29q154 -86 154 -337q0 -252 -153 -339q-51 -29 -120 -29t-121 28q-104 55 -139 194q-18 67 -18 145z" />
    <glyph glyph-name="foursuperior" unicode="&#x2074;" horiz-adv-x="661" 
d="M440 907h-401v33l387 494h51l-377 -482h340v226h49v-226h132v-45h-132v-190h-49v190z" />
    <glyph glyph-name="fivesuperior" unicode="&#x2075;" horiz-adv-x="659" 
d="M305 1153q123 0 197 -58t74 -158t-74 -164t-168 -64q-198 0 -268 116l30 31q70 -106 230 -104q75 0 135 52q59 52 59 129t-63 127t-174 50q-60 0 -129 -16l51 340h373v-45h-336l-39 -250q63 14 102 14z" />
    <glyph glyph-name="sixsuperior" unicode="&#x2076;" horiz-adv-x="735" 
d="M539 1062q-53 54 -152 54t-160 -47q-62 -47 -75 -100q0 -90 61 -154q61 -63 161 -63q99 0 158 53q58 53 59 128t-52 129zM96 996q0 76 38 158q75 159 236 240q77 38 156 48l13 -37q-143 -22 -252 -123q-110 -101 -133 -256q25 53 86 92q60 39 166 39t174 -62t68 -159
t-77 -162q-76 -65 -166 -65q-154 0 -232 74q-77 74 -77 213z" />
    <glyph glyph-name="sevensuperior" unicode="&#x2077;" horiz-adv-x="591" 
d="M47 1434h498v-31l-336 -686h-57l329 669h-434v48z" />
    <glyph glyph-name="eightsuperior" unicode="&#x2078;" horiz-adv-x="749" 
d="M377 709q-55 0 -105 13q-172 45 -172 189q0 55 47 105t134 67v4q-66 17 -108 65t-42 105q0 85 71 135t172 50t174 -50q71 -50 73 -135q0 -53 -40 -100t-114 -70v-2q82 -10 133 -59q51 -48 51 -108q0 -150 -170 -196q-49 -13 -104 -13zM360 1065q-85 0 -146 -44
q-62 -44 -62 -111q0 -68 65 -113t158 -45q94 0 155 43q68 44 68 116t-60 113t-143 41h-35zM397 1106q68 0 119 42t51 90t-16 76q-49 85 -195 85q-55 0 -113 -38q-59 -38 -59 -104t54 -108q54 -43 116 -43h43z" />
    <glyph glyph-name="ninesuperior" unicode="&#x2079;" horiz-adv-x="735" 
d="M369 1032q119 0 188 95q19 26 27 51q0 94 -61 157t-179 64q-82 0 -142 -53q-59 -53 -60 -128q0 -74 54 -130t173 -56zM639 1150q0 -76 -34 -160q-34 -83 -94 -143q-126 -126 -321 -138l-6 36q170 20 282 128t116 251q-27 -53 -87 -93t-167 -40q-106 1 -174 63t-68 158
t75 162t166 67t146 -21q166 -66 166 -270z" />
    <glyph glyph-name="uni207A" unicode="&#x207a;" horiz-adv-x="737" 
d="M100 1108h244v244h45v-244h248v-45h-248v-246h-45v246h-244v45z" />
    <glyph glyph-name="uni207B" unicode="&#x207b;" horiz-adv-x="737" 
d="M100 1108h537v-45h-537v45z" />
    <glyph glyph-name="uni207C" unicode="&#x207c;" horiz-adv-x="737" 
d="M100 979h537v-45h-537v45zM100 1237h537v-45h-537v45z" />
    <glyph glyph-name="uni207D" unicode="&#x207d;" horiz-adv-x="368" 
d="M115 1071q0 -115 55 -225t178 -187l-33 -30q-126 70 -189 189t-64 243q-3 276 255 450l29 -30q-231 -158 -231 -410z" />
    <glyph glyph-name="uni207E" unicode="&#x207e;" horiz-adv-x="368" 
d="M254 1069q0 115 -56 225t-178 187l33 30q129 -75 191 -193q63 -117 63 -239q0 -278 -256 -450l-28 30q231 158 231 410z" />
    <glyph glyph-name="zeroinferior" unicode="&#x2080;" horiz-adv-x="743" 
d="M152 358.5q0 -143.5 57 -231.5t168 -88t163 88t52 231.5t-55 231.5t-165 88t-165 -88t-55 -231.5zM576.5 95q-70.5 -103 -203.5 -103t-205 101t-72 265t72 265.5t205 101.5t203.5 -104t70.5 -263.5t-70.5 -262.5z" />
    <glyph glyph-name="oneinferior" unicode="&#x2081;" horiz-adv-x="466" 
d="M291 723v-723h-51v655l-152 -100l-22 39l190 129h35z" />
    <glyph glyph-name="twoinferior" unicode="&#x2082;" horiz-adv-x="675" 
d="M510 514q0 68 -42 116t-142 48t-138 -51.5t-45 -87.5l-45 14q11 79 81.5 125.5t142.5 46.5q123 0 183 -59t60 -143q0 -85 -51 -160.5t-119.5 -138t-136.5 -109.5t-98 -68h446v-47h-520v41q51 37 124 90t139.5 115.5t113.5 131t47 136.5z" />
    <glyph glyph-name="threeinferior" unicode="&#x2083;" horiz-adv-x="686" 
d="M109 150q54 -113 233 -113q80 0 135 46t55 114t-54 107.5t-132 39.5h-78v43h70q101 0 132.5 59.5t31.5 92.5q0 72 -50.5 106.5t-127.5 34.5q-142 0 -197 -107l-31 29q54 123 244 123q96 0 156.5 -46t60.5 -132q0 -55 -37 -104.5t-106 -69.5v-2q84 -10 129 -61.5
t45 -114.5q0 -94 -75 -148.5t-169 -54.5q-207 0 -270 131z" />
    <glyph glyph-name="fourinferior" unicode="&#x2084;" horiz-adv-x="661" 
d="M440 190h-401v33l387 494h51l-377 -481h340v225h49v-225h132v-46h-132v-190h-49v190z" />
    <glyph glyph-name="fiveinferior" unicode="&#x2085;" horiz-adv-x="659" 
d="M96 139q68 -104 230 -104q74 0 134 52t60 129t-63.5 127t-173.5 50q-60 0 -129 -16l51 340h373v-45h-336l-39 -250q63 14 102 14q123 0 196.5 -58.5t73.5 -158.5t-74 -163.5t-168 -63.5q-197 0 -267 117z" />
    <glyph glyph-name="sixinferior" unicode="&#x2086;" horiz-adv-x="735" 
d="M380 35q93 0 152.5 54t59.5 128t-53.5 128t-172.5 54t-163.5 -61t-50.5 -86q0 -144 89 -180.5t139 -36.5zM96 280q0 76 38 157t131 174t261 114l13 -37q-143 -22 -252.5 -123.5t-132.5 -255.5q25 53 85.5 92t166.5 39t173.5 -62.5t67.5 -158.5t-76.5 -161.5t-165.5 -65.5
q-90 0 -145 21.5t-92 57t-54.5 84.5t-17.5 125z" />
    <glyph glyph-name="seveninferior" unicode="&#x2087;" horiz-adv-x="591" 
d="M47 717h498v-31l-336 -686h-57l329 670h-434v47z" />
    <glyph glyph-name="eightinferior" unicode="&#x2088;" horiz-adv-x="749" 
d="M377 -8q-113 0 -195 52.5t-82 141.5q0 63 47.5 113.5t133.5 67.5v4q-66 16 -108 64t-42 106q0 86 70.5 135t171.5 49t174.5 -50.5t73.5 -133.5q0 -53 -40 -100.5t-114 -69.5v-2q82 -10 133 -59.5t51 -109.5t-22.5 -96t-80.5 -74t-171 -38zM360 348q-84 0 -146 -44
t-62 -111q0 -68 65 -113t185 -45t158 61.5t38 98.5q0 72 -60.5 112.5t-142.5 40.5h-35zM397 389q64 0 117 43t53 91q0 81 -59 120t-133 39t-132.5 -38t-58.5 -103t53 -108.5t117 -43.5h43z" />
    <glyph glyph-name="nineinferior" unicode="&#x2089;" horiz-adv-x="735" 
d="M354 682q-93 0 -153 -53.5t-60 -128.5q0 -74 54.5 -129.5t173.5 -55.5t163 60.5t52 85.5q0 148 -89 184.5t-141 36.5zM639 434q0 -76 -34 -160t-127 -177t-288 -105l-6 37q172 20 283 128t115 251q-27 -53 -87.5 -93.5t-166.5 -40.5t-174 62.5t-68 158.5t76.5 163
t166.5 67q89 0 144 -21.5t92 -58.5t55.5 -86t18.5 -125z" />
    <glyph glyph-name="plussub" unicode="&#x208a;" horiz-adv-x="737" 
d="M100 391h244v244h45v-244h248v-45h-248v-246h-45v246h-244v45z" />
    <glyph glyph-name="uni208B" unicode="&#x208b;" horiz-adv-x="737" 
d="M100 391h537v-45h-537v45z" />
    <glyph glyph-name="uni208C" unicode="&#x208c;" horiz-adv-x="737" 
d="M100 264h537v-45h-537v45zM100 520h537v-45h-537v45z" />
    <glyph glyph-name="uni208D" unicode="&#x208d;" horiz-adv-x="368" 
d="M115 354q0 -115 55 -225.5t178 -185.5l-33 -31q-125 70 -189.5 191.5t-64.5 242.5q0 274 256 449l29 -31q-231 -158 -231 -410z" />
    <glyph glyph-name="uni208E" unicode="&#x208e;" horiz-adv-x="368" 
d="M254 352q0 115 -56.5 225.5t-177.5 186.5l33 31q129 -75 191.5 -193.5t62.5 -240.5q0 -276 -256 -449l-28 31q231 158 231 409z" />
    <glyph glyph-name="Euro" unicode="&#x20ac;" 
d="M256 728q0 -76 8 -134h680l-16 -49h-656q49 -231 217 -367.5t414 -136.5q145 0 227 47l13 -57q-46 -34 -129.5 -41.5t-112.5 -7.5q-274 0 -460 151t-234 412h-166l20 49h138q-6 57 -6 134t14 149h-166l20 51h156q59 235 238 379.5t426 144.5q78 0 156.5 -17.5
t123.5 -41.5l-22 -56q-119 56 -245 56q-236 0 -397 -129.5t-214 -335.5h749l-18 -51h-744q-14 -73 -14 -149z" />
    <glyph glyph-name="uni20B4" unicode="&#x20b4;" horiz-adv-x="1228" 
d="M164 547v49h211q65 62 162.5 119t150.5 90t96 74h-620v49h665q88 106 74 227q0 111 -74.5 174.5t-197.5 63.5q-199 0 -324 -127l-33 43q59 66 150.5 104.5t202.5 38.5q166 0 256 -84t90 -216t-84 -224h176v-49h-211q-58 -58 -158 -117.5t-153.5 -93t-98.5 -72.5h621v-49
h-668q-98 -107 -98 -237t101 -199.5t218 -69.5q248 0 361 178l35 -41q-59 -96 -161.5 -146t-202.5 -50q-182 0 -295 86t-113 231t94 248h-172z" />
    <glyph glyph-name="uni20B6" unicode="&#x20b6;" horiz-adv-x="1228" 
d="M1057 1051q0 329 -424 329h-1l-274 -4v-661h254q229 0 337 89t108 247zM627 1438q493 0 493 -387q0 -270 -184 -328.5t-322 -58.5h-256v-283h385v-49h-385v-332h-59v332h-240v49h240v283h-240v51h240v719z" />
    <glyph glyph-name="uni20B6" unicode="&#x20cf;" horiz-adv-x="1228" 
d="M1057 1051q0 329 -424 329h-1l-274 -4v-661h254q229 0 337 89t108 247zM627 1438q493 0 493 -387q0 -270 -184 -328.5t-322 -58.5h-256v-283h385v-49h-385v-332h-59v332h-240v49h240v283h-240v51h240v719z" />
    <glyph glyph-name="uni20B6" unicode="&#x20ce;" horiz-adv-x="1228" 
d="M1057 1051q0 329 -424 329h-1l-274 -4v-661h254q229 0 337 89t108 247zM627 1438q493 0 493 -387q0 -270 -184 -328.5t-322 -58.5h-256v-283h385v-49h-385v-332h-59v332h-240v49h240v283h-240v51h240v719z" />
    <glyph glyph-name="uni20B6" unicode="&#x20cd;" horiz-adv-x="1228" 
d="M1057 1051q0 329 -424 329h-1l-274 -4v-661h254q229 0 337 89t108 247zM627 1438q493 0 493 -387q0 -270 -184 -328.5t-322 -58.5h-256v-283h385v-49h-385v-332h-59v332h-240v49h240v283h-240v51h240v719z" />
    <glyph glyph-name="uni20B6" unicode="&#x20cc;" horiz-adv-x="1228" 
d="M1057 1051q0 329 -424 329h-1l-274 -4v-661h254q229 0 337 89t108 247zM627 1438q493 0 493 -387q0 -270 -184 -328.5t-322 -58.5h-256v-283h385v-49h-385v-332h-59v332h-240v49h240v283h-240v51h240v719z" />
    <glyph glyph-name="uni20B6" unicode="&#x20cb;" horiz-adv-x="1228" 
d="M1057 1051q0 329 -424 329h-1l-274 -4v-661h254q229 0 337 89t108 247zM627 1438q493 0 493 -387q0 -270 -184 -328.5t-322 -58.5h-256v-283h385v-49h-385v-332h-59v332h-240v49h240v283h-240v51h240v719z" />
    <glyph glyph-name="uni20B6" unicode="&#x20ca;" horiz-adv-x="1228" 
d="M1057 1051q0 329 -424 329h-1l-274 -4v-661h254q229 0 337 89t108 247zM627 1438q493 0 493 -387q0 -270 -184 -328.5t-322 -58.5h-256v-283h385v-49h-385v-332h-59v332h-240v49h240v283h-240v51h240v719z" />
    <glyph glyph-name="uni20B6" unicode="&#x20c9;" horiz-adv-x="1228" 
d="M1057 1051q0 329 -424 329h-1l-274 -4v-661h254q229 0 337 89t108 247zM627 1438q493 0 493 -387q0 -270 -184 -328.5t-322 -58.5h-256v-283h385v-49h-385v-332h-59v332h-240v49h240v283h-240v51h240v719z" />
    <glyph glyph-name="uni20B6" unicode="&#x20c8;" horiz-adv-x="1228" 
d="M1057 1051q0 329 -424 329h-1l-274 -4v-661h254q229 0 337 89t108 247zM627 1438q493 0 493 -387q0 -270 -184 -328.5t-322 -58.5h-256v-283h385v-49h-385v-332h-59v332h-240v49h240v283h-240v51h240v719z" />
    <glyph glyph-name="uni20B6" unicode="&#x20c7;" horiz-adv-x="1228" 
d="M1057 1051q0 329 -424 329h-1l-274 -4v-661h254q229 0 337 89t108 247zM627 1438q493 0 493 -387q0 -270 -184 -328.5t-322 -58.5h-256v-283h385v-49h-385v-332h-59v332h-240v49h240v283h-240v51h240v719z" />
    <glyph glyph-name="uni20B6" unicode="&#x20c6;" horiz-adv-x="1228" 
d="M1057 1051q0 329 -424 329h-1l-274 -4v-661h254q229 0 337 89t108 247zM627 1438q493 0 493 -387q0 -270 -184 -328.5t-322 -58.5h-256v-283h385v-49h-385v-332h-59v332h-240v49h240v283h-240v51h240v719z" />
    <glyph glyph-name="uni20B6" unicode="&#x20c5;" horiz-adv-x="1228" 
d="M1057 1051q0 329 -424 329h-1l-274 -4v-661h254q229 0 337 89t108 247zM627 1438q493 0 493 -387q0 -270 -184 -328.5t-322 -58.5h-256v-283h385v-49h-385v-332h-59v332h-240v49h240v283h-240v51h240v719z" />
    <glyph glyph-name="uni20B6" unicode="&#x20c4;" horiz-adv-x="1228" 
d="M1057 1051q0 329 -424 329h-1l-274 -4v-661h254q229 0 337 89t108 247zM627 1438q493 0 493 -387q0 -270 -184 -328.5t-322 -58.5h-256v-283h385v-49h-385v-332h-59v332h-240v49h240v283h-240v51h240v719z" />
    <glyph glyph-name="uni20B6" unicode="&#x20c3;" horiz-adv-x="1228" 
d="M1057 1051q0 329 -424 329h-1l-274 -4v-661h254q229 0 337 89t108 247zM627 1438q493 0 493 -387q0 -270 -184 -328.5t-322 -58.5h-256v-283h385v-49h-385v-332h-59v332h-240v49h240v283h-240v51h240v719z" />
    <glyph glyph-name="uni20B6" unicode="&#x20c2;" horiz-adv-x="1228" 
d="M1057 1051q0 329 -424 329h-1l-274 -4v-661h254q229 0 337 89t108 247zM627 1438q493 0 493 -387q0 -270 -184 -328.5t-322 -58.5h-256v-283h385v-49h-385v-332h-59v332h-240v49h240v283h-240v51h240v719z" />
    <glyph glyph-name="uni20B6" unicode="&#x20c1;" horiz-adv-x="1228" 
d="M1057 1051q0 329 -424 329h-1l-274 -4v-661h254q229 0 337 89t108 247zM627 1438q493 0 493 -387q0 -270 -184 -328.5t-322 -58.5h-256v-283h385v-49h-385v-332h-59v332h-240v49h240v283h-240v51h240v719z" />
    <glyph glyph-name="uni20B6" unicode="&#x20c0;" horiz-adv-x="1228" 
d="M1057 1051q0 329 -424 329h-1l-274 -4v-661h254q229 0 337 89t108 247zM627 1438q493 0 493 -387q0 -270 -184 -328.5t-322 -58.5h-256v-283h385v-49h-385v-332h-59v332h-240v49h240v283h-240v51h240v719z" />
    <glyph glyph-name="uni20B6" unicode="&#x20bf;" horiz-adv-x="1228" 
d="M1057 1051q0 329 -424 329h-1l-274 -4v-661h254q229 0 337 89t108 247zM627 1438q493 0 493 -387q0 -270 -184 -328.5t-322 -58.5h-256v-283h385v-49h-385v-332h-59v332h-240v49h240v283h-240v51h240v719z" />
    <glyph glyph-name="uni20B6" unicode="&#x20be;" horiz-adv-x="1228" 
d="M1057 1051q0 329 -424 329h-1l-274 -4v-661h254q229 0 337 89t108 247zM627 1438q493 0 493 -387q0 -270 -184 -328.5t-322 -58.5h-256v-283h385v-49h-385v-332h-59v332h-240v49h240v283h-240v51h240v719z" />
    <glyph glyph-name="uni20B6" unicode="&#x20bd;" horiz-adv-x="1228" 
d="M1057 1051q0 329 -424 329h-1l-274 -4v-661h254q229 0 337 89t108 247zM627 1438q493 0 493 -387q0 -270 -184 -328.5t-322 -58.5h-256v-283h385v-49h-385v-332h-59v332h-240v49h240v283h-240v51h240v719z" />
    <glyph glyph-name="uni20B6" unicode="&#x20bc;" horiz-adv-x="1228" 
d="M1057 1051q0 329 -424 329h-1l-274 -4v-661h254q229 0 337 89t108 247zM627 1438q493 0 493 -387q0 -270 -184 -328.5t-322 -58.5h-256v-283h385v-49h-385v-332h-59v332h-240v49h240v283h-240v51h240v719z" />
    <glyph glyph-name="uni20B6" unicode="&#x20bb;" horiz-adv-x="1228" 
d="M1057 1051q0 329 -424 329h-1l-274 -4v-661h254q229 0 337 89t108 247zM627 1438q493 0 493 -387q0 -270 -184 -328.5t-322 -58.5h-256v-283h385v-49h-385v-332h-59v332h-240v49h240v283h-240v51h240v719z" />
    <glyph glyph-name="uni20B6" unicode="&#x20ba;" horiz-adv-x="1228" 
d="M1057 1051q0 329 -424 329h-1l-274 -4v-661h254q229 0 337 89t108 247zM627 1438q493 0 493 -387q0 -270 -184 -328.5t-322 -58.5h-256v-283h385v-49h-385v-332h-59v332h-240v49h240v283h-240v51h240v719z" />
    <glyph glyph-name="uni20B6" unicode="&#x20b9;" horiz-adv-x="1228" 
d="M1057 1051q0 329 -424 329h-1l-274 -4v-661h254q229 0 337 89t108 247zM627 1438q493 0 493 -387q0 -270 -184 -328.5t-322 -58.5h-256v-283h385v-49h-385v-332h-59v332h-240v49h240v283h-240v51h240v719z" />
    <glyph glyph-name="uni20B6" unicode="&#x20b7;" horiz-adv-x="1228" 
d="M1057 1051q0 329 -424 329h-1l-274 -4v-661h254q229 0 337 89t108 247zM627 1438q493 0 493 -387q0 -270 -184 -328.5t-322 -58.5h-256v-283h385v-49h-385v-332h-59v332h-240v49h240v283h-240v51h240v719z" />
    <glyph glyph-name="afii61352" unicode="&#x2116;" horiz-adv-x="2369" 
d="M1610 555h536v-55h-536v55zM1683.5 833q81.5 -77 195.5 -77t194.5 76.5t80.5 195t-81.5 194.5t-194.5 76t-194.5 -76t-81.5 -194t81.5 -195zM1546 1027q0 138 95 229.5t238 91.5t237 -92t94 -229t-93.5 -228.5t-237.5 -91.5t-238.5 91t-94.5 229zM295 0h-57v1434h49
l1011 -1328v1328h60v-1434h-49l-1014 1323v-1323z" />
    <glyph glyph-name="trademark" unicode="&#x2122;" horiz-adv-x="1679" 
d="M23 1434h636v-54h-290v-592h-56v592h-290v54zM784 1434h54l313 -381l303 381h49v-646h-55v572l-297 -377h-4l-307 377v-572h-56v646z" />
    <glyph glyph-name="arrowleft" unicode="&#x2190;" horiz-adv-x="1316" 
d="M1235 590v-58h-1045l512 -512l-40 -40l-580 579l580 578l40 -41l-507 -506h1040z" />
    <glyph glyph-name="arrowup" unicode="&#x2191;" horiz-adv-x="1320" 
d="M686 0h-57v1040l-506 -508l-41 41l577 580l580 -580l-41 -41l-512 512v-1044z" />
    <glyph glyph-name="arrowright" unicode="&#x2192;" horiz-adv-x="1316" 
d="M82 532v58h1040l-508 506l41 41l580 -578l-580 -579l-41 40l512 512h-1044z" />
    <glyph glyph-name="arrowdown" unicode="&#x2193;" horiz-adv-x="1320" 
d="M629 1112h57v-1044l512 512l41 -41l-580 -580l-577 580l41 41l506 -508v1040z" />
    <glyph glyph-name="partialdiff" unicode="&#x2202;" horiz-adv-x="1183" 
d="M166 429q0 -169 104 -280.5t269 -111.5q106 0 192 51t176.5 172.5t108.5 343.5q-75 191 -198.5 236t-214.5 45t-171 -38t-139.5 -101.5t-93 -147.5t-33.5 -169zM106 423q0 99 38 193.5t143 209t315 114.5q170 0 276.5 -81.5t139.5 -182.5q0 455 -215 581.5t-387 139.5
l10 55q309 -20 481 -228.5t172 -547.5q0 -272 -150 -483t-397 -211q-184 0 -305 125t-121 316z" />
    <glyph glyph-name="product" unicode="&#x220f;" horiz-adv-x="1794" 
d="M1497 1376h-1198v-1786h-61v1844h1318v-1844h-59v1786z" />
    <glyph glyph-name="summation" unicode="&#x2211;" horiz-adv-x="1277" 
d="M82 1434h1114v-58h-1022l645 -864l-649 -864h1026v-58h-1114v33l663 889l-663 889v33z" />
    <glyph glyph-name="minus" unicode="&#x2212;" 
d="M150 764h901v-53h-901v53z" />
    <glyph glyph-name="division" unicode="&#x2215;" horiz-adv-x="616" 
d="M631 1452l47 -18l-690 -1860l-49 18z" />
    <glyph glyph-name="radical" unicode="&#x221a;" horiz-adv-x="1173" 
d="M2 922h277l397 -824l291 1336h524v-58h-473l-309 -1390h-41l-428 878h-238v58z" />
    <glyph glyph-name="infinity" unicode="&#x221e;" horiz-adv-x="1497" 
d="M571.5 528q62.5 55 143.5 172q-98 121 -157.5 174.5t-128.5 53.5q-120 0 -188.5 -67.5t-68.5 -167.5q0 -99 77 -159.5t168 -60.5q92 0 154.5 55zM924.5 871.5q-67.5 -56.5 -146.5 -166.5q92 -118 164.5 -175t170.5 -57t155 69t57 133t-15.5 107t-61.5 94.5t-151 51.5
t-172.5 -56.5zM920 480.5q-82 60.5 -175 178.5q-85 -120 -157.5 -179.5t-179.5 -59.5t-199 76t-92 197t85.5 204.5t216.5 83.5t212.5 -95t116.5 -141q81 117 157.5 176.5t202.5 59.5q125 0 198.5 -81.5t73.5 -197.5t-72.5 -199t-189.5 -83q-116 0 -198 60.5z" />
    <glyph glyph-name="integral" unicode="&#x222b;" horiz-adv-x="692" 
d="M547 1395q-96 0 -156 -33q-123 -73 -123 -309v-1112q0 -316 -209 -359q-154 -29 -254 45l21 47q70 -45 143 -45q131 0 186.5 82t55.5 232v1128q0 324 231 371q39 8 107 7q118 -2 205 -73l-23 -45q-88 64 -184 64z" />
    <glyph glyph-name="approxequal" unicode="&#x2248;" 
d="M377 674q63 0 121 -24t117 -52q57 -28 115 -52t118 -24q94 0 194 94l29 -41q-113 -106 -225 -106q-62 0 -120 24q-58 23 -116 53t-117 54q-58 24 -118 23q-106 0 -213 -105l-33 39q127 117 248 117zM377 1012q63 0 121 -24t117 -52q57 -28 115 -52t118 -24q94 0 194 94
l29 -41q-113 -106 -225 -106q-62 -1 -120 23t-116 54t-117 54q-58 24 -118 23q-106 0 -213 -105l-33 39q127 117 248 117z" />
    <glyph glyph-name="notequal" unicode="&#x2260;" 
d="M150 934h483l194 518l47 -18l-186 -500h363v-53h-381l-107 -287h488v-53h-508l-207 -559l-47 20l198 539h-337v53h358l106 287h-464v53z" />
    <glyph glyph-name="lessequal" unicode="&#x2264;" 
d="M143 899v25l826 524v-64l-744 -473l744 -477v-65zM143 618l826 -528v-59l-826 528v59z" />
    <glyph glyph-name="greaterequal" unicode="&#x2265;" 
d="M231 369v65l744 477l-744 473v64l826 -524v-25zM1057 559l-826 -528v59l826 528v-59z" />
    <glyph glyph-name="lozenge" unicode="&#x25ca;" horiz-adv-x="948" 
d="M475 49l301 483l-301 465l-303 -485zM113 510l344 551h37l342 -529l-344 -546h-37z" />
    <glyph glyph-name="spade" unicode="&#x2660;" horiz-adv-x="1294" 
d="M123 401q0 139 172 333.5t352 309.5q180 -115 352 -310t172 -326q0 -85 -60 -149t-168 -64q-109 0 -172.5 44t-106.5 103q27 -111 75.5 -198t143.5 -144h-471q151 106 215 336q-103 -141 -265 -141q-119 0 -179 63.5t-60 142.5z" />
    <glyph glyph-name="club" unicode="&#x2663;" horiz-adv-x="1253" 
d="M362 796q0 40 20.5 88t56.5 84t84 56t131.5 20t160 -76.5t76.5 -187.5q0 -17 -4 -39q100 -8 171.5 -83t71.5 -182q0 -108 -76.5 -184.5t-187.5 -76.5q-66 0 -122 29.5t-91 79.5q27 -98 75 -184.5t134 -139.5h-471q129 88 205 319q-35 -45 -91.5 -74.5t-114.5 -29.5
q-114 0 -190.5 77t-76.5 184t70.5 182t171.5 83q-3 15 -3 55z" />
    <glyph glyph-name="heart" unicode="&#x2665;" horiz-adv-x="1329" 
d="M123 740q0 127 62.5 205.5t197.5 78.5q134 0 197 -86t86 -127q104 213 292 213q122 0 185 -78t63 -175q0 -170 -174.5 -397t-365.5 -374q-190 143 -313.5 302t-176.5 264.5t-53 173.5z" />
    <glyph glyph-name="diamond" unicode="&#x2666;" horiz-adv-x="1193" 
d="M596 1061q261 -331 475 -551q-218 -218 -475 -549q-211 279 -473 549q200 209 473 551z" />
    <glyph glyph-name="afii10017small" unicode="&#xf350;" horiz-adv-x="1146" 
d="M309 442h522l-260 564zM551 1085h45l508 -1085h-66l-180 387h-573l-181 -387h-61z" />
    <glyph glyph-name="afii10018small" unicode="&#xf351;" horiz-adv-x="1013" 
d="M827 326q0 119 -90 185.5t-276 66.5q-107 0 -211 -11v-510l205 -4q372 0 372 273zM463 633q424 -1 424 -319q0 -156 -118 -237t-320 -81l-259 4v1075h635v-57h-575v-393q114 8 213 8z" />
    <glyph glyph-name="afii10019small" unicode="&#xf352;" horiz-adv-x="1028" 
d="M250 578h258q116 0 202 61q85 62 85 167q-1 106 -71 161t-232 55h-64l-178 -4v-440zM842 299q0 109 -88 167t-254 58h-250v-467l111 -2l133 -2q348 0 348 246zM854 815q0 -160 -151 -229q-44 -20 -93 -27v-2q291 -29 291 -260q0 -225 -245 -284q-75 -17 -162 -17l-162 2
l-142 2v1075l141 2l163 2q360 0 360 -264z" />
    <glyph glyph-name="afii10020small" unicode="&#xf353;" horiz-adv-x="833" 
d="M190 1075h639v-57h-579v-1018h-60v1075z" />
    <glyph glyph-name="afii10021small" unicode="&#xf354;" horiz-adv-x="1222" 
d="M944 57v961h-514l-12 -195q-21 -321 -83 -515.5t-112 -250.5h721zM31 57h125q52 58 118.5 265.5t83.5 537.5l13 215h633v-1018h157v-266h-57v209h-1016v-209h-57v266z" />
    <glyph glyph-name="afii10022small" unicode="&#xf355;" horiz-adv-x="970" 
d="M190 1075h637v-57h-577v-443h528v-57h-528v-461h594v-57h-654v1075z" />
    <glyph glyph-name="afii10024small" unicode="&#xf356;" horiz-adv-x="1501" 
d="M74 1075h80l499 -514l-518 -561h-80l523 561zM721 1075h61v-1075h-61v1075zM924 563l522 -563h-80l-516 561l498 514h82z" />
    <glyph glyph-name="afii10025small" unicode="&#xf357;" horiz-adv-x="950" 
d="M451 1087q150 0 238.5 -71.5t88.5 -204.5q0 -76 -45 -148.5t-133 -105.5v-6q100 -8 161.5 -80t61.5 -158q0 -159 -107 -243t-274 -84t-254.5 60t-109.5 93l35 39q89 -95 186.5 -115t136.5 -20q154 0 240 71.5t86 181.5t-68.5 168t-187.5 58h-158v56h146q86 0 154.5 68
t68.5 172t-75 158t-187 54q-193 0 -310 -125l-36 39q121 143 342 143z" />
    <glyph glyph-name="afii10026small" unicode="&#xf358;" horiz-adv-x="1320" 
d="M190 0v1075h60v-981l825 981h55v-1075h-59v981l-825 -981h-56z" />
    <glyph glyph-name="afii10027small" unicode="&#xf359;" horiz-adv-x="1320" 
d="M190 0v1075h60v-981l825 981h55v-1075h-59v981l-825 -981h-56zM444 1331q0 -82 56 -126t152 -44q95 0 151 44q55 44 55 126h55q0 -104 -72 -161q-73 -56 -192 -56t-189 56t-71 161h55z" />
    <glyph glyph-name="afii10028small" unicode="&#xf35a;" horiz-adv-x="1040" 
d="M190 1075h60v-1075h-60v1075zM406 565l581 -565h-88l-575 561l559 514h86z" />
    <glyph glyph-name="afii10029small" unicode="&#xf35b;" horiz-adv-x="1193" 
d="M944 1018h-528l-19 -203q-45 -508 -122.5 -642t-129 -155.5t-98.5 -17.5v59q52 -6 150.5 85.5t144.5 715.5l16 215h646v-1075h-60v1018z" />
    <glyph glyph-name="afii10030small" unicode="&#xf35c;" horiz-adv-x="1454" 
d="M190 1075h62l485 -608l467 608h60v-1075h-62v985l-465 -604h-8l-479 598v-979h-60v1075z" />
    <glyph glyph-name="afii10031small" unicode="&#xf35d;" horiz-adv-x="1282" 
d="M1032 520h-782v-520h-60v1075h60v-497h782v497h60v-1075h-60v520z" />
    <glyph glyph-name="afii10032small" unicode="&#xf35e;" horiz-adv-x="1325" 
d="M158 540q0 -210 145 -354q145 -143 359 -143q215 0 360 141t145 353q0 211 -144 352t-359 141t-361 -139q-145 -141 -145 -351zM257 141q-163 157 -163 394t163 396q163 158 406 157q244 -1 406 -157q162 -155 162 -393t-163 -395t-405 -157q-243 0 -406 155z" />
    <glyph glyph-name="afii10033small" unicode="&#xf35f;" horiz-adv-x="1280" 
d="M1030 1018h-780v-1018h-60v1075h900v-1075h-60v1018z" />
    <glyph glyph-name="afii10034small" unicode="&#xf360;" horiz-adv-x="954" 
d="M454 483q84 1 150 21q129 40 173 144q22 50 22 106q0 190 -181 247q-63 21 -118 21h-84l-166 -4v-526q119 -9 204 -9zM460 426q-103 0 -210 8v-434h-60v1075l269 4q219 0 320 -101q83 -83 83 -222t-101 -234q-100 -96 -301 -96z" />
    <glyph glyph-name="afii10035small" unicode="&#xf361;" horiz-adv-x="1085" 
d="M253 136q-159 154 -159 397q0 242 154 398t403 156q211 0 350 -98l-32 -45q-115 86 -325 86t-348 -140t-138 -356q0 -217 143 -354t371 -137q186 0 325 107l25 -48q-60 -55 -158 -86q-98 -30 -212 -30t-218 39q-106 39 -181 111z" />
    <glyph glyph-name="afii10036small" unicode="&#xf362;" horiz-adv-x="976" 
d="M16 1075h945v-57h-443v-1018h-59v1018h-443v57z" />
    <glyph glyph-name="afii10037small" unicode="&#xf363;" horiz-adv-x="1058" 
d="M374 55q56 0 97 47.5t72 106.5l24 45l-536 821h73l494 -762l367 762h63l-405 -833q-59 -123 -118 -182.5t-134 -59.5t-121 33l22 51q46 -29 102 -29z" />
    <glyph glyph-name="afii10038small" unicode="&#xf364;" horiz-adv-x="1368" 
d="M278 277q139 -99 361 -99h12v750h-6q-228 0 -367 -99.5t-139 -275.5q0 -177 139 -276zM713 928v-750h14q345 0 422.5 141.5t77.5 232.5q0 175 -135.5 275.5t-370.5 100.5h-8zM651 123h-12q-257 0 -409 115t-152 315t152 315t417 115h4v104h62v-104h6q407 0 489 -164
t82 -315.5t-154 -266t-409 -114.5h-14v-135h-62v135z" />
    <glyph glyph-name="afii10039small" unicode="&#xf365;" horiz-adv-x="1085" 
d="M582 547l450 -547h-76l-415 500l-412 -500h-76l451 547l-432 528h75l396 -481l399 481h74z" />
    <glyph glyph-name="afii10040small" unicode="&#xf366;" horiz-adv-x="1298" 
d="M190 1075h60v-1018h768v1018h61v-1018h158v-266h-57v209h-990v1075z" />
    <glyph glyph-name="afii10041small" unicode="&#xf367;" horiz-adv-x="1040" 
d="M162 768q0 -299 317 -299q155 0 309 94v512h62v-1075h-62v506q-51 -31 -141.5 -63.5t-182.5 -32.5q-172 0 -267 85.5t-95 258.5v321h60v-307z" />
    <glyph glyph-name="afii10042small" unicode="&#xf368;" horiz-adv-x="1640" 
d="M190 1075h60v-1018h538v1018h62v-1018h539v1018h61v-1075h-1260v1075z" />
    <glyph glyph-name="afii10043small" unicode="&#xf369;" horiz-adv-x="1667" 
d="M190 1075h60v-1018h538v1018h62v-1018h539v1018h61v-1018h156v-266h-58v209h-1358v1075z" />
    <glyph glyph-name="afii10044small" unicode="&#xf36a;" horiz-adv-x="1097" 
d="M940 325q0 263 -373 263q-86 0 -200 -8v-523l196 -4q182 0 279.5 70t97.5 202zM569 645q435 -1 435 -323q0 -156 -120 -241t-329 -85l-248 4v1018h-305v57h365v-436q89 6 202 6z" />
    <glyph glyph-name="afii10045small" unicode="&#xf36b;" horiz-adv-x="1355" 
d="M438 645q432 -1 432 -323q0 -156 -120.5 -241t-325.5 -85l-234 4v1075h60v-436q86 6 188 6zM807 325q0 263 -369 263q-76 0 -188 -6v-525l180 -4q184 0 280.5 71t96.5 201zM1104 1075h61v-1075h-61v1075z" />
    <glyph glyph-name="afii10046small" unicode="&#xf36c;" horiz-adv-x="980" 
d="M453 645q434 -1 434 -323q0 -156 -121 -241t-330 -85l-246 4v1075h60v-436q86 6 203 6zM823 325q0 263 -372 263q-115 0 -201 -6v-525l192 -4q184 0 282.5 70t98.5 202z" />
    <glyph glyph-name="afii10047small" unicode="&#xf36d;" horiz-adv-x="1128" 
d="M98 983q133 107 373 107q115 0 222.5 -39t224 -148.5t116.5 -356.5q0 -246 -159 -403t-418 -157q-217 0 -383 112l28 49q158 -102 372 -102t352.5 134.5t146.5 340.5h-639v58h637q-12 212 -151 332t-354 120q-216 0 -341 -90z" />
    <glyph glyph-name="afii10048small" unicode="&#xf36e;" horiz-adv-x="1765" 
d="M771.5 185.5q136.5 -140.5 350.5 -140.5t350 140.5t136 353.5t-137 352t-349.5 139t-349.5 -139t-137 -352t136.5 -353.5zM190 1075h60v-497h321q12 218 164.5 365t390.5 147t391.5 -157t153.5 -395t-155 -395t-393 -157t-393 151.5t-159 382.5h-321v-520h-60v1075z" />
    <glyph glyph-name="afii10049small" unicode="&#xf36f;" horiz-adv-x="1017" 
d="M563 1022q-170 0 -259 -78.5t-89 -187.5t76 -181.5t176 -87.5h301v531zM827 0h-59v430h-291l-346 -430h-74l355 438q-104 26 -182 109t-78 194q0 150 106.5 244t310.5 94l258 -4v-1075z" />
    <glyph glyph-name="afii10023small" unicode="&#xf371;" horiz-adv-x="970" 
d="M190 1075h637v-57h-577v-443h528v-57h-528v-461h594v-57h-654v1075zM635 1364q0 18 13 30q12 12 30 13q18 0 30 -12q12 -13 13 -31q0 -18 -12 -30q-11 -12 -29 -13q-18 0 -32 12q-13 13 -13 31zM362 1364q0 -18 -12 -30t-29 -13q-17 1 -31 13t-14 30t14 30t30 13
q18 0 30 -12q12 -13 12 -31z" />
    <glyph glyph-name="afii10051small" unicode="&#xf372;" horiz-adv-x="1253" 
d="M1100 316q0 146 -75 212t-210 66t-203.5 -41t-93.5 -53v-500h-59v1018h-443v57h945v-57h-443v-461q53 33 123 63.5t161 30.5q176 0 266.5 -79.5t90.5 -254.5q0 -331 -274 -331q-76 0 -146 47l25 47q45 -35 129 -35t145.5 62.5t61.5 208.5z" />
    <glyph glyph-name="afii10052small" unicode="&#xf373;" horiz-adv-x="833" 
d="M190 1075h639v-57h-579v-1018h-60v1075zM451 1217l-33 30l233 291l37 -41z" />
    <glyph glyph-name="afii10053small" unicode="&#xf374;" horiz-adv-x="1126" 
d="M999 940q-125 90 -339 90t-354 -125t-152 -327h641v-60h-641q4 -217 150 -345t380 -128q186 0 342 102l27 -49q-167 -112 -369 -112q-261 0 -425.5 151t-164.5 397t159 401t419 155q98 0 194.5 -27t161.5 -80z" />
    <glyph glyph-name="afii10054small" unicode="&#xf375;" horiz-adv-x="946" 
d="M494 43q114 0 204 60t90 151q0 92 -49 140q-81 80 -283 137q-201 57 -284 148q-49 53 -49 155t91 178t254 76t285 -68q38 -20 62 -47l-31 -43q-53 51 -139 76t-168 24q-133 0 -212 -56t-79 -142t50 -132t122 -76q74 -30 161 -55t161 -61t123 -91t49 -137t-29 -133
q-92 -161 -361 -161q-102 0 -208 41t-164 106l39 41q131 -131 365 -131z" />
    <glyph glyph-name="afii10055small" unicode="&#xf376;" horiz-adv-x="526" 
d="M233 1075h60v-1075h-60v1075z" />
    <glyph glyph-name="afii10056small" unicode="&#xf377;" horiz-adv-x="534" 
d="M238 1075h59v-1075h-59v1075zM352 1363q0 17 13.5 29.5t30 12.5t27.5 -12.5t11 -29.5t-11 -29.5t-27.5 -12.5t-30 12.5t-13.5 29.5zM104 1363q0 17 13.5 29.5t30 12.5t28.5 -12.5t12 -29.5t-12 -29.5t-28.5 -12.5t-30 12.5t-13.5 29.5z" />
    <glyph glyph-name="afii10057small" unicode="&#xf378;" horiz-adv-x="583" 
d="M332 240v835h61v-842q0 -113 -46 -181t-155 -66q-109 0 -163 47l22 47q50 -35 109 -35t92 15q80 36 80 180z" />
    <glyph glyph-name="afii10058small" unicode="&#xf379;" horiz-adv-x="1716" 
d="M1559 325q0 263 -369 263q-72 0 -186 -8v-523l178 -4q184 0 280.5 71t96.5 201zM1192 645q430 -1 430 -323q0 -156 -120 -241t-326 -85l-232 4v1018h-526l-19 -203q-44 -504 -123 -640t-130.5 -157.5t-98.5 -17.5v59q56 0 152.5 89.5t142.5 711.5l16 215h646v-436
q85 6 188 6z" />
    <glyph glyph-name="afii10059small" unicode="&#xf37a;" horiz-adv-x="1785" 
d="M1262 571q-95 0 -187 -10v-504l178 -4q377 0 377 271q0 119 -92 183t-276 64zM1264 627q430 1 430 -313q0 -154 -120 -236t-327 -82l-190 4h-41v559h-766v-559h-60v1075h60v-459h766v459h59v-457q128 9 189 9z" />
    <glyph glyph-name="afii10060small" unicode="&#xf37b;" horiz-adv-x="1253" 
d="M834 649q235 0 280 -126t45 -218v-305h-59v295q0 152 -73 224.5t-195 72.5t-194.5 -34t-119.5 -62v-496h-59v1018h-443v57h945v-57h-443v-465q129 96 316 96z" />
    <glyph glyph-name="afii10061small" unicode="&#xf37c;" horiz-adv-x="1040" 
d="M190 1075h60v-1075h-60v1075zM406 565l581 -565h-88l-575 561l559 514h86zM498 1217l-33 30l233 291l37 -41z" />
    <glyph glyph-name="afii10062small" unicode="&#xf37e;" horiz-adv-x="1058" 
d="M374 55q56 0 97 47t72 107l24 45l-536 821h73l494 -762l367 762h63l-405 -833q-59 -122 -117 -182t-134 -60q-75 0 -122 33l22 51q46 -29 102 -29zM338 1331q0 -82 56 -126t152 -44t150 44q55 44 56 126h55q0 -105 -73 -161q-74 -56 -192 -56t-189 56t-70 161h55z" />
    <glyph glyph-name="afii10145small" unicode="&#xf37f;" horiz-adv-x="1263" 
d="M190 1075h60v-1018h764v1018h59v-1075h-411v-244h-60v244h-412v1075z" />
    <glyph glyph-name="afii10146small" unicode="&#xf381;" horiz-adv-x="1019" 
d="M862 320q0 260 -373 260q-123 0 -200 -7v-518l192 -4q184 0 282.5 69.5t98.5 199.5zM489 635q437 1 437 -317q0 -156 -121 -239t-330 -83l-246 4v827h-227v54h227v194h60v-194h291v-54h-291v-200q114 8 200 8z" />
    <glyph glyph-name="afii10147small" unicode="&#xf389;" horiz-adv-x="1325" 
d="M406 666q76 0 142 -30t130.5 -65.5t128 -65.5t125.5 -30q130 0 233 98q-12 198 -154.5 327.5t-349.5 129.5t-349 -131t-154 -334q127 101 248 101zM403 610q-128 0 -245 -108q12 -194 155.5 -326.5t351.5 -132.5t351 134t151 339q-108 -96 -231 -96q-74 0 -140.5 29.5
t-130 65.5t-128 65.5t-134.5 29.5zM94 537q0 119 43 219t119 174t180.5 115.5t225 41.5t225 -40.5t181.5 -114.5t120 -174.5t43 -219t-43 -220t-120 -175t-181.5 -115.5t-225 -42t-224 41t-180.5 114.5t-120 175t-43 220.5z" />
    <glyph glyph-name="afii10148small" unicode="&#xf38a;" horiz-adv-x="1085" 
d="M1067 1087q37 0 74 -14v-51q-82 35 -139.5 -26.5t-110.5 -196.5l-322 -809h-41l-503 1085h67l459 -997l289 747q53 139 106 200.5t121 61.5z" />
    <glyph glyph-name="afii10050small" unicode="&#xf393;" horiz-adv-x="835" 
d="M190 1075h584v207h57v-264h-581v-1018h-60v1075z" />
    <glyph glyph-name="afii61352small" unicode="&#xf3cf;" horiz-adv-x="1914" 
d="M1296 414h441v-56h-441v56zM1367 628q67 -55 151 -55t150.5 54.5t66.5 140.5t-65.5 141.5t-151.5 55.5t-152 -54.5t-66 -140.5q0 -87 67 -142zM1245 770q0 53 20.5 98t57.5 77t87 50.5t107.5 18.5t106.5 -18.5t86 -50.5t57.5 -77t20.5 -98t-20.5 -98t-57.5 -78t-86 -51.5
t-106.5 -18.5t-107.5 18.5t-87 51.5t-57.5 78t-20.5 98zM248 0h-58v1075h48l802 -975v975h58v-1075h-49l-801 973v-973z" />
    <glyph glyph-name="cyrBrevesmall" unicode="&#xf3d0;" horiz-adv-x="770" 
d="M178 1331q0 -82 56.5 -126t151.5 -44t150.5 44t55.5 126h55q0 -104 -72.5 -160.5t-191.5 -56.5t-189.5 56.5t-70.5 160.5h55z" />
    <glyph glyph-name="accent" unicode="&#xf400;" horiz-adv-x="0" 
d="M-580 1130l-36 25l223 299l43 -35z" />
    <glyph glyph-name="Accent" unicode="&#xf401;" horiz-adv-x="0" 
d="M-879 1516l-18 36l338 193l22 -47z" />
    <glyph glyph-name="Breve" unicode="&#xf406;" horiz-adv-x="880" 
d="M466 1602q80 0 152 44t113 95l27 -31q-53 -72 -133.5 -117t-163.5 -45q-133 0 -217.5 52.5t-120.5 109.5l29 31q53 -60 97 -85.5t90.5 -39.5t126.5 -14z" />
    <glyph glyph-name="Cedilla" unicode="&#xf407;" horiz-adv-x="643" 
d="M297 -371q70 0 117 30t47 110.5t-168 80.5h-12v150h38v-115q201 -4 201 -108.5t-57 -146.5t-135 -42t-121 13.5t-84 36.5l20 34q84 -43 154 -43z" />
    <glyph glyph-name="Circumflex" unicode="&#xf408;" horiz-adv-x="935" 
d="M463 1743h8l342 -191l-31 -36l-315 174l-317 -174l-27 34z" />
    <glyph glyph-name="Commaaccent" unicode="&#xf409;" horiz-adv-x="405" 
d="M201 -131q82 -9 82 -122q0 -112 -144 -159l-16 31q102 40 102 126t-65 99z" />
    <glyph glyph-name="Apostrophe" unicode="&#xf40a;" horiz-adv-x="403" 
d="M227 1364q0 73 -41 111l50 34q45 -50 46 -138q2 -162 -132 -234l-25 30q104 62 102 197z" />
    <glyph glyph-name="Dotaccent" unicode="&#xf40b;" horiz-adv-x="342" 
d="M123 1643.5q0 33.5 51 33.5q16 0 30.5 -11t14.5 -33.5t-14.5 -36t-34.5 -13.5t-33.5 13.5t-13.5 47z" />
    <glyph glyph-name="Ring" unicode="&#xf40c;" horiz-adv-x="659" 
d="M170 1596q0 -67 46 -99.5t113 -32.5t113.5 33t46.5 99t-47.5 96t-113.5 30t-112 -29.5t-46 -96.5zM123 1596q0 85 59.5 125t145.5 40t147.5 -40t61.5 -125t-61.5 -128t-147.5 -43t-145.5 43t-59.5 128z" />
    <glyph glyph-name="Tilde" unicode="&#xf40d;" horiz-adv-x="913" 
d="M123 1618q80 72 154 72t147.5 -34t113.5 -49.5t80 -15.5q82 0 150 72l23 -39q-77 -84 -175 -84q-43 0 -83.5 15.5t-118.5 48t-140 32.5t-129 -55z" />
    <glyph glyph-name="Ogonek" unicode="&#xf40e;" horiz-adv-x="587" 
d="M190 -366q-67 44 -67 147q0 102 101.5 173t230.5 71v-25q-104 0 -189.5 -60.5t-85.5 -144.5t54 -119.5t114 -35.5q59 0 98 18l19 -39q-56 -29 -132 -29t-143 44z" />
    <glyph glyph-name="Gravecomb" unicode="&#xf410;" horiz-adv-x="0" 
d="M-1022 1698l23 47l337 -193l-20 -36z" />
    <glyph glyph-name="Commaaccentsmall" unicode="&#xf416;" horiz-adv-x="405" 
d="M201 -131q82 -9 82 -122q0 -112 -144 -159l-16 31q104 41 102 135q0 77 -65 90z" />
    <glyph glyph-name="Apostrophesmall" unicode="&#xf418;" horiz-adv-x="403" 
d="M227 975q0 72 -41 110l50 35q45 -50 46 -138q2 -162 -132 -234l-25 30q104 62 102 197z" />
    <glyph glyph-name="Tcedillasmall" unicode="&#xf447;" horiz-adv-x="976" 
d="M649 -230.5q0 80.5 -168 80.5h-12v150h-10v1018h-443v57h945v-57h-443v-1018h-10v-115q106 -2 152.5 -42t46.5 -105.5t-57.5 -107.5t-135.5 -42t-119 13.5t-82 33.5l21 35q78 -41 149.5 -41t118.5 30t47 110.5z" />
    <glyph glyph-name="Schwasmall" unicode="&#xf44e;" horiz-adv-x="1273" 
d="M982 177q130 134 134 343h-973q4 -201 135.5 -339t352.5 -138t351 134zM608 1087q264 0 418 -148t154 -394q0 -247 -150 -403t-404 -156t-403 166t-141 426h1034q-12 208 -150 330t-348 122q-209 0 -335 -92l-27 45q130 104 352 104z" />
    <glyph glyph-name="uniF639" unicode="&#xf639;" 
d="M981 621q0 582 -138 678t-242.5 96t-177.5 -50.5t-118 -140.5t-65.5 -215t-20.5 -355.5t93 -412.5t381 -182t288 582zM158 716.5q0 157.5 24.5 292t77.5 232.5t137 153.5t203 55.5t203 -55.5t137 -153.5t77.5 -232.5t24.5 -292t-24.5 -291.5t-76.5 -232.5t-135 -153.5
t-202 -55t-203 55t-138 153.5t-79.5 232.5t-25.5 291.5z" />
    <glyph glyph-name="uniF63A" unicode="&#xf63a;" 
d="M891 1080q0 133 -81 223t-228 90q-188 0 -254 -104.5t-76 -182.5l-51 16q19 156 132.5 242t229.5 86q199 0 293 -105t94 -221t-43 -224.5t-166 -308t-483 -536.5h760v-55h-838v49l276 277q277 276 356 480t79 274z" />
    <glyph glyph-name="uniF63B" unicode="&#xf63b;" 
d="M215 270q97 -229 387 -229q68 0 134.5 26.5t138 98t71.5 217.5t-97 234t-231 88h-131v57h117q110 0 198.5 95t88.5 240t-86 220.5t-275.5 75.5t-275.5 -213l-39 30q39 115 137.5 178.5t231.5 63.5q174 0 270 -95t96 -267t-87 -249t-142 -98v-6q128 -19 206.5 -119.5
t78.5 -211.5q0 -204 -119.5 -314t-318.5 -110t-281 92t-109 159z" />
    <glyph glyph-name="uniF63C" unicode="&#xf63c;" 
d="M813 395h-670v35l656 1004h67l-641 -979h588v467h57v-467h222v-60h-222v-395h-57v395z" />
    <glyph glyph-name="uniF63D" unicode="&#xf63d;" 
d="M195 256q121 -215 379 -215q62 0 129 29.5t144 112t77 246.5t-112.5 273t-297.5 109q-103 0 -211 -37l84 660h602v-58h-553l-69 -536q79 24 171 24q197 0 322 -119t125 -316t-124 -322t-309 -125q-184 0 -274 87t-122 148z" />
    <glyph glyph-name="uniF63E" unicode="&#xf63e;" 
d="M608 41q88 0 152.5 30.5t113 83t77 123t28.5 195.5t-97.5 235.5t-265.5 110.5q-169 0 -272 -94.5t-131 -214.5q0 -192 76 -290.5t153.5 -138.5t165.5 -40zM154 508q0 371 159.5 568.5t281.5 274t243 101.5l24 -45q-237 -56 -422 -262.5t-221 -542.5q67 184 195.5 228
t215.5 44q181 0 295.5 -122.5t114.5 -314.5q0 -191 -123 -323t-288 -132q-230 0 -352.5 152t-122.5 374z" />
    <glyph glyph-name="uniF63F" unicode="&#xf63f;" 
d="M211 1434h799v-31l-561 -1403h-64l551 1376h-725v58z" />
    <glyph glyph-name="uniF640" unicode="&#xf640;" 
d="M156 371q0 127 85 231t222 131v6q-111 28 -182.5 129.5t-71.5 198.5q0 96 30.5 164.5t84 118t125 76t195.5 26.5t237.5 -105t113.5 -271t-99 -240t-161 -95v-6q137 -16 224.5 -116.5t87.5 -243.5q0 -178 -132 -285.5t-312.5 -107.5t-313.5 106.5t-133 282.5zM573 709
q-143 0 -250.5 -95.5t-107.5 -237.5t114 -238.5t272.5 -96.5t272 93.5t113.5 244.5t-102 240.5t-250 89.5h-62zM637 766q109 0 203 90t94 229q0 140 -102 224t-234 84t-231 -86t-99 -223t94.5 -227.5t202.5 -90.5h72z" />
    <glyph glyph-name="uniF641" unicode="&#xf641;" 
d="M608 1393q-161 0 -276 -111t-115 -270t100.5 -271t267.5 -112q166 0 269.5 88.5t130.5 204.5q0 194 -69.5 292.5t-144.5 138.5t-163 40zM1047 924q0 -388 -192.5 -642t-498.5 -300l-22 47q273 47 448.5 256.5t198.5 541.5q-41 -109 -142.5 -181.5t-254.5 -72.5
q-192 0 -309 127.5t-117 312.5t132.5 312t297.5 127q227 0 343 -150.5t116 -377.5z" />
    <glyph glyph-name="uniF643" unicode="&#xf643;" 
d="M932 180q125 139 125 333t-127.5 332t-329.5 138t-329.5 -138t-127.5 -333t127.5 -333t332 -138t329.5 139zM82 512q0 104 36 199.5t102.5 169t162.5 117.5t217 44t217 -44t163 -117.5t102.5 -169t35.5 -199.5t-35.5 -199.5t-102.5 -169t-163 -117.5t-217 -44t-217 44
t-162.5 117.5t-102.5 169t-36 199.5z" />
    <glyph glyph-name="uniF644" unicode="&#xf644;" 
d="M670 1040v-1040h-62v961l-258 -207l-24 49l307 237h37z" />
    <glyph glyph-name="uniF645" unicode="&#xf645;" 
d="M889 686q0 129 -75 214t-232 85q-113 0 -212 -68.5t-122 -211.5l-43 24q18 146 130 230.5t227 84.5q205 0 295.5 -99t90.5 -252t-136 -309t-301 -234t-204 -93h711v-57h-838v47q245 93 425.5 224.5t232 234t51.5 180.5z" />
    <glyph glyph-name="uniF646" unicode="&#xf646;" 
d="M584 985q-241 0 -330 -213l-37 31q39 115 137 178t252 63t250 -95t96 -268t-132 -287q-44 -38 -99 -58v-6q129 -19 207 -118t79 -211q2 -205 -119 -316t-319 -111q-197 0 -319 136q-43 48 -72 116l39 37q96 -225 373 -230q161 0 260 99t99 245q-1 145 -97 232
q-96 88 -231 88h-132v57h117q108 0 198 95q89 95 89 240t-86 221t-223 75z" />
    <glyph glyph-name="uniF647" unicode="&#xf647;" 
d="M813 0h-670v33l650 991h65l-633 -967h588v467h57v-467h222v-57h-222v-410h-57v410z" />
    <glyph glyph-name="uniF648" unicode="&#xf648;" 
d="M538 457q195 0 321 -119t126 -317q0 -197 -125 -322t-308 -125t-318 129q-46 45 -78 107l39 38q118 -210 366 -215q152 0 259 113q106 113 106 277t-115 273t-297 107q-104 0 -209 -36l84 659h600v-57h-551l-69 -537q77 25 169 25z" />
    <glyph glyph-name="uniF649" unicode="&#xf649;" 
d="M610 41q88 0 154 31q132 64 188 206q29 70 29 150q0 168 -98 280q-98 111 -267 111t-271 -93t-130 -216q-1 -189 101 -324q50 -66 128 -106t166 -39zM154 508q0 372 221 644q98 122 220 199t243 101l26 -45q-238 -55 -410 -250q-199 -224 -235 -555q67 185 259 250
q65 22 152 22t165 -32q155 -65 216 -231q29 -81 29 -178q-1 -192 -125 -321q-125 -130 -307 -130q-100 0 -189 43q-173 84 -236 283q-29 96 -29 200z" />
    <glyph glyph-name="uniF64A" unicode="&#xf64a;" 
d="M211 1026h801v-31l-561 -1403h-66l551 1377h-725v57z" />
    <glyph glyph-name="uniF64B" unicode="&#xf64b;" 
d="M156 371q0 127 85 231t224 131v6q-111 28 -183 130q-73 102 -73 198t31 165q63 140 209 193q71 27 151 27q166 0 282 -106q115 -106 114 -269q-1 -164 -150 -279q-47 -36 -109 -57v-6q133 -16 222 -116q88 -100 88 -244q0 -179 -132 -286t-313 -107q-180 0 -313 107
t-133 282zM575 709q-146 0 -252 -96t-106 -236t112 -238t272 -98q159 0 272 94q114 94 114 243q0 148 -105 244q-99 87 -247 87h-60zM639 766q105 0 200 88q95 93 95 230t-99 222t-232 86t-234 -86t-101 -223q0 -137 95 -227t202 -90h74z" />
    <glyph glyph-name="uniF64C" unicode="&#xf64c;" 
d="M608 985q-159 0 -275 -110t-116 -269t101 -272t266 -113q164 0 269 89t132 204q0 88 -22 173q-50 185 -192 259q-75 40 -163 39zM1047 516q0 -388 -194 -643q-194 -254 -497 -299l-22 47q274 47 448 255t199 544q-41 -110 -143 -182t-256 -72q-189 0 -307 128
q-119 128 -118 311q1 182 134 312q133 129 297 127q226 0 343 -151q116 -150 116 -377z" />
    <glyph glyph-name="Abrevesmall" unicode="&#xf66d;" horiz-adv-x="1146" 
d="M309 442h522l-260 564zM551 1085h45l508 -1085h-66l-180 387h-573l-181 -387h-61zM846 1448q-107 -155 -261 -156q-155 -2 -249 109q-23 27 -35 47l29 31q107 -137 248 -140q86 0 144 44t99 94z" />
    <glyph glyph-name="Amacronsmall" unicode="&#xf66e;" horiz-adv-x="1146" 
d="M309 442h522l-260 564zM551 1085h45l508 -1085h-66l-180 387h-573l-181 -387h-61zM324 1413h495v-49h-495v49z" />
    <glyph glyph-name="Aogoneksmall" unicode="&#xf66f;" horiz-adv-x="1146" 
d="M309 442h522l-260 564zM750 -223q0 98 84 164t194 79l-170 367h-573l-181 -387h-61l508 1085h45l508 -1085h-23q-103 0 -188.5 -60.5t-85.5 -144.5t54 -119.5t114 -35.5q59 0 98 18l19 -39q-56 -29 -107 -29q-101 0 -168 44.5t-67 142.5z" />
    <glyph glyph-name="Cacutesmall" unicode="&#xf671;" horiz-adv-x="1085" 
d="M253 136q-159 154 -159 397q0 242 154 398t403 156q211 0 350 -98l-32 -45q-115 86 -325 86t-348 -140t-138 -356q0 -217 143 -354t371 -137q186 0 325 107l25 -48q-60 -55 -158 -86q-98 -30 -212 -30t-218 39q-106 39 -181 111zM592 1217l-33 30l234 291l36 -41z" />
    <glyph glyph-name="Ccaronsmall" unicode="&#xf672;" horiz-adv-x="1085" 
d="M253 136q-159 154 -159 397q0 242 154 398t403 156q211 0 350 -98l-32 -45q-115 86 -325 86t-348 -140t-138 -356q0 -217 143 -354t371 -137q186 0 325 107l25 -48q-60 -55 -158 -86q-98 -30 -212 -30t-218 39q-106 39 -181 111zM360 1464l31 35l240 -207l237 207l31 -35
l-264 -229h-8z" />
    <glyph glyph-name="Ccircumflexsmall" unicode="&#xf673;" horiz-adv-x="1085" 
d="M253 136q-159 154 -159 397q0 242 154 398t403 156q211 0 350 -98l-32 -45q-115 86 -325 86t-348 -140t-138 -356q0 -217 143 -354t371 -137q186 0 325 107l25 -48q-60 -55 -158 -86q-98 -30 -212 -30t-218 39q-106 39 -181 111zM918 1270l-33 -37l-254 207l-258 -207
l-33 37l287 229h8z" />
    <glyph glyph-name="Cdotaccentsmall" unicode="&#xf674;" horiz-adv-x="1085" 
d="M253 136q-159 154 -159 397q0 242 154 398t403 156q211 0 350 -98l-32 -45q-115 86 -325 86t-348 -140t-138 -356q0 -217 143 -354t371 -137q186 0 325 107l25 -48q-60 -55 -158 -86q-98 -30 -212 -30t-218 39q-106 39 -181 111zM580 1372q0 20 14 32t32 13q18 0 30 -12
q14 -12 14 -33t-14 -33t-30 -12q-17 0 -32 12q-14 13 -14 33z" />
    <glyph glyph-name="Dcaronsmall" unicode="&#xf675;" horiz-adv-x="1216" 
d="M463 53q288 0 442 141t154 354q0 214 -137 337q-157 137 -451 137l-221 -4v-961l143 -2zM190 0v1075h19l266 4q326 0 497 -156q150 -139 150 -377t-173 -394t-488 -156l-260 4h-11zM283 1464l30 35l240 -207l238 207l30 -35l-264 -229h-8z" />
    <glyph glyph-name="Dcroatsmall" unicode="&#xf676;" horiz-adv-x="1257" 
d="M506 53q286 0 440 141t154 353q0 213 -136 338q-154 137 -446 137l-227 -4v-438h338v-56h-338v-467l144 -2zM229 0v524h-213v56h213v495h19l272 4q322 0 494 -157q149 -138 149 -374q0 -237 -172 -394q-172 -158 -483 -158l-266 4h-13z" />
    <glyph glyph-name="Ecaronsmall" unicode="&#xf678;" horiz-adv-x="970" 
d="M190 1075h637v-57h-577v-443h528v-57h-528v-461h594v-57h-654v1075zM242 1464l30 35l240 -207l238 207l30 -35l-264 -229h-8z" />
    <glyph glyph-name="Edotaccentsmall" unicode="&#xf679;" horiz-adv-x="970" 
d="M190 1075h637v-57h-577v-443h528v-57h-528v-461h594v-57h-654v1075zM459 1372q0 20 14 32q13 12 31 13q18 0 32 -12t13 -33q0 -21 -13 -33q-12 -12 -30 -12t-33 12q-14 13 -14 33z" />
    <glyph glyph-name="Emacronsmall" unicode="&#xf67a;" horiz-adv-x="970" 
d="M190 1075h637v-57h-577v-443h528v-57h-528v-461h594v-57h-654v1075zM256 1413h496v-49h-496v49z" />
    <glyph glyph-name="Eogoneksmall" unicode="&#xf67c;" horiz-adv-x="970" 
d="M502 -232q0 89 55 146t135 86h-502v1075h637v-57h-577v-443h528v-57h-528v-461h594v-57h-21q-103 -4 -183.5 -62.5t-80.5 -142.5t54 -119.5t114 -35.5q59 0 98 18l19 -39q-56 -29 -107 -29q-101 0 -168 44.5t-67 133.5z" />
    <glyph glyph-name="Gbrevesmall" unicode="&#xf67d;" horiz-adv-x="1202" 
d="M975 942q-118 88 -329 88q-212 0 -350 -140t-138 -357q0 -218 139 -354t365 -136q102 0 204 32t168 89v287h-354v55h412v-373q-111 -99 -319 -137q-61 -10 -151 -10t-193 39t-178 111q-157 152 -157 395t156 399t386 157q229 0 368 -98zM891 1448q-107 -155 -261 -156
q-155 -2 -249 109q-23 27 -35 47l29 31q107 -137 248 -140q86 0 144 44t99 94z" />
    <glyph glyph-name="Gcircumflexsmall" unicode="&#xf67e;" horiz-adv-x="1202" 
d="M975 942q-118 88 -329 88q-212 0 -350 -140t-138 -357q0 -218 139 -354t365 -136q102 0 204 32t168 89v287h-354v55h412v-373q-111 -99 -319 -137q-61 -10 -151 -10t-193 39t-178 111q-157 152 -157 395t156 399t386 157q229 0 368 -98zM938 1270l-33 -37l-254 207
l-258 -207l-33 37l287 229h8z" />
    <glyph glyph-name="Gcommaaccentsmall" unicode="&#xf67f;" horiz-adv-x="1202" 
d="M975 942q-118 88 -329 88q-212 0 -350 -140t-138 -357q0 -218 139 -354t365 -136q102 0 204 32t168 89v287h-354v55h412v-373q-111 -99 -319 -137q-61 -10 -151 -10t-193 39t-178 111q-157 152 -157 395t156 399t386 157q229 0 368 -98zM639 -131q82 -9 82 -121
t-143 -160l-17 31q103 40 103 126q0 85 -66 99z" />
    <glyph glyph-name="Gdotaccentsmall" unicode="&#xf680;" horiz-adv-x="1202" 
d="M975 942q-118 88 -329 88q-212 0 -350 -140t-138 -357q0 -218 139 -354t365 -136q102 0 204 32t168 89v287h-354v55h412v-373q-111 -99 -319 -137q-61 -10 -151 -10t-193 39t-178 111q-157 152 -157 395t156 399t386 157q229 0 368 -98zM586 1372q0 20 14 32t32 13
q18 0 30 -12q14 -12 14 -33t-13 -33t-31 -12t-32 12q-14 13 -14 33z" />
    <glyph glyph-name="Hbarsmall" unicode="&#xf681;" horiz-adv-x="1282" 
d="M1032 578v235h-782v-235h782zM61 868h129v207h60v-207h782v207h60v-207h129v-55h-129v-813h-60v520h-782v-520h-60v813h-129v55z" />
    <glyph glyph-name="Hcircumflexsmall" unicode="&#xf682;" horiz-adv-x="1282" 
d="M1032 520h-782v-520h-60v1075h60v-497h782v497h60v-1075h-60v520zM930 1270l-33 -37l-254 207l-258 -207l-33 37l287 229h8z" />
    <glyph glyph-name="Imacronsmall" unicode="&#xf685;" horiz-adv-x="526" 
d="M233 1075h60v-1075h-60v1075zM16 1413h496v-49h-496v49z" />
    <glyph glyph-name="Iogoneksmall" unicode="&#xf686;" horiz-adv-x="526" 
d="M-41 -225q0 97 81.5 162.5t192.5 82.5v1055h60v-1075h-2q-105 0 -190 -61t-85 -144t54 -119t113 -36t100 18l18 -39q-56 -29 -107 -29q-100 0 -167.5 44t-67.5 141z" />
    <glyph glyph-name="Jcircumflexsmall" unicode="&#xf688;" horiz-adv-x="583" 
d="M332 240v835h61v-842q0 -113 -46 -181t-155 -66q-109 0 -163 47l22 47q50 -35 109 -35t92 15q80 36 80 180zM639 1270l-33 -37l-254 207l-258 -207l-33 37l287 229h8z" />
    <glyph glyph-name="Kcommaaccentsmall" unicode="&#xf689;" horiz-adv-x="1040" 
d="M190 1075h60v-1075h-60v1075zM406 565l581 -565h-88l-575 561l559 514h86zM500 -131q82 -9 82 -122q0 -112 -144 -159l-16 31q104 41 102 135q0 77 -65 90z" />
    <glyph glyph-name="Lacutesmall" unicode="&#xf68a;" horiz-adv-x="917" 
d="M190 1075h60v-1016h635v-59h-695v1075zM356 1217l-32 30l233 291l37 -41z" />
    <glyph glyph-name="Lcaronsmall" unicode="&#xf68b;" horiz-adv-x="917" 
d="M190 1075h60v-1016h635v-59h-695v1075zM700 965q0 -73 -40 -137t-93 -91l-24 31q47 29 74 86q28 56 28 120t-20 101h57q18 -36 18 -110z" />
    <glyph glyph-name="Lcommaaccentsmall" unicode="&#xf68c;" horiz-adv-x="917" 
d="M190 1075h60v-1016h635v-59h-695v1075zM516 -131q82 -9 82 -121t-143 -160l-17 31q103 40 103 126q0 85 -66 99z" />
    <glyph glyph-name="Ldotsmall" unicode="&#xf68d;" horiz-adv-x="917" 
d="M190 1075h60v-1016h635v-59h-695v1075zM735 586q0 -18 -14 -34t-35 -15q-21 -1 -35 15t-14 34t14 32q15 14 35 14t34 -14t15 -32z" />
    <glyph glyph-name="Nacutesmall" unicode="&#xf68e;" horiz-adv-x="1320" 
d="M248 0h-58v1075h48l835 -975v975h57v-1075h-49l-833 973v-973zM635 1217l-33 30l234 291l36 -41z" />
    <glyph glyph-name="Ncaronsmall" unicode="&#xf68f;" horiz-adv-x="1320" 
d="M248 0h-58v1075h48l835 -975v975h57v-1075h-49l-833 973v-973zM389 1464l31 35l239 -207l238 207l31 -35l-264 -229h-9z" />
    <glyph glyph-name="Ncommaaccentsmall" unicode="&#xf690;" horiz-adv-x="1320" 
d="M248 0h-58v1075h48l835 -975v975h57v-1075h-49l-833 973v-973zM645 -246q0 77 -65 90l41 25q82 -9 81 -122q-1 -112 -143 -159l-16 31q104 41 102 135z" />
    <glyph glyph-name="Ohungarumlautsmall" unicode="&#xf692;" horiz-adv-x="1325" 
d="M158 540q0 -210 145 -354q145 -143 359 -143q215 0 360 141t145 353q0 211 -144 352t-359 141t-361 -139q-145 -141 -145 -351zM257 141q-163 157 -163 394t163 396q163 158 406 157q244 -1 406 -157q162 -155 162 -393t-163 -395t-405 -157q-243 0 -406 155zM492 1219
l-35 22l221 299l41 -33zM780 1219l-32 22l231 295l41 -33z" />
    <glyph glyph-name="Omacronsmall" unicode="&#xf693;" horiz-adv-x="1325" 
d="M158 540q0 -210 145 -354q145 -143 359 -143q215 0 360 141t145 353q0 211 -144 352t-359 141t-361 -139q-145 -141 -145 -351zM257 141q-163 157 -163 394t163 396q163 158 406 157q244 -1 406 -157q162 -155 162 -393t-163 -395t-405 -157q-243 0 -406 155zM414 1413
h495v-49h-495v49z" />
    <glyph glyph-name="Racutesmall" unicode="&#xf695;" horiz-adv-x="1028" 
d="M444 1022h-37l-157 -4v-504h221q120 0 217 75q98 75 96 183q0 250 -340 250zM250 457v-457h-60v1075l252 4q222 0 323 -94q81 -75 82 -201q1 -124 -77 -206t-207 -107l408 -471h-78l-391 457h-252zM424 1217l-33 30l234 291l37 -41z" />
    <glyph glyph-name="Rcaronsmall" unicode="&#xf696;" horiz-adv-x="1028" 
d="M444 1022h-37l-157 -4v-504h221q120 0 217 75q98 75 96 183q0 250 -340 250zM250 457v-457h-60v1075l252 4q222 0 323 -94q81 -75 82 -201q1 -124 -77 -206t-207 -107l408 -471h-78l-391 457h-252zM172 1464l31 35l239 -207l238 207l31 -35l-265 -229h-8z" />
    <glyph glyph-name="Rcommaaccentsmall" unicode="&#xf697;" horiz-adv-x="1028" 
d="M444 1022h-37l-157 -4v-504h221q120 0 217 75q98 75 96 183q0 250 -340 250zM250 457v-457h-60v1075l252 4q222 0 323 -94q81 -75 82 -201q1 -124 -77 -206t-207 -107l408 -471h-78l-391 457h-252zM516 -131q82 -9 82 -121t-143 -160l-17 31q103 40 103 126q0 85 -66 99z
" />
    <glyph glyph-name="Sacutesmall" unicode="&#xf698;" horiz-adv-x="946" 
d="M494 43q114 0 204 60t90 151q0 92 -49 140q-81 80 -283 137q-201 57 -284 148q-49 53 -49 155t91 178t254 76t285 -68q38 -20 62 -47l-31 -43q-53 51 -139 76t-168 24q-133 0 -212 -56t-79 -142t50 -132t122 -76q74 -30 161 -55t161 -61t123 -91t49 -137t-29 -133
q-92 -161 -361 -161q-102 0 -208 41t-164 106l39 41q131 -131 365 -131zM457 1217l-33 30l233 291l37 -41z" />
    <glyph glyph-name="Scedillasmall" unicode="&#xf699;" horiz-adv-x="946" 
d="M784 930q-104 100 -332 100q-108 0 -187 -56t-79 -142t49.5 -131.5t123 -76t160.5 -55t161 -60.5t123 -92.5t49 -137.5q0 -142 -105 -217.5t-253 -75.5h-2v-101q198 -4 198 -108.5t-57 -146.5t-135 -42t-119 13.5t-82 33.5l20 35q78 -41 150 -41t119 30t47 110.5
t-168 80.5h-12v138q-123 6 -216.5 45t-146.5 100l39 41q131 -131 365 -131q113 0 203.5 59.5t90.5 151.5t-49 140t-122.5 80t-160.5 56.5t-161 59.5t-123 88.5t-49 155.5t91 177.5t252 75.5t243 -44t106 -70z" />
    <glyph glyph-name="Scircumflexsmall" unicode="&#xf69a;" horiz-adv-x="946" 
d="M494 43q114 0 204 60t90 151q0 92 -49 140q-81 80 -283 137q-201 57 -284 148q-49 53 -49 155t91 178t254 76t285 -68q38 -20 62 -47l-31 -43q-53 51 -139 76t-168 24q-133 0 -212 -56t-79 -142t50 -132t122 -76q74 -30 161 -55t161 -61t123 -91t49 -137t-29 -133
q-92 -161 -361 -161q-102 0 -208 41t-164 106l39 41q131 -131 365 -131zM760 1270l-33 -37l-254 207l-258 -207l-33 37l287 229h8z" />
    <glyph glyph-name="Scommaaccentsmall" unicode="&#xf69b;" horiz-adv-x="946" 
d="M494 43q114 0 204 60t90 151q0 92 -49 140q-81 80 -283 137q-201 57 -284 148q-49 53 -49 155t91 178t254 76t285 -68q38 -20 62 -47l-31 -43q-53 51 -139 76t-168 24q-133 0 -212 -56t-79 -142t50 -132t122 -76q74 -30 161 -55t161 -61t123 -91t49 -137t-29 -133
q-92 -161 -361 -161q-102 0 -208 41t-164 106l39 41q131 -131 365 -131zM502 -255q0 85 -66 99l41 25q83 -10 82 -122t-143 -159l-17 31q103 41 103 126z" />
    <glyph glyph-name="Tcaronsmall" unicode="&#xf69d;" horiz-adv-x="976" 
d="M16 1075h945v-57h-443v-1018h-59v1018h-443v57zM221 1464l31 35l240 -207l237 207l31 -35l-264 -229h-9z" />
    <glyph glyph-name="Tcommaaccentsmall" unicode="&#xf69e;" horiz-adv-x="976" 
d="M16 1075h945v-57h-443v-1018h-59v1018h-443v57zM518 -246q0 77 -65 90l41 25q82 -9 81 -122q-1 -112 -143 -159l-16 31q104 41 102 135z" />
    <glyph glyph-name="Ubrevesmall" unicode="&#xf69f;" horiz-adv-x="1243" 
d="M1069 451q0 -234 -125 -349q-125 -116 -319 -115q-193 1 -322 123t-129 351v614h59v-604q0 -201 110 -313q110 -113 292 -113q260 0 344 231q29 80 29 189v610h61v-624zM895 1448q-107 -155 -261 -156q-155 -2 -249 109q-23 27 -35 47l29 31q107 -137 248 -140
q86 0 144 44t99 94z" />
    <glyph glyph-name="Uhungarumlautsmall" unicode="&#xf6a0;" horiz-adv-x="1243" 
d="M1069 451q0 -234 -125 -349q-125 -116 -319 -115q-193 1 -322 123t-129 351v614h59v-604q0 -201 110 -313q110 -113 292 -113q260 0 344 231q29 80 29 189v610h61v-624zM453 1219l-35 22l221 299l41 -33zM741 1219l-32 22l231 295l41 -33z" />
    <glyph glyph-name="Umacronsmall" unicode="&#xf6a1;" horiz-adv-x="1243" 
d="M1069 451q0 -234 -125 -349q-125 -116 -319 -115q-193 1 -322 123t-129 351v614h59v-604q0 -201 110 -313q110 -113 292 -113q260 0 344 231q29 80 29 189v610h61v-624zM373 1413h495v-49h-495v49z" />
    <glyph glyph-name="Uogoneksmall" unicode="&#xf6a2;" horiz-adv-x="1243" 
d="M612 -366q-67 44 -67 150q0 105 70.5 149t103.5 61q-43 -6 -113 -6t-153.5 29.5t-181 122.5t-97.5 321v614h59v-604q0 -200 109.5 -313t292.5 -113q260 0 316.5 155.5t56.5 264.5v610h61v-624q0 -186 -77 -292t-195 -147q-80 -43 -137.5 -95t-57.5 -129t54 -112.5
t114 -35.5q59 0 98 18l19 -39q-56 -29 -132 -29t-143 44z" />
    <glyph glyph-name="Uringsmall" unicode="&#xf6a3;" horiz-adv-x="1243" 
d="M1069 451q0 -234 -125 -349q-125 -116 -319 -115q-193 1 -322 123t-129 351v614h59v-604q0 -201 110 -313q110 -113 292 -113q260 0 344 231q29 80 29 189v610h61v-624zM463 1340q0 -66 45 -112t112 -46q68 0 114 46t46 112t-47 114q-47 47 -113 47t-112 -47
q-45 -47 -45 -114zM478 1482q58 58 144 58t143 -58q58 -58 58 -142t-58 -140q-58 -57 -144 -57t-144 57q-57 56 -57 140t58 142z" />
    <glyph glyph-name="Zacutesmall" unicode="&#xf6ab;" horiz-adv-x="1032" 
d="M98 1075h852v-35l-792 -983h809v-57h-901v35l792 983h-760v57zM496 1217l-33 30l233 291l37 -41z" />
    <glyph glyph-name="Zdotaccentsmall" unicode="&#xf6ac;" horiz-adv-x="1032" 
d="M98 1075h852v-35l-792 -983h809v-57h-901v35l792 983h-760v57zM471 1372q0 20 14 32q13 12 31 13q18 0 32 -12t13 -33q0 -21 -13 -33q-12 -12 -30 -12t-33 12q-14 13 -14 33z" />
    <glyph glyph-name="Idotaccentsmall" unicode="&#xf6ad;" horiz-adv-x="526" 
d="M233 1075h60v-1075h-60v1075zM219 1372q0 20 14 32q13 12 31 13q18 0 32 -12t13 -33q0 -21 -13 -33q-12 -12 -30 -12t-33 12q-14 13 -14 33z" />
    <glyph glyph-name="uniF6BA" unicode="&#xf6ba;" horiz-adv-x="833" 
d="M190 752h453v-56h-453v56z" />
    <glyph glyph-name="uniF6BB" unicode="&#xf6bb;" horiz-adv-x="1202" 
d="M199 752h802v-54h-802v54z" />
    <glyph glyph-name="uniF6BC" unicode="&#xf6bc;" horiz-adv-x="1615" 
d="M199 752h1218v-54h-1218v54z" />
    <glyph glyph-name="commaaccent" unicode="&#xf6c3;" horiz-adv-x="405" 
d="M201 -131q82 -9 82 -122q0 -112 -144 -159l-16 31q104 41 102 135q0 77 -65 90z" />
    <glyph glyph-name="Acute" unicode="&#xf6c9;" horiz-adv-x="606" 
d="M141 1516l-18 36l338 193l22 -47z" />
    <glyph glyph-name="Caron" unicode="&#xf6ca;" horiz-adv-x="935" 
d="M123 1710l27 35l319 -174l315 174l29 -35l-340 -190h-8z" />
    <glyph glyph-name="Dieresis" unicode="&#xf6cb;" horiz-adv-x="819" 
d="M651 1585q-49 0 -49 45q0 20 14.5 31.5t32.5 11.5t32.5 -11t14.5 -33t-14 -33t-31 -11zM172 1585q-49 0 -49 45q0 20 14.5 31.5t33.5 11.5t33.5 -11t14.5 -33t-14.5 -33t-32.5 -11z" />
    <glyph glyph-name="Grave" unicode="&#xf6ce;" horiz-adv-x="606" 
d="M123 1698l22 47l338 -193l-20 -36z" />
    <glyph glyph-name="Hungarumlaut" unicode="&#xf6cf;" horiz-adv-x="952" 
d="M150 1516l-27 28l303 201l43 -31zM502 1516l-27 28l320 201l34 -39z" />
    <glyph glyph-name="Macron" unicode="&#xf6d0;" horiz-adv-x="854" 
d="M123 1657h608v-49h-608v49z" />
    <glyph glyph-name="cyrBreve" unicode="&#xf6d1;" horiz-adv-x="927" 
d="M466 1575q99 0 177 44t105 112h57q-23 -88 -123.5 -145.5t-219.5 -57.5q-120 0 -212 58.5t-127 144.5h57q41 -66 114 -111t172 -45z" />
    <glyph glyph-name="cyrbreve" unicode="&#xf6d4;" horiz-adv-x="770" 
d="M174 1407q0 -82 58.5 -136t153.5 -54t152.5 54t57.5 136h51q0 -102 -72.5 -171t-191.5 -69t-189.5 68t-70.5 172h51z" />
    <glyph glyph-name="uniF6DC" unicode="&#xf6dc;" 
d="M674 1448v-1448h-58v1360l-258 -209l-32 45l311 252h37z" />
    <glyph glyph-name="uniF6DE" unicode="&#xf6de;" horiz-adv-x="1210" 
d="M150 580h913v-54h-913v54z" />
    <glyph glyph-name="Brevesmall" unicode="&#xf6f4;" horiz-adv-x="790" 
d="M399 1339q86 0 144.5 44t99.5 94l25 -29q-109 -158 -271 -158q-100 0 -171 51t-103 107l29 31q109 -140 247 -140z" />
    <glyph glyph-name="Caronsmall" unicode="&#xf6f5;" horiz-adv-x="784" 
d="M123 1464l31 35l239 -207l238 207l31 -35l-265 -229h-8z" />
    <glyph glyph-name="Circumflexsmall" unicode="&#xf6f6;" horiz-adv-x="823" 
d="M700 1270l-32 -37l-254 207l-258 -207l-33 37l287 229h8z" />
    <glyph glyph-name="Dotaccentsmall" unicode="&#xf6f7;" horiz-adv-x="335" 
d="M123 1372q0 20 14.5 32.5t31.5 12.5t30.5 -12t13.5 -33t-13.5 -33t-30.5 -12t-31.5 12.5t-14.5 32.5z" />
    <glyph glyph-name="Hungarumlautsmall" unicode="&#xf6f8;" horiz-adv-x="808" 
d="M158 1219l-35 22l221 299l41 -33zM446 1219l-32 22l231 295l41 -33z" />
    <glyph glyph-name="Lslashsmall" unicode="&#xf6f9;" horiz-adv-x="917" 
d="M190 1075h60v-553l260 135v-59l-260 -137v-402h635v-59h-695v430l-149 -78v64l149 76v583z" />
    <glyph glyph-name="OEsmall" unicode="&#xf6fa;" horiz-adv-x="1744" 
d="M965 944q-120 86 -326 86t-343.5 -139.5t-137.5 -358.5t142.5 -354t365.5 -135q170 0 299 88v813zM94 531q0 244 154 400t399 156q190 0 318 -77v65h637v-57h-576v-443h524v-57h-524v-461h592v-57h-653v66q-128 -80 -279 -80q-278 0 -435 150.5t-157 394.5z" />
    <glyph glyph-name="Ogoneksmall" unicode="&#xf6fb;" horiz-adv-x="587" 
d="M190 -366q-67 44 -67 147q0 102 101.5 173t230.5 71v-25q-104 0 -189.5 -60.5t-85.5 -144.5t54 -119.5t114 -35.5q59 0 98 18l19 -39q-56 -29 -132 -29t-143 44z" />
    <glyph glyph-name="Ringsmall" unicode="&#xf6fc;" horiz-adv-x="649" 
d="M166 1340q0 -67 45 -112.5t112 -45.5t113.5 46t46.5 112t-47.5 113.5t-113.5 47.5t-111 -47t-45 -114zM181.5 1481.5q58.5 58.5 142.5 58.5t143 -57.5t59 -141.5t-58 -141t-144 -57t-143.5 57t-57.5 140t58.5 141.5z" />
    <glyph glyph-name="Scaronsmall" unicode="&#xf6fd;" horiz-adv-x="946" 
d="M494 43q114 0 204 60t90 151q0 92 -49 140q-81 80 -283 137q-201 57 -284 148q-49 53 -49 155t91 178t254 76t285 -68q38 -20 62 -47l-31 -43q-53 51 -139 76t-168 24q-133 0 -212 -56t-79 -142t50 -132t122 -76q74 -30 161 -55t161 -61t123 -91t49 -137t-29 -133
q-92 -161 -361 -161q-102 0 -208 41t-164 106l39 41q131 -131 365 -131zM203 1464l30 35l240 -207l238 207l30 -35l-264 -229h-8z" />
    <glyph glyph-name="Tildesmall" unicode="&#xf6fe;" horiz-adv-x="839" 
d="M530 1262q-35 0 -60.5 15t-51 33.5t-52 34t-61.5 15.5q-64 0 -155 -76l-27 31q105 94 190 94q52 0 117 -49t118 -49t144 84l25 -33q-104 -100 -187 -100z" />
    <glyph glyph-name="Zcaronsmall" unicode="&#xf6ff;" horiz-adv-x="1032" 
d="M98 1075h852v-35l-792 -983h809v-57h-901v35l792 983h-760v57zM244 1464l30 35l240 -207l238 207l30 -35l-264 -229h-8z" />
    <glyph glyph-name="zerooldstyle" unicode="&#xf730;" horiz-adv-x="1269" 
d="M966 180q126 139 126 333t-127.5 332t-330.5 138t-329.5 -138.5t-126.5 -332.5t126.5 -332.5t331 -138.5t330.5 139zM117 512q0 104 35.5 199.5t102.5 169t163 117.5t217 44t217 -44t162.5 -117.5t102.5 -169t36 -199.5t-36 -199.5t-102.5 -169t-162.5 -117.5t-217 -44
t-217 44t-163 117.5t-102.5 169t-35.5 199.5z" />
    <glyph glyph-name="oneoldstyle" unicode="&#xf731;" horiz-adv-x="745" 
d="M457 1040v-1040h-62v961l-258 -207l-24 49l307 237h37z" />
    <glyph glyph-name="twooldstyle" unicode="&#xf732;" horiz-adv-x="1083" 
d="M823 686q0 129 -74.5 214t-232.5 85q-113 0 -211 -67.5t-123 -212.5l-43 24q18 146 131 230.5t226 84.5q205 0 296 -99t91 -252t-137.5 -310t-301 -234t-202.5 -92h710v-57h-837v47q260 103 484 267.5t224 371.5z" />
    <glyph glyph-name="threeoldstyle" unicode="&#xf733;" horiz-adv-x="1093" 
d="M514 985q-241 0 -330 -213l-37 31q39 115 137 178t232 63q174 0 270 -95t96 -267t-131 -288q-44 -38 -100 -58v-6q129 -19 208 -119t79 -212q0 -205 -121 -315t-318 -110t-319 136q-43 48 -71 116l38 37q96 -225 373 -230q163 0 261 99t98 244t-97 233t-231 88h-131v57
h117q107 0 198 96q90 96 89 240t-87 220t-223 75z" />
    <glyph glyph-name="fouroldstyle" unicode="&#xf734;" horiz-adv-x="1081" 
d="M725 0h-670v33l650 991h65l-633 -967h588v467h57v-467h222v-57h-222v-410h-57v410z" />
    <glyph glyph-name="fiveoldstyle" unicode="&#xf735;" horiz-adv-x="1064" 
d="M491 457q195 0 321 -119t126 -317q0 -197 -125 -322t-308 -125t-318 129q-46 45 -78 107l38 38q118 -210 367 -215q152 0 259 113q106 113 106 277t-115 273t-297 107q-104 0 -209 -36l84 659h600v-57h-551l-69 -537q77 25 169 25z" />
    <glyph glyph-name="sixoldstyle" unicode="&#xf736;" horiz-adv-x="1120" 
d="M574 41q88 0 152 31q132 64 189 206q29 70 29 150q0 170 -98 281q-98 110 -267 110t-271 -93t-130 -216q0 -189 102 -324q50 -66 128 -106t166 -39zM117 508q0 372 221 644q98 122 220 199t243 101l26 -45q-238 -55 -410 -250q-199 -224 -235 -555q67 184 259 250
q65 22 152 22t165 -32q155 -65 216 -231q30 -81 30 -178t-34 -179q-68 -164 -224 -238q-75 -34 -175 -34t-189 43q-173 84 -236 283q-29 96 -29 200z" />
    <glyph glyph-name="sevenoldstyle" unicode="&#xf737;" horiz-adv-x="954" 
d="M76 1026h801v-31l-562 -1403h-65l551 1377h-725v57z" />
    <glyph glyph-name="eightoldstyle" unicode="&#xf738;" horiz-adv-x="1204" 
d="M156 371q0 127 85 231t224 131v6q-111 28 -183 130q-73 102 -73 198t31 165q63 140 209 193q71 27 151 27q166 0 282 -106q115 -106 114 -269q-1 -164 -150 -279q-47 -36 -109 -57v-6q133 -16 222 -116q88 -100 88 -244q0 -179 -132 -286t-313 -107q-180 0 -313 107
t-133 282zM575 709q-146 0 -252 -96t-106 -236t112 -238t272 -98q159 0 272 94q114 94 114 243q0 148 -105 244q-99 87 -247 87h-60zM639 766q105 0 200 88q95 93 95 230t-99 222t-232 86t-234 -86t-101 -223q0 -137 95 -227t202 -90h74z" />
    <glyph glyph-name="nineoldstyle" unicode="&#xf739;" horiz-adv-x="1118" 
d="M563 985q-159 0 -275 -110t-116 -269t101 -272t266 -113q164 0 269 89t132 204q0 88 -22 173q-50 185 -192 259q-75 40 -163 39zM1001 516q0 -390 -193 -643q-193 -254 -497 -299l-22 47q274 47 448 255t199 544q-41 -110 -143 -182t-256 -72q-191 0 -308 128
q-118 128 -117 311q1 182 134 312q133 129 297 127q226 0 342 -150t116 -378z" />
    <glyph glyph-name="Gravesmall" unicode="&#xf760;" horiz-adv-x="516" 
d="M123 1497l37 41l233 -291l-33 -30z" />
    <glyph glyph-name="Asmall" unicode="&#xf761;" horiz-adv-x="1146" 
d="M309 442h522l-260 564zM551 1085h45l508 -1085h-66l-180 387h-573l-181 -387h-61z" />
    <glyph glyph-name="Bsmall" unicode="&#xf762;" horiz-adv-x="1028" 
d="M250 578h258q118 0 202.5 61.5t84.5 166.5q0 106 -70.5 161t-232.5 55h-16l-226 -4v-440zM842 299q0 109 -88 167t-254 58h-250v-467l28 -1l216 -3q348 0 348 246zM854 867q0 -212 -97.5 -257t-146.5 -51v-2q291 -29 291 -257q0 -229 -159.5 -266.5t-247.5 -37.5h-40
l-264 4v1075l35 1l269 3q360 0 360 -212z" />
    <glyph glyph-name="Csmall" unicode="&#xf763;" horiz-adv-x="1085" 
d="M652 -14q-114 0 -219 38.5t-222 152.5t-117 356t154 398t403 156q211 0 350 -98l-32 -45q-115 86 -326 86q-210 0 -347.5 -139.5t-137.5 -357.5t143.5 -354t351.5 -136t344 107l25 -48q-61 -55 -158.5 -85.5t-211.5 -30.5z" />
    <glyph glyph-name="Dsmall" unicode="&#xf764;" horiz-adv-x="1216" 
d="M1059 553q0 326 -216 397.5t-372 71.5l-221 -4v-961l36 -1l177 -3q287 0 441.5 140t154.5 360zM190 0v1075h19l266 4q326 0 486.5 -147t160.5 -386t-173 -394.5t-488 -155.5l-260 4h-11z" />
    <glyph glyph-name="Esmall" unicode="&#xf765;" horiz-adv-x="970" 
d="M190 1075h637v-57h-577v-443h528v-57h-528v-461h594v-57h-654v1075z" />
    <glyph glyph-name="Fsmall" unicode="&#xf766;" horiz-adv-x="903" 
d="M190 1075h648v-57h-588v-473h536v-58h-536v-487h-60v1075z" />
    <glyph glyph-name="Gsmall" unicode="&#xf767;" horiz-adv-x="1202" 
d="M1092 133q-164 -147 -470 -147q-90 0 -193 38.5t-219 151.5t-116 356t157.5 399t385.5 156q229 0 367 -98l-29 -47q-118 88 -330 88t-349.5 -139.5t-137.5 -358.5t140 -354t364 -135q102 0 204.5 31.5t167.5 89.5v287h-354v55h412v-373z" />
    <glyph glyph-name="Hsmall" unicode="&#xf768;" horiz-adv-x="1282" 
d="M1032 520h-782v-520h-60v1075h60v-497h782v497h60v-1075h-60v520z" />
    <glyph glyph-name="Ismall" unicode="&#xf769;" horiz-adv-x="526" 
d="M233 1075h60v-1075h-60v1075z" />
    <glyph glyph-name="Jsmall" unicode="&#xf76a;" horiz-adv-x="583" 
d="M332 240v835h61v-842q0 -113 -46 -180t-155 -67t-163 47l22 47q50 -35 109 -35q105 0 138.5 52t33.5 143z" />
    <glyph glyph-name="Ksmall" unicode="&#xf76b;" horiz-adv-x="1040" 
d="M190 1075h60v-1075h-60v1075zM406 565l581 -565h-88l-575 561l559 514h86z" />
    <glyph glyph-name="Lsmall" unicode="&#xf76c;" horiz-adv-x="917" 
d="M190 1075h60v-1016h635v-59h-695v1075z" />
    <glyph glyph-name="Msmall" unicode="&#xf76d;" horiz-adv-x="1454" 
d="M190 1075h62l485 -608l467 608h60v-1075h-62v985l-465 -604h-8l-479 598v-979h-60v1075z" />
    <glyph glyph-name="Nsmall" unicode="&#xf76e;" horiz-adv-x="1320" 
d="M248 0h-58v1075h48l835 -975v975h57v-1075h-49l-833 973v-973z" />
    <glyph glyph-name="Osmall" unicode="&#xf76f;" horiz-adv-x="1325" 
d="M303 186q145 -143 360 -143t359.5 141t144.5 354t-145 352.5t-360 139.5t-359.5 -140.5t-144.5 -350.5t145 -353zM94 537q0 119 43 219t119 174t180.5 115.5t225 41.5t225 -40.5t181.5 -114.5t120 -174.5t43 -219t-43 -220t-120 -175t-181.5 -115.5t-225 -42t-224 41
t-180.5 114.5t-120 175t-43 220.5z" />
    </font>
</defs>
</svg>
